<svg xmlns:xlink="http://www.w3.org/1999/xlink" width="96" height="28" viewBox="0 0 96 28" fill="none" xmlns="http://www.w3.org/2000/svg"><title fill="none">Action</title><path d="M52.3799 16.8674H48.0848L47.3741 18.9223H45.103L48.9809 8.12271H51.4993L55.3772 18.9223H53.0906L52.3799 16.8674ZM51.7928 15.137L50.2324 10.6256L48.6719 15.137H51.7928ZM56.2706 14.6426C56.2706 13.7568 56.4508 12.9843 56.8113 12.3251C57.1718 11.6556 57.6714 11.1406 58.31 10.7801C58.9486 10.4093 59.6799 10.2239 60.5039 10.2239C61.5648 10.2239 62.4403 10.4917 63.1304 11.0273C63.8308 11.5526 64.2994 12.2942 64.5363 13.2521H62.2034C62.0798 12.8813 61.8686 12.5929 61.5699 12.3869C61.2815 12.1706 60.921 12.0625 60.4884 12.0625C59.8704 12.0625 59.3812 12.2891 59.0207 12.7423C58.6602 13.1852 58.4799 13.8186 58.4799 14.6426C58.4799 15.4563 58.6602 16.0898 59.0207 16.543C59.3812 16.9859 59.8704 17.2073 60.4884 17.2073C61.3639 17.2073 61.9356 16.8159 62.2034 16.0331H64.5363C64.2994 16.9601 63.8308 17.6966 63.1304 18.2425C62.43 18.7884 61.5545 19.0613 60.5039 19.0613C59.6799 19.0613 58.9486 18.8811 58.31 18.5206C57.6714 18.1498 57.1718 17.6348 56.8113 16.9756C56.4508 16.3061 56.2706 15.5284 56.2706 14.6426ZM68.6393 12.1397V16.2803C68.6393 16.5687 68.7062 16.7799 68.8401 16.9138C68.9843 17.0374 69.2212 17.0992 69.5508 17.0992H70.5551V18.9223H69.1955C67.3724 18.9223 66.4608 18.0365 66.4608 16.2649V12.1397H65.4411V10.363H66.4608V8.24631H68.6393V10.363H70.5551V12.1397H68.6393ZM73.2078 9.34326C72.8267 9.34326 72.5074 9.22481 72.2499 8.98791C72.0027 8.74071 71.8791 8.43686 71.8791 8.07636C71.8791 7.71586 72.0027 7.41716 72.2499 7.18026C72.5074 6.93306 72.8267 6.80946 73.2078 6.80946C73.5889 6.80946 73.903 6.93306 74.1502 7.18026C74.4077 7.41716 74.5365 7.71586 74.5365 8.07636C74.5365 8.43686 74.4077 8.74071 74.1502 8.98791C73.903 9.22481 73.5889 9.34326 73.2078 9.34326ZM74.2738 10.363V18.9223H72.1108V10.363H74.2738ZM80.2115 19.0613C79.3875 19.0613 78.6459 18.8811 77.9867 18.5206C77.3275 18.1498 76.8074 17.6296 76.4263 16.9601C76.0555 16.2906 75.8701 15.5181 75.8701 14.6426C75.8701 13.7671 76.0606 12.9946 76.4417 12.3251C76.8331 11.6556 77.3636 11.1406 78.0331 10.7801C78.7026 10.4093 79.4493 10.2239 80.2733 10.2239C81.0973 10.2239 81.8441 10.4093 82.5136 10.7801C83.1831 11.1406 83.7084 11.6556 84.0895 12.3251C84.4809 12.9946 84.6766 13.7671 84.6766 14.6426C84.6766 15.5181 84.4757 16.2906 84.074 16.9601C83.6826 17.6296 83.147 18.1498 82.4672 18.5206C81.7977 18.8811 81.0458 19.0613 80.2115 19.0613ZM80.2115 17.1764C80.6029 17.1764 80.9686 17.0837 81.3085 16.8983C81.6587 16.7026 81.9368 16.4142 82.1428 16.0331C82.3488 15.652 82.4518 15.1885 82.4518 14.6426C82.4518 13.8289 82.2355 13.2058 81.8029 12.7732C81.3806 12.3303 80.8604 12.1088 80.2424 12.1088C79.6244 12.1088 79.1043 12.3303 78.682 12.7732C78.27 13.2058 78.064 13.8289 78.064 14.6426C78.064 15.4563 78.2648 16.0846 78.6665 16.5275C79.0785 16.9601 79.5935 17.1764 80.2115 17.1764ZM91.0064 10.2394C92.0261 10.2394 92.8501 10.5638 93.4784 11.2127C94.1067 11.8513 94.4208 12.7474 94.4208 13.901V18.9223H92.2578V14.1946C92.2578 13.5148 92.0879 12.9946 91.748 12.6341C91.4081 12.2633 90.9446 12.0779 90.3575 12.0779C89.7601 12.0779 89.2863 12.2633 88.9361 12.6341C88.5962 12.9946 88.4262 13.5148 88.4262 14.1946V18.9223H86.2632V10.363H88.4262V11.429C88.7146 11.0582 89.0803 10.7698 89.5232 10.5638C89.9764 10.3475 90.4708 10.2394 91.0064 10.2394Z" fill="#F74F25"></path><path d="M0 9.33427C0 4.19024 8.32267 0 18.5551 0C28.7876 0 36.9203 4.09611 37.1009 9.16324V18.7311C36.9188 13.6625 28.6677 9.56798 18.5551 9.56798C8.44246 9.56798 0 13.7566 0 18.9021V9.33427Z" fill="#F74F25"></path><path d="M35.2467 12.8906C35.5503 12.5345 35.8087 12.1642 36.0204 11.7814V21.35C35.8087 21.7282 35.5518 22.0984 35.2467 22.4593V12.8906Z" fill="#F74F25"></path><path d="M32.7215 15.0195C33.1994 14.7183 33.6383 14.4029 34.0384 14.0766V23.6405C33.6368 23.9684 33.1978 24.2869 32.7215 24.5834V15.0148" fill="#F74F25"></path><path d="M29.1749 16.7228C29.7913 16.4984 30.3828 16.2506 30.9354 15.9917V25.5556C30.3781 25.8192 29.7913 26.0608 29.1749 26.2867V16.7181" fill="#F74F25"></path><path d="M24.8161 17.8949C25.5462 17.7584 26.2513 17.6016 26.9316 17.4227V26.9867C26.2513 27.1655 25.5415 27.3271 24.8161 27.4589V17.8903" fill="#F74F25"></path><path d="M14.6871 18.2482C15.4592 18.3328 16.25 18.3925 17.0516 18.427V27.9909C16.2453 27.9565 15.4561 27.8968 14.6871 27.8121V18.2434" fill="#F74F25"></path><path d="M19.8516 18.4314C20.6579 18.4016 21.4518 18.3467 22.2254 18.2651V27.8337C21.4533 27.9137 20.6595 27.9703 19.8516 28V18.4314Z" fill="#F74F25"></path><path d="M10.0029 17.3772C10.6785 17.5592 11.3837 17.7208 12.1106 17.862V27.4259C11.3837 27.2863 10.6832 27.1247 10.0029 26.9411V17.3725" fill="#F74F25"></path><path d="M6.02969 15.9245C6.58229 16.1881 7.16599 16.4392 7.77779 16.6682V26.2321C7.16599 26.0031 6.57919 25.7568 6.02969 25.4885V15.9199" fill="#F74F25"></path><path d="M2.96845 13.9899C3.36072 14.321 3.79657 14.6394 4.26516 14.9422V24.5108C3.79657 24.2096 3.36072 23.8912 2.96845 23.5585V13.9899Z" fill="#F74F25"></path><path d="M1.03311 11.6891C1.23547 12.072 1.48453 12.4407 1.78029 12.803V22.3717C1.48453 22.0109 1.23547 21.6406 1.03311 21.2578V11.6891Z" fill="#F74F25"></path></svg>