<svg xmlns:xlink="http://www.w3.org/1999/xlink" width="26" height="24" viewBox="0 0 26 24" fill="none" xmlns="http://www.w3.org/2000/svg" role="img" aria-label="Semrush" focusable="false"><path d="M25 12.4057C25 8.80643 22.6613 5 17.2571 5H6.52211C6.30408 5 6.16832 5.11357 6.16832 5.32143C6.16832 5.43429 6.24991 5.53857 6.32259 5.595C6.71203 5.91643 7.29277 6.275 8.05382 6.67214C8.79774 7.05929 9.37778 7.31429 9.95783 7.56C10.2026 7.66357 10.2938 7.77714 10.2938 7.91857C10.2938 8.11714 10.1574 8.24 9.89475 8.24H1.3723C1.11793 8.24 1 8.41 1 8.58C1 8.72143 1.04525 8.84429 1.16318 8.96714C1.85225 9.72286 2.95818 10.63 4.56394 11.6786C6.02996 12.6267 7.54297 13.4936 9.09667 14.2757C9.33253 14.3893 9.40521 14.5214 9.40521 14.6629C9.3963 14.8236 9.27837 14.9557 9.00617 14.9557H5.09805C4.8807 14.9557 4.75386 15.0786 4.75386 15.2679C4.75386 15.3714 4.83545 15.5036 4.94446 15.6079C5.83236 16.4486 7.25643 17.365 9.15153 18.205C11.6815 19.3293 14.2465 20 17.1303 20C22.5975 20 25 15.74 25 12.4057ZM17.8646 17.7236C15.072 17.7236 12.7326 15.3521 12.7326 12.3964C12.7326 9.48643 15.0631 7.14429 17.8646 7.14429C20.7299 7.14429 22.9781 9.47714 22.9781 12.3964C22.9691 15.3529 20.7292 17.7236 17.8646 17.7236Z" fill="#FFFFFF"></path><path d="M20.8543 13.2861C20.8543 11.349 19.2862 9.4511 17.0195 9.44181M25 12.4057C25 8.80643 22.6613 5 17.2571 5H6.52211C6.30408 5 6.16832 5.11357 6.16832 5.32143C6.16832 5.43429 6.24991 5.53857 6.32259 5.595C6.71203 5.91643 7.29277 6.275 8.05382 6.67214C8.79774 7.05929 9.37778 7.31429 9.95783 7.56C10.2026 7.66357 10.2938 7.77714 10.2938 7.91857C10.2938 8.11714 10.1574 8.24 9.89475 8.24H1.3723C1.11793 8.24 1 8.41 1 8.58C1 8.72143 1.04525 8.84429 1.16318 8.96714C1.85225 9.72286 2.95818 10.63 4.56394 11.6786C6.02996 12.6267 7.54297 13.4936 9.09667 14.2757C9.33253 14.3893 9.40521 14.5214 9.40521 14.6629C9.3963 14.8236 9.27837 14.9557 9.00617 14.9557H5.09805C4.8807 14.9557 4.75386 15.0786 4.75386 15.2679C4.75386 15.3714 4.83545 15.5036 4.94446 15.6079C5.83236 16.4486 7.25643 17.365 9.15153 18.205C11.6815 19.3293 14.2465 20 17.1303 20C22.5975 20 25 15.74 25 12.4057ZM17.8646 17.7236C15.072 17.7236 12.7326 15.3521 12.7326 12.3964C12.7326 9.48643 15.0631 7.14429 17.8646 7.14429C20.7299 7.14429 22.9781 9.47714 22.9781 12.3964C22.9691 15.3529 20.7292 17.7236 17.8646 17.7236Z" stroke="#85989E" stroke-width="1.32392px" stroke-linecap="round" fill="none"></path></svg>