<svg xmlns:xlink="http://www.w3.org/1999/xlink" width="24" height="24" viewBox="0 0 24 24" fill="none" xmlns="http://www.w3.org/2000/svg" role="img" aria-label="LinkedIn" focusable="false"><g clip-path="url(#clip0_212_768)" fill="none"><g clip-path="url(#clip1_212_768)" fill="none"><path d="M8 11V16" stroke="#85989E" stroke-width="1.5px" stroke-linecap="round" stroke-linejoin="round" fill="none"></path><path d="M8 8V8.01" stroke="#85989E" stroke-width="1.5px" stroke-linecap="round" stroke-linejoin="round" fill="none"></path><path d="M12 16V11" stroke="#85989E" stroke-width="1.5px" stroke-linecap="round" stroke-linejoin="round" fill="none"></path><path d="M16 16V13C16 12.4696 15.7893 11.9609 15.4142 11.5858C15.0391 11.2107 14.5304 11 14 11C13.4696 11 12.9609 11.2107 12.5858 11.5858C12.2107 11.9609 12 12.4696 12 13" stroke="#85989E" stroke-width="1.5px" stroke-linecap="round" stroke-linejoin="round" fill="none"></path><path d="M3 7C3 5.93913 3.42143 4.92172 4.17157 4.17157C4.92172 3.42143 5.93913 3 7 3H17C18.0609 3 19.0783 3.42143 19.8284 4.17157C20.5786 4.92172 21 5.93913 21 7V17C21 18.0609 20.5786 19.0783 19.8284 19.8284C19.0783 20.5786 18.0609 21 17 21H7C5.93913 21 4.92172 20.5786 4.17157 19.8284C3.42143 19.0783 3 18.0609 3 17V7Z" stroke="#85989E" stroke-width="1.5px" stroke-linecap="round" stroke-linejoin="round" fill="none"></path></g></g><defs><clipPath id="clip0_212_768"><rect width="24" height="24" fill="white"></rect></clipPath><clipPath id="clip1_212_768"><rect width="24" height="24" fill="white"></rect></clipPath></defs></svg>