<svg xmlns:xlink="http://www.w3.org/1999/xlink" width="24" height="24" viewBox="0 0 24 24" fill="none" xmlns="http://www.w3.org/2000/svg" role="img" aria-label="Google" focusable="false"><g clip-path="url(#clip0_212_896)" fill="none"><path d="M20.945 11C21.1767 13.0717 20.682 15.1595 19.5455 16.907C18.4091 18.6545 16.7012 19.9533 14.7136 20.5817C12.726 21.21 10.5819 21.1289 8.6474 20.3522C6.71294 19.5755 5.10807 18.1514 4.10684 16.323C3.10561 14.4947 2.77011 12.3754 3.15763 10.3272C3.54514 8.27897 4.63164 6.42877 6.2316 5.09253C7.83157 3.75629 9.84576 3.01688 11.9303 3.00055C14.0148 2.98423 16.0403 3.692 17.661 5.00301L15.006 7.39501C14.0544 6.77427 12.934 6.46343 11.7986 6.50522C10.6633 6.547 9.56873 6.93937 8.66538 7.62839C7.76204 8.31741 7.09424 9.26927 6.75374 10.3532C6.41325 11.4371 6.41678 12.5998 6.76385 13.6816C7.11092 14.7635 7.78448 15.7113 8.692 16.3948C9.59951 17.0783 10.6964 17.464 11.832 17.4989C12.9676 17.5338 14.0861 17.2162 15.0339 16.5896C15.9817 15.9631 16.7122 15.0585 17.125 14H13V11H20.945Z" stroke="#85989E" stroke-width="1.5px" stroke-linecap="round" stroke-linejoin="round" fill="none"></path></g><defs><clipPath id="clip0_212_896"><rect width="24" height="24" fill="white"></rect></clipPath></defs></svg>