<svg xmlns:xlink="http://www.w3.org/1999/xlink" width="14" height="15" viewBox="0 0 16 17" fill="none" xmlns="http://www.w3.org/2000/svg" role="img" aria-label="Icon" focusable="false"><path d="M6.62467 10.8333C6.56515 10.6026 6.44489 10.3921 6.27641 10.2236C6.10793 10.0551 5.89738 9.93485 5.66667 9.87533L1.57667 8.82066C1.50689 8.80085 1.44547 8.75883 1.40174 8.70096C1.35801 8.64309 1.33435 8.57253 1.33435 8.49999C1.33435 8.42746 1.35801 8.3569 1.40174 8.29903C1.44547 8.24116 1.50689 8.19913 1.57667 8.17933L5.66667 7.12399C5.8973 7.06453 6.1078 6.94438 6.27627 6.77602C6.44474 6.60766 6.56504 6.39725 6.62467 6.16666L7.67933 2.07666C7.69894 2.00661 7.74092 1.94489 7.79888 1.90092C7.85684 1.85696 7.92759 1.83316 8.00033 1.83316C8.07308 1.83316 8.14383 1.85696 8.20179 1.90092C8.25974 1.94489 8.30173 2.00661 8.32133 2.07666L9.37533 6.16666C9.43485 6.39737 9.55511 6.60792 9.72359 6.77641C9.89207 6.94489 10.1026 7.06514 10.3333 7.12466L14.4233 8.17866C14.4937 8.19806 14.5557 8.24 14.5999 8.29804C14.6441 8.35609 14.668 8.42703 14.668 8.49999C14.668 8.57295 14.6441 8.6439 14.5999 8.70194C14.5557 8.75999 14.4937 8.80193 14.4233 8.82133L10.3333 9.87533C10.1026 9.93485 9.89207 10.0551 9.72359 10.2236C9.55511 10.3921 9.43485 10.6026 9.37533 10.8333L8.32067 14.9233C8.30106 14.9934 8.25908 15.0551 8.20112 15.0991C8.14316 15.143 8.07241 15.1668 7.99967 15.1668C7.92692 15.1668 7.85617 15.143 7.79821 15.0991C7.74026 15.0551 7.69827 14.9934 7.67867 14.9233L6.62467 10.8333Z" stroke="#6D838B" stroke-width="1.5px" stroke-linecap="round" stroke-linejoin="round" fill="none"></path><path d="M13.3333 2.5V5.16667" stroke="#6D838B" stroke-width="1.5px" stroke-linecap="round" stroke-linejoin="round" fill="none"></path><path d="M14.6667 3.83334H12" stroke="#6D838B" stroke-width="1.5px" stroke-linecap="round" stroke-linejoin="round" fill="none"></path><path d="M2.66666 11.8333V13.1667" stroke="#6D838B" stroke-width="1.5px" stroke-linecap="round" stroke-linejoin="round" fill="none"></path><path d="M3.33333 12.5H2" stroke="#6D838B" stroke-width="1.5px" stroke-linecap="round" stroke-linejoin="round" fill="none"></path></svg>