<svg xmlns:xlink="http://www.w3.org/1999/xlink" width="24" height="24" viewBox="0 0 24 24" fill="none" xmlns="http://www.w3.org/2000/svg" aria-hidden="true" role="img" aria-label="IBM Watson" focusable="false"><path fill-rule="evenodd" clip-rule="evenodd" d="M11.9813 2H12.0841C12.2798 2.02432 12.4445 2.20011 12.4445 2.40022C12.4456 3.25153 12.4445 4.10283 12.4445 4.95414C12.4467 5.16973 12.2576 5.3621 12.0421 5.3621C11.8243 5.37537 11.6208 5.18742 11.6186 4.96962C11.6175 4.10836 11.6175 3.24711 11.6186 2.38585C11.6253 2.19127 11.7889 2.0188 11.9813 2Z" fill="#85989E"></path><path fill-rule="evenodd" clip-rule="evenodd" d="M6.43011 3.25482C6.61032 3.21391 6.81154 3.30899 6.89003 3.47704C7.25598 4.241 7.62082 5.00497 7.98676 5.76893C8.04867 5.89607 8.03872 6.05528 7.96133 6.17358C7.87399 6.31177 7.70042 6.38585 7.54011 6.356C7.41518 6.33389 7.30241 6.25207 7.24603 6.1382C6.87898 5.37202 6.51303 4.60585 6.14598 3.83967C6.08297 3.71364 6.09292 3.55664 6.1692 3.43834C6.22558 3.34326 6.32398 3.27914 6.43011 3.25482Z" fill="#85989E"></path><path fill-rule="evenodd" clip-rule="evenodd" d="M17.255 3.256C17.4485 3.20625 17.6641 3.32123 17.7337 3.50697C17.7746 3.612 17.7713 3.73362 17.7227 3.83644C17.3711 4.57055 17.0195 5.30466 16.668 6.03877C16.6282 6.12169 16.5906 6.21014 16.5165 6.26763C16.3661 6.39588 16.1229 6.39035 15.9781 6.25657C15.8432 6.13938 15.8012 5.93153 15.8797 5.77122C16.2467 5.00394 16.6138 4.23666 16.9797 3.46938C17.0339 3.36214 17.1378 3.28253 17.255 3.256Z" fill="#85989E"></path><path fill-rule="evenodd" clip-rule="evenodd" d="M11.4915 6.54749C12.2377 6.49774 12.9906 6.5508 13.7203 6.71443C15.2969 7.06269 16.7518 7.92837 17.8209 9.13789C18.0564 9.39549 18.2642 9.67852 18.4621 9.96708C19.2625 11.1567 19.7192 12.573 19.7623 14.0058C19.812 15.4022 19.4726 16.8107 18.7883 18.029C18.4853 18.5708 18.1161 19.076 17.6926 19.5304C17.5091 19.7394 17.3002 19.924 17.0923 20.1098C16.0674 20.9998 14.8049 21.6145 13.4705 21.8654C11.9779 22.1485 10.4025 21.9826 9.00616 21.3834C8.14271 21.0164 7.3478 20.489 6.67119 19.8378C6.39812 19.5713 6.1361 19.2927 5.90724 18.9876C5.29144 18.1916 4.83152 17.2739 4.56618 16.3032C4.21572 15.0218 4.20245 13.6509 4.5297 12.364C4.84811 11.097 5.50039 9.91843 6.3948 8.96763C6.55843 8.78078 6.74637 8.61605 6.931 8.4491C7.93707 7.56463 9.17531 6.9455 10.4898 6.68237C10.8215 6.61603 11.1565 6.57071 11.4915 6.54749ZM9.32235 7.70725C9.18305 7.76806 9.04043 7.82334 8.90887 7.89852C9.93484 7.87751 10.9498 8.13733 11.8873 8.53866C12.1482 8.06546 12.4423 7.60333 12.8171 7.21084C11.6363 7.08149 10.4202 7.24843 9.32235 7.70725ZM13.7303 7.37447C13.7303 7.38442 13.7325 7.40322 13.7336 7.41206C13.6396 7.39658 13.5445 7.42864 13.4649 7.4784C13.3124 7.57348 13.1952 7.71057 13.0857 7.85098C12.8845 8.11522 12.7187 8.40377 12.565 8.69786C12.5429 8.74098 12.5164 8.78299 12.502 8.82832C12.6081 8.87918 12.7098 8.93667 12.8126 8.99195C13.2947 9.26061 13.7557 9.56464 14.1946 9.89964C14.3206 9.99472 14.4423 10.0942 14.5661 10.1926C14.9818 10.5409 15.3776 10.9135 15.7468 11.3104C16.0885 11.1899 16.4953 11.2883 16.7407 11.5558C16.8867 11.7106 16.9762 11.9162 16.9928 12.1285C16.9994 12.2512 16.9895 12.3773 16.9464 12.4945L16.9497 12.4978C16.9187 12.5641 16.8944 12.636 16.8513 12.6979C17.0249 12.9522 17.1863 13.2142 17.3378 13.4818C17.3908 13.5691 17.4306 13.6653 17.4892 13.7493C17.6506 13.3811 17.7888 13.003 17.8894 12.615C17.9259 12.4757 17.958 12.3353 17.9834 12.1937C18.0873 11.6244 18.115 11.024 17.9381 10.4668C17.8861 10.3131 17.8264 10.1572 17.7225 10.0312C17.592 9.86205 17.4627 9.68847 17.3101 9.53811C17.3013 9.51932 17.2891 9.50273 17.2747 9.48836C16.8281 9.00079 16.3162 8.56851 15.7501 8.22577C15.309 7.94717 14.8325 7.72494 14.3405 7.55358C14.1404 7.48613 13.937 7.42533 13.7303 7.37447ZM7.95587 8.68459C7.64078 8.78741 7.34449 8.94994 7.09684 9.17216C6.99955 9.27056 6.89784 9.36453 6.8116 9.47288C6.75522 9.51821 6.7121 9.57902 6.66235 9.63209C6.26434 10.0931 5.92272 10.6061 5.65738 11.1556C5.13666 12.2081 4.89122 13.3955 4.9454 14.5685C4.95313 14.8007 4.97193 15.0351 5.01062 15.2651C5.00289 15.3491 5.0659 15.4143 5.12229 15.4663C5.26159 15.5791 5.43516 15.6365 5.60432 15.6874C5.75689 15.7305 5.91277 15.7615 6.06866 15.7869C6.49983 15.8566 6.93764 15.8809 7.37434 15.8942L7.38208 15.8864L7.38318 15.8754C7.3865 15.8787 7.39534 15.8853 7.39866 15.8897C7.50811 15.8986 7.61867 15.8975 7.72923 15.8975C8.36714 15.8953 9.00506 15.8665 9.63965 15.8079C9.76458 15.0981 9.91605 14.3928 10.0741 13.6896C9.88951 13.5702 9.74026 13.3955 9.64739 13.1965C9.61422 13.1202 9.58769 13.0417 9.5689 12.961C9.48487 12.5851 9.59764 12.1716 9.8674 11.8974C10.0708 11.6818 10.3594 11.5481 10.6557 11.5359C10.8735 10.8504 11.1189 10.1738 11.4097 9.516C11.4705 9.38001 11.5324 9.24402 11.5976 9.10914C11.0559 8.87033 10.4865 8.69012 9.90167 8.59062C9.25823 8.48338 8.58052 8.47674 7.95587 8.68459ZM12.2234 9.40876C11.8895 10.1606 11.6043 10.9323 11.3455 11.7139C11.6253 11.8941 11.8265 12.1926 11.8773 12.5232C11.8884 12.5984 11.8928 12.6747 11.8917 12.7521C11.8795 13.0616 11.7413 13.3646 11.5114 13.5735C11.298 13.7681 11.0106 13.8842 10.7209 13.8809C10.5717 14.4989 10.4357 15.1202 10.3229 15.746C10.5683 15.7195 10.8138 15.6896 11.0592 15.6587C11.0924 15.4221 11.2284 15.2021 11.4263 15.0672C11.6297 14.9257 11.8972 14.8803 12.1371 14.9456C12.3804 15.0086 12.5893 15.1855 12.6943 15.4132C12.942 15.3701 13.1896 15.327 13.4362 15.2772C13.4373 15.2717 13.4406 15.2606 13.4417 15.2562L13.4362 15.2783C13.5357 15.2584 13.6363 15.2374 13.7369 15.2175C14.8557 14.9887 15.9668 14.709 17.0437 14.3253C16.8325 13.9019 16.5926 13.4939 16.3262 13.1025C16.0708 13.1777 15.7844 13.1412 15.5589 12.9986C15.3588 12.8737 15.2106 12.6725 15.1498 12.4458C15.1266 12.3574 15.1167 12.2656 15.12 12.1738C15.1211 12.0224 15.1664 11.8731 15.2372 11.7404C15.005 11.4917 14.7629 11.2518 14.5108 11.0229C14.398 10.9212 14.2842 10.8206 14.167 10.7233C13.5666 10.2192 12.9188 9.77028 12.2234 9.40876ZM18.6291 12.3076C18.6036 12.4668 18.5694 12.6249 18.534 12.783L18.5318 12.7819C18.4433 13.1468 18.3206 13.5028 18.1769 13.8499C18.3261 13.7825 18.4687 13.6996 18.6069 13.6133C18.7396 13.526 18.8745 13.4353 18.974 13.3093C19.0171 13.2551 19.0536 13.1843 19.0326 13.1136C18.9917 12.8648 18.9375 12.6183 18.8701 12.3751C18.8181 12.1871 18.7595 12.0003 18.6899 11.8178C18.6711 11.9804 18.6578 12.1451 18.6291 12.3076ZM17.9049 14.6703C18.2388 15.5083 18.4488 16.4071 18.4367 17.3126C18.9287 16.2888 19.1653 15.1435 19.121 14.0091C18.7507 14.2877 18.3283 14.4856 17.9049 14.6703ZM16.764 15.0838C15.7103 15.4243 14.6302 15.6808 13.5456 15.903C13.4395 15.924 13.3334 15.945 13.2261 15.966C13.0603 15.997 12.8945 16.029 12.7286 16.0556C12.6634 16.2402 12.5363 16.4038 12.3693 16.5078C12.1626 16.6393 11.8994 16.6725 11.6651 16.6028C11.4771 16.5487 11.3146 16.4248 11.2007 16.2667C10.8713 16.3065 10.5418 16.3408 10.2112 16.3707C10.1128 16.9876 10.0277 17.6056 9.97464 18.2281C9.9658 18.3353 9.95695 18.4414 9.95142 18.5476C9.92821 18.9047 9.91162 19.2629 9.92268 19.6211C10.324 19.557 10.722 19.463 11.1112 19.3436C11.2538 19.2994 11.3964 19.2529 11.5368 19.2032C11.696 19.1446 11.8541 19.0882 12.0089 19.0197C12.1825 18.9511 12.3527 18.8737 12.5219 18.793C13.0669 18.5332 13.5888 18.2247 14.0829 17.8776C14.0597 17.7958 14.0343 17.7151 14.0277 17.6299C13.9823 17.2529 14.1692 16.8615 14.4909 16.6603C14.7971 16.4591 15.2139 16.4481 15.5335 16.6272C15.9901 16.1529 16.4046 15.6365 16.764 15.0838ZM17.4306 15.254C17.0116 15.9174 16.5075 16.5243 15.958 17.0827C16.0851 17.3469 16.0896 17.6664 15.9691 17.934C15.8718 18.1507 15.6971 18.3331 15.4815 18.4348C15.1609 18.594 14.7573 18.5642 14.4633 18.3596C13.8088 18.8328 13.1089 19.2441 12.3704 19.5725C12.1018 19.6919 11.8276 19.7991 11.5501 19.8964C11.0371 20.0722 10.5108 20.2082 9.97464 20.2856C10.0023 20.468 10.041 20.6504 10.1139 20.8207C10.1681 20.9423 10.2444 21.0628 10.3627 21.1313C10.3627 21.1391 10.3627 21.1546 10.3616 21.1623C10.586 21.2176 10.8138 21.2607 11.0426 21.2916C12.1615 21.4497 13.3179 21.337 14.3826 20.9589C14.6567 20.8594 14.9309 20.7521 15.1874 20.6128C15.2924 20.5719 15.3886 20.51 15.4881 20.458C16.0089 20.165 16.4964 19.809 16.9254 19.3922C17.079 19.2496 17.2316 19.1004 17.3444 18.9235C17.5511 18.6172 17.6794 18.2634 17.7468 17.8997C17.8861 17.128 17.7678 16.3331 17.5456 15.589C17.5091 15.4773 17.4815 15.3602 17.4306 15.254ZM5.20078 16.1893C5.26048 16.3917 5.3235 16.594 5.4031 16.7897C5.58221 17.2695 5.82211 17.7283 6.10293 18.1573C6.20354 18.3032 6.29972 18.4547 6.41691 18.5885L6.41249 18.5807C6.52305 18.7444 6.65682 18.8892 6.78728 19.0373C6.85582 19.107 6.91442 19.1866 6.99623 19.2397C7.29142 19.4453 7.63857 19.5636 7.98793 19.631C8.41136 19.7129 8.84364 19.7228 9.2715 19.6952C9.24054 19.1368 9.27481 18.5796 9.32125 18.0235C9.3323 17.9207 9.34668 17.8179 9.34999 17.714L9.35663 17.7206C9.39753 17.2872 9.46387 16.856 9.53131 16.4259C9.08134 16.4569 8.63027 16.4801 8.17919 16.4912C8.07195 16.489 7.96361 16.4978 7.85637 16.4945C7.2284 16.4978 6.59823 16.4746 5.97579 16.3773C5.80443 16.3485 5.63527 16.3154 5.46723 16.2701C5.37767 16.2479 5.28923 16.2214 5.20078 16.1893ZM8.34061 20.3187C8.70102 20.5454 9.08797 20.7311 9.48377 20.887C9.41854 20.7123 9.37653 20.5299 9.34225 20.3475C9.00727 20.3674 8.67117 20.3585 8.34061 20.3187Z" fill="#85989E"></path><path fill-rule="evenodd" clip-rule="evenodd" d="M2.2377 6.93196C2.36263 6.87337 2.5152 6.88332 2.63128 6.95739C3.30126 7.37309 3.97013 7.7899 4.6401 8.2056C4.73076 8.26531 4.838 8.31174 4.90102 8.40461C5.00163 8.5417 5.00494 8.74292 4.90655 8.88112C4.79267 9.0547 4.5406 9.1144 4.36261 9.00605C3.66278 8.57266 2.96406 8.13816 2.26534 7.70477C2.20121 7.66497 2.13156 7.62627 2.08623 7.56436C2.03869 7.50577 2.01106 7.4339 2 7.35983V7.25701C2.01769 7.1177 2.10945 6.98945 2.2377 6.93196Z" fill="#85989E"></path><path fill-rule="evenodd" clip-rule="evenodd" d="M21.4686 6.91203C21.6035 6.87002 21.756 6.90429 21.8611 6.99716C22.0059 7.11988 22.0424 7.34542 21.9495 7.50905C21.8964 7.6174 21.7859 7.67378 21.6875 7.73348C21.0087 8.15471 20.3287 8.57705 19.6488 8.99828C19.5349 9.07125 19.3835 9.07899 19.2608 9.02371C19.1093 8.95626 19.0098 8.79043 19.0209 8.62569C19.0275 8.4886 19.106 8.35593 19.2265 8.28738C19.9186 7.85731 20.6118 7.42723 21.3039 6.99826C21.3558 6.9651 21.4078 6.92861 21.4686 6.91203Z" fill="#85989E"></path><path fill-rule="evenodd" clip-rule="evenodd" d="M13.73 7.37427C13.9367 7.42402 14.1402 7.48483 14.3414 7.55448C14.4121 7.7756 14.4586 8.00335 14.4939 8.23331C14.9118 8.18798 15.3331 8.18135 15.751 8.22668C16.317 8.57052 16.8278 9.0017 17.2756 9.48926C17.291 9.50363 17.3021 9.52022 17.3109 9.53901C16.9782 9.22834 16.5625 9.01496 16.128 8.88782C15.6172 8.73635 15.0788 8.68992 14.5481 8.70872C14.589 9.20291 14.5857 9.69822 14.5669 10.1924C14.4442 10.094 14.3215 9.99452 14.1954 9.89944C14.2076 9.51137 14.1988 9.12331 14.1733 8.73635C13.7134 8.77616 13.2579 8.86792 12.8135 8.99175C12.7107 8.93647 12.6078 8.87898 12.5028 8.82812C12.5172 8.78168 12.5426 8.74078 12.5658 8.69766C13.0711 8.51303 13.594 8.3704 14.1247 8.28417C14.0915 8.07632 14.0539 7.86515 13.971 7.67057C13.9224 7.56332 13.8549 7.44392 13.7333 7.41186C13.7322 7.40301 13.7311 7.38422 13.73 7.37427Z" fill="#85989E"></path><path fill-rule="evenodd" clip-rule="evenodd" d="M8.94601 10.8492C9.75418 10.1626 10.642 9.56784 11.5983 9.10791C11.533 9.24279 11.4711 9.37878 11.4103 9.51477C10.5767 9.90283 9.7973 10.407 9.09747 11.0051C9.19587 11.1632 9.21024 11.3711 9.12843 11.5391C9.03335 11.7436 8.80229 11.8741 8.57785 11.8476C8.48056 11.8409 8.39322 11.7967 8.31031 11.7503C7.9123 12.1704 7.54967 12.6237 7.23016 13.1057C7.10855 13.2937 6.98694 13.4827 6.88301 13.6795C7.76415 13.3877 8.66409 13.1599 9.56955 12.9598C9.58724 13.0405 9.61488 13.119 9.64805 13.1953C8.93274 13.37 8.22518 13.5756 7.53088 13.8221C7.26886 13.9172 7.00684 14.0145 6.75145 14.1251C7.01347 14.7486 7.34404 15.3423 7.72988 15.8962C7.61932 15.8973 7.50877 15.8984 7.39932 15.8885C7.396 15.8852 7.38715 15.8785 7.38384 15.8741C7.05769 15.4131 6.76361 14.9299 6.50933 14.4258C6.32028 14.8636 6.1666 15.318 6.06931 15.7857C5.91343 15.7591 5.75754 15.7293 5.60497 15.6862C5.72769 15.2517 5.89463 14.8304 6.09253 14.4258C5.92338 14.5087 5.75865 14.6005 5.59944 14.6989C5.43029 14.8072 5.26114 14.92 5.12405 15.0693C5.07319 15.1245 5.03007 15.1898 5.01017 15.2638C4.97037 15.0339 4.95269 14.8006 4.94495 14.5673C5.34959 14.2821 5.80508 14.0798 6.26389 13.9018C5.90016 13.0339 5.64367 12.103 5.65693 11.1544C5.92227 10.6049 6.26389 10.0919 6.6619 9.63085C6.71165 9.57779 6.75366 9.51698 6.81115 9.47165C6.73818 9.57226 6.66632 9.67397 6.60662 9.78232C6.31475 10.2975 6.20198 10.8956 6.19314 11.4827C6.1854 12.2002 6.32581 12.9145 6.55466 13.5944C7.00905 12.8636 7.55299 12.1892 8.15995 11.58C8.10135 11.4728 8.0715 11.3478 8.0903 11.2262C8.11241 11.0427 8.23623 10.8769 8.40428 10.8006C8.57564 10.721 8.78902 10.7387 8.94601 10.8492Z" fill="#85989E"></path><path fill-rule="evenodd" clip-rule="evenodd" d="M14.1659 10.7231C14.2831 10.8204 14.3969 10.921 14.5097 11.0228C14.471 11.4274 14.4224 11.8298 14.3627 12.2312C14.6147 12.2091 14.8657 12.1914 15.1189 12.1748C15.1155 12.2665 15.1255 12.3572 15.1487 12.4468C14.8756 12.4567 14.6026 12.4633 14.3306 12.4844C14.3052 12.5441 14.3063 12.6148 14.2908 12.68C14.2543 12.8978 14.2145 13.1156 14.1725 13.3334C14.2687 13.3854 14.3505 13.465 14.4013 13.5623C14.5008 13.7458 14.4832 13.9857 14.3549 14.1516C14.2609 14.2809 14.1073 14.3583 13.9492 14.3705C13.8817 14.6535 13.8121 14.9365 13.7358 15.2185C13.6352 15.2384 13.5346 15.2594 13.4351 15.2793L13.4406 15.2572C13.5268 14.9454 13.6064 14.6314 13.675 14.3152C13.5147 14.2367 13.3964 14.0764 13.3732 13.8984C13.34 13.6883 13.4439 13.4672 13.6241 13.3567C13.6993 13.308 13.7866 13.2837 13.8751 13.2726C13.9171 13.0184 13.9558 12.763 13.9901 12.5076C13.7889 12.523 13.5876 12.5407 13.3864 12.5617C13.3643 12.6568 13.3157 12.7486 13.2383 12.8105C13.1178 12.9144 12.9387 12.9399 12.7927 12.8768C12.691 12.8359 12.6114 12.753 12.565 12.6557C12.3395 12.6856 12.115 12.7176 11.8906 12.753C11.8917 12.6767 11.8873 12.5993 11.8762 12.5242C12.094 12.491 12.3129 12.4633 12.5307 12.4313C12.5506 12.2102 12.7618 12.0288 12.984 12.0465C13.1543 12.0521 13.309 12.1715 13.3698 12.3307C13.5876 12.3075 13.8043 12.2842 14.0221 12.2632C14.0863 11.7502 14.1316 11.2372 14.1659 10.7231Z" fill="#85989E"></path><path fill-rule="evenodd" clip-rule="evenodd" d="M16.9932 12.1301C17.3238 12.1334 17.6555 12.1567 17.9849 12.1943C17.9584 12.3358 17.9263 12.4762 17.8909 12.6155C17.6643 12.5735 17.4354 12.5414 17.2055 12.516C17.1204 12.5105 17.0363 12.4917 16.9501 12.4983L16.9468 12.495C16.9899 12.3789 16.9998 12.2528 16.9932 12.1301Z" fill="#85989E"></path><path fill-rule="evenodd" clip-rule="evenodd" d="M18.6285 12.3074C18.7103 12.3273 18.791 12.3483 18.8695 12.3748C18.937 12.618 18.9912 12.8646 19.0321 13.1133C18.9978 13.0293 18.9248 12.9729 18.8507 12.9265C18.7512 12.8657 18.6429 12.8215 18.5334 12.7828C18.5688 12.6247 18.6031 12.4666 18.6285 12.3074Z" fill="#85989E"></path><path fill-rule="evenodd" clip-rule="evenodd" d="M13.2273 15.9649C13.3334 15.9439 13.4395 15.9229 13.5468 15.9019C13.2604 16.8836 12.9265 17.8532 12.5219 18.7941C12.3527 18.8748 12.1836 18.9522 12.0089 19.0207C12.4876 18.0334 12.8912 17.0097 13.2273 15.9649Z" fill="#85989E"></path><path fill-rule="evenodd" clip-rule="evenodd" d="M5.46745 16.272C5.6355 16.3173 5.80576 16.3505 5.97601 16.3792C5.91963 16.9386 5.95501 17.5158 6.14738 18.0476C6.21482 18.2355 6.30547 18.4135 6.41161 18.5816L6.41603 18.5893C6.29884 18.4544 6.20266 18.304 6.10205 18.1581C5.82013 17.7291 5.58132 17.2703 5.40222 16.7905C5.41438 16.6158 5.43871 16.4433 5.46745 16.272Z" fill="#85989E"></path><path fill-rule="evenodd" clip-rule="evenodd" d="M7.85608 16.4964C7.96332 16.4997 8.07167 16.4908 8.17891 16.493C8.24745 16.5771 8.31931 16.66 8.38896 16.744C8.48736 16.6976 8.59571 16.6655 8.70516 16.6777C8.91301 16.6898 9.10316 16.8336 9.17613 17.0292C9.23694 17.1873 9.21704 17.3709 9.1308 17.5146C9.20377 17.582 9.27674 17.6484 9.35081 17.7158C9.3475 17.8197 9.33312 17.9226 9.32207 18.0254C9.19935 17.9148 9.07774 17.8043 8.95833 17.6904C8.78697 17.7987 8.55591 17.8032 8.38344 17.6981C8.20544 17.5953 8.09709 17.3864 8.11589 17.1829C8.12142 17.0856 8.1579 16.995 8.20876 16.9132C8.08936 16.7761 7.97106 16.6368 7.85608 16.4964Z" fill="#85989E"></path><path fill-rule="evenodd" clip-rule="evenodd" d="M9.95093 18.5488C9.95756 18.4426 9.96641 18.3365 9.97415 18.2292C10.465 18.5996 10.9868 18.9291 11.5363 19.2044C11.3959 19.2541 11.2533 19.3017 11.1107 19.3448C10.7071 19.1038 10.3224 18.8362 9.95093 18.5488Z" fill="#85989E"></path><path fill-rule="evenodd" clip-rule="evenodd" d="M15.3816 20.0201C15.9377 19.9482 16.4927 19.7569 16.9261 19.3921C16.4982 19.8089 16.0107 20.1649 15.4888 20.4579C15.3893 20.5098 15.2932 20.5718 15.1881 20.6127C14.0881 20.6259 13.0113 20.3031 12.024 19.8376C11.7498 20.354 11.4469 20.8636 11.0422 21.2904C10.8134 21.2594 10.5856 21.2163 10.3612 21.161C10.3623 21.1533 10.3623 21.1378 10.3623 21.1301C10.4165 21.1555 10.4784 21.1566 10.5348 21.1345C10.6575 21.0881 10.7559 20.9974 10.8466 20.9045C11.1274 20.6027 11.3441 20.2489 11.5497 19.894C11.8272 19.7978 12.1003 19.6906 12.37 19.5701C12.6398 19.6718 12.9129 19.7625 13.1915 19.8343C13.9035 20.0223 14.6486 20.114 15.3816 20.0201Z" fill="#85989E"></path></svg>