<svg xmlns:xlink="http://www.w3.org/1999/xlink" aria-hidden="true" width="16" height="16" xmlns="http://www.w3.org/2000/svg" fill="currentColor" viewBox="0 0 16 16"><path fill-rule="evenodd" clip-rule="evenodd" d="M8 3.25C5.37665 3.25 3.25 5.37665 3.25 8C3.25 10.6234 5.37665 12.75 8 12.75C10.6234 12.75 12.75 10.6234 12.75 8C12.75 5.37665 10.6234 3.25 8 3.25ZM2 8C2 4.68629 4.68629 2 8 2C11.3137 2 14 4.68629 14 8C14 11.3137 11.3137 14 8 14C4.68629 14 2 11.3137 2 8ZM7.375 5.3125C7.375 4.96732 7.65482 4.6875 8 4.6875H8.00489C8.35006 4.6875 8.62989 4.96732 8.62989 5.3125C8.62989 5.65768 8.35006 5.9375 8.00489 5.9375H8C7.65482 5.9375 7.375 5.65768 7.375 5.3125ZM8 6.81191C8.34518 6.81191 8.625 7.09173 8.625 7.43691V10.8341C8.625 11.1793 8.34518 11.4591 8 11.4591C7.65482 11.4591 7.375 11.1793 7.375 10.8341V7.43691C7.375 7.09173 7.65482 6.81191 8 6.81191Z" fill="#6D838B"></path></svg>