<svg xmlns:xlink="http://www.w3.org/1999/xlink" xmlns="http://www.w3.org/2000/svg" width="160" height="160" viewBox="0 0 160 160" fill="none">
    <rect width="160" height="160" fill="white"/>
    <path d="M21.332 138.666H138.665" stroke="#1F1F1F" stroke-width="1.06667" stroke-linecap="round"/>
    <g clip-path="url(#clip0_5152_21469)">
        <mask id="mask0_5152_21469" style="mask-type:luminance" maskUnits="userSpaceOnUse" x="21" y="21" width="118" height="118">
            <path d="M138.667 21.334H21.8672V138.134H138.667V21.334Z" fill="white"/>
        </mask>
        <g mask="url(#mask0_5152_21469)">
            <mask id="mask1_5152_21469" style="mask-type:luminance" maskUnits="userSpaceOnUse" x="27" y="24" width="120" height="115">
                <path d="M146.607 24.1367H27.0039V138.134H146.607V24.1367Z" fill="white"/>
            </mask>
            <g mask="url(#mask1_5152_21469)">
                <g opacity="0.2" filter="url(#filter0_f_5152_21469)">
                    <path fill-rule="evenodd" clip-rule="evenodd" d="M70.9224 64.7731C78.3233 64.8168 86.2312 65.3761 91.4689 70.6202C96.7095 75.8669 97.7612 83.8121 97.3426 91.2266C96.9501 98.1813 94.5132 105.06 89.2661 109.623C84.317 113.928 77.4469 113.619 70.9224 114.203C63.3402 114.884 55.0961 117.778 48.9751 113.238C42.3616 108.334 39.7139 99.4726 39.9367 91.2266C40.1541 83.1818 44.0237 75.5927 50.1335 70.3764C55.8137 65.5272 63.4636 64.7294 70.9224 64.7731Z" fill="#4C97C7"/>
                </g>
                <g opacity="0.2" filter="url(#filter1_f_5152_21469)">
                    <path fill-rule="evenodd" clip-rule="evenodd" d="M105.188 34.5075C112.589 34.5512 120.497 35.1104 125.734 40.3544C130.975 45.6013 132.027 53.5463 131.608 60.9607C131.215 67.9155 128.779 74.7945 123.532 79.3581C118.583 83.662 111.712 83.3527 105.188 83.9381C97.6058 84.6179 89.3616 87.5117 83.2404 82.9724C76.6271 78.0682 73.9795 69.2068 74.2024 60.9607C74.4197 52.9165 78.2893 45.3269 84.399 40.1107C90.0792 35.2615 97.7292 34.4636 105.188 34.5075Z" fill="#23D85A"/>
                </g>
                <path d="M72.0911 92.8906H71.2179C71.0703 92.8906 70.9512 93.0098 70.9512 93.1569C70.9512 93.3046 71.0703 93.4237 71.2179 93.4237H72.0911C72.2383 93.4237 72.3574 93.3046 72.3574 93.1569C72.3574 93.0098 72.2383 92.8906 72.0911 92.8906Z" fill="#0B2F3D"/>
                <path d="M72.0911 95.959H71.2179C71.0703 95.959 70.9512 96.0781 70.9512 96.2253C70.9512 96.3725 71.0703 96.4921 71.2179 96.4921H72.0911C72.2383 96.4921 72.3574 96.3725 72.3574 96.2253C72.3574 96.0781 72.2383 95.959 72.0911 95.959Z" fill="#0B2F3D"/>
                <path d="M72.0911 97.498H71.2179C71.0703 97.498 70.9512 97.6172 70.9512 97.7644C70.9512 97.9115 71.0703 98.0311 71.2179 98.0311H72.0911C72.2383 98.0311 72.3574 97.9115 72.3574 97.7644C72.3574 97.6172 72.2383 97.498 72.0911 97.498Z" fill="#0B2F3D"/>
                <path d="M72.0379 94.4238H71.1647C71.0176 94.4238 70.8984 94.5434 70.8984 94.6906C70.8984 94.8378 71.0176 94.9574 71.1647 94.9574H72.0379C72.1851 94.9574 72.3047 94.8378 72.3047 94.6906C72.3047 94.5434 72.1851 94.4238 72.0379 94.4238Z" fill="#0B2F3D"/>
                <path d="M72.0911 99.0293H71.2179C71.0703 99.0293 70.9512 99.1484 70.9512 99.2956C70.9512 99.4432 71.0703 99.5624 71.2179 99.5624H72.0911C72.2383 99.5624 72.3574 99.4432 72.3574 99.2956C72.3574 99.1484 72.2383 99.0293 72.0911 99.0293Z" fill="#0B2F3D"/>
                <path d="M81.5821 107.338C82.9164 107.365 84.2288 106.996 85.3538 106.278C86.4779 105.559 87.3642 104.523 87.8996 103.3C88.435 102.077 88.5957 100.723 88.3612 99.4096C88.1271 98.0963 87.5076 96.8811 86.5825 95.9192C85.6575 94.9572 84.468 94.2915 83.164 94.006C81.8601 93.7201 80.501 93.828 79.2587 94.3153C78.016 94.803 76.9461 95.6477 76.1841 96.7433C75.4221 97.8394 75.0021 99.1363 74.9778 100.471C74.9441 102.257 75.6206 103.983 76.8592 105.271C78.0973 106.558 79.796 107.302 81.5821 107.338ZM81.818 95.8309C82.7627 95.85 83.6803 96.1486 84.4554 96.6896C85.2305 97.2301 85.8271 97.9889 86.1709 98.8686C86.5148 99.7488 86.59 100.711 86.3868 101.634C86.184 102.557 85.7117 103.399 85.03 104.053C84.3484 104.707 83.4883 105.145 82.5581 105.31C81.6274 105.476 80.6692 105.362 79.8035 104.982C78.9387 104.603 78.2047 103.976 77.6959 103.179C77.1871 102.383 76.926 101.454 76.9456 100.509C76.9713 99.2433 77.4988 98.0389 78.4131 97.161C79.3269 96.2836 80.5515 95.8052 81.818 95.8309Z" fill="#ABCFE5" stroke="#0B2F3D" stroke-width="0.384903"/>
                <path d="M76.8736 105.423C77.5085 106.064 78.2635 106.573 79.0951 106.921C79.9268 107.27 80.8191 107.452 81.7208 107.456C82.623 107.46 83.5172 107.286 84.3516 106.944C85.1865 106.603 85.9457 106.1 86.5862 105.465C86.6096 105.439 86.6227 105.405 86.6227 105.369C86.6227 105.334 86.6096 105.3 86.5862 105.274L85.1856 103.865C85.1734 103.852 85.1585 103.841 85.1426 103.834C85.1258 103.827 85.1085 103.823 85.0903 103.822C85.0543 103.825 85.0197 103.839 84.9917 103.862C84.5511 104.303 84.0255 104.651 83.4466 104.882C82.8673 105.114 82.2473 105.225 81.6236 105.208H81.2924C80.279 105.152 79.3124 104.762 78.5424 104.1C78.4738 104.038 78.4018 103.975 78.3364 103.909C77.5496 103.124 77.0661 102.086 76.9708 100.979C76.875 99.8714 77.174 98.766 77.8141 97.8573C77.8202 97.8489 77.8253 97.84 77.829 97.8307C77.8589 97.7886 77.8916 97.7526 77.9276 97.7111C78.3869 97.1294 78.9788 96.6669 79.6544 96.3622C80.3304 96.0576 81.0691 95.9203 81.8091 95.9614C81.8264 95.9619 81.8441 95.9586 81.8605 95.952C81.8768 95.946 81.8918 95.9366 81.9049 95.924C81.9175 95.9119 81.9278 95.8974 81.9348 95.8815C81.9418 95.8651 81.946 95.8474 81.946 95.8301L81.9852 93.8501C81.9862 93.8146 81.9726 93.78 81.9479 93.7534C81.9236 93.7272 81.8899 93.7113 81.854 93.7099C80.4869 93.6871 79.1447 94.0725 77.9982 94.8172C76.8516 95.5615 75.9537 96.6314 75.4183 97.8891C74.8838 99.1472 74.7366 100.536 74.9955 101.878C75.2548 103.22 75.9088 104.455 76.8736 105.423Z" fill="#0B2F3D"/>
                <mask id="mask2_5152_21469" style="mask-type:alpha" maskUnits="userSpaceOnUse" x="71" y="43" width="66" height="96">
                    <path d="M136.293 43.9688H71.8242V138.133H136.293V43.9688Z" fill="#D9D9D9"/>
                </mask>
                <g mask="url(#mask2_5152_21469)">
                    <path d="M93.076 53.248L96.0659 57.5498L93.2846 59.6329L90.7969 55.9909" fill="white"/>
                    <path d="M93.076 53.248L96.0659 57.5498L93.2846 59.6329L90.7969 55.9909" stroke="#0B2F3D" stroke-width="0.533333" stroke-linecap="round" stroke-linejoin="round"/>
                    <path d="M96.8918 57.7164L94.592 54.6543L91.2246 57.1472L92.8921 60.1922L96.8918 57.7164Z" fill="white" stroke="#0B2F3D" stroke-width="0.533333" stroke-linecap="round" stroke-linejoin="round"/>
                    <path d="M116.474 73.4723L116.397 83.6351C116.397 83.6351 115.142 83.0242 113.347 82.1077C110.114 80.4514 105.131 77.8093 102.616 75.9861C102.086 75.6356 101.61 75.212 101.202 74.7295C99.573 72.441 91.5449 58.942 91.5449 58.942L95.8456 55.9004L103.619 67.1708L105.527 69.9486L105.704 70.007L116.474 73.4723Z" fill="#ABCFE5"/>
                    <path d="M116.474 73.4723L116.397 83.6351C116.397 83.6351 115.142 83.0242 113.347 82.1077C110.114 80.4514 105.131 77.8093 102.616 75.9861C102.086 75.6356 101.61 75.212 101.202 74.7295C99.573 72.441 91.5449 58.942 91.5449 58.942L95.8456 55.9004L103.619 67.1708L105.527 69.9486L105.704 70.007L116.474 73.4723Z" stroke="#0B2F3D" stroke-width="0.533333" stroke-linecap="round" stroke-linejoin="round"/>
                    <path d="M93.2452 54.067C93.3694 53.8204 93.4416 53.5508 93.4565 53.2755C93.4825 52.9066 93.4464 52.536 93.3508 52.1784C93.2563 51.8118 93.1077 51.4609 92.9091 51.1368C92.7355 50.8428 92.5879 50.535 92.4674 50.2167C92.383 50.0014 92.3087 49.7861 92.245 49.5813C92.1133 49.1573 92.0077 48.7259 91.927 48.2897C91.927 48.2897 91.2204 48.057 91.1423 48.7307C91.1243 48.9161 91.1333 49.103 91.1673 49.2862C91.2235 49.5987 91.326 49.9216 91.386 50.182C91.4396 50.3303 91.4497 50.4903 91.4147 50.6437C91.3886 50.701 91.3552 50.7548 91.3159 50.8035L91.2729 50.859C91.1858 50.9624 91.0744 51.0433 90.948 51.0951C90.8933 51.118 90.8344 51.1309 90.7749 51.1334C90.7601 51.137 90.7442 51.137 90.7288 51.1334C90.6858 51.1382 90.6417 51.1382 90.5982 51.1334C90.3672 51.0847 90.1442 51.0028 89.9377 50.8903C89.6288 50.7318 89.332 50.5506 89.0506 50.3487C88.9444 50.2688 88.842 50.1924 88.7432 50.1126C88.4969 49.9163 88.2607 49.7077 88.0366 49.4876C87.8774 49.3313 87.7006 49.1611 87.5169 49.0014C87.3332 48.8418 87.1644 48.6994 86.9945 48.5709C86.4923 48.1995 86.0325 48.0085 85.8738 48.3904C85.7145 48.7724 85.9062 48.8869 86.3086 49.2549C86.4498 49.3834 86.6197 49.5396 86.814 49.7342C87.1495 50.0808 87.4574 50.4523 87.7361 50.8451L87.8455 50.9979L87.6974 51.1993C87.7223 51.2375 87.6337 51.1993 87.4643 51.1299C87.0226 50.9125 86.5963 50.6667 86.1881 50.3937C86.0049 50.2757 85.8101 50.1403 85.6195 50.0049C85.4284 49.8695 85.2659 49.7515 85.1104 49.6194C84.2949 48.9633 84.1038 49.7166 84.2381 50.05C84.4553 50.343 84.7303 50.5899 85.0472 50.7758L85.6158 51.1888L85.8812 51.3938C86.2343 51.6716 86.5878 51.9527 86.8246 52.1471L86.9234 52.2235L86.8384 52.5396L86.6866 52.5012C86.2454 52.3925 85.8149 52.2448 85.4008 52.0603C85.121 51.9354 84.9055 51.8173 84.7361 51.7131C84.4181 51.5499 84.245 51.4944 84.0295 51.6819C83.8139 51.8694 84.0295 52.2201 84.3825 52.5186C84.6655 52.751 84.9819 52.9395 85.3227 53.0777C85.3838 53.1006 85.4464 53.1203 85.5096 53.1368C85.8287 53.2386 86.1329 53.381 86.4142 53.5602L86.5878 53.661L86.6478 53.918L86.3649 53.8902C86.0676 53.8543 85.7729 53.8007 85.4815 53.7304C85.2489 53.6673 85.0132 53.6163 84.7754 53.5777C84.7021 53.5585 84.6251 53.5615 84.5535 53.5863C84.4818 53.611 84.4202 53.6565 84.3756 53.7165C84.2381 53.918 84.4531 54.1401 84.7823 54.3243C84.9819 54.4312 85.1927 54.5173 85.4109 54.5811C85.5712 54.6328 85.7374 54.6646 85.9062 54.6747C86.2199 54.7146 86.5284 54.7899 86.8246 54.9003L87.1777 55.0292C87.6162 55.1854 88.0191 55.3484 88.1566 55.4041L88.2097 55.4251C88.4996 55.6121 88.7539 55.7721 88.9795 55.8865C89.5093 56.1981 90.1034 56.3877 90.7187 56.442C91.0027 56.4378 91.2766 56.3329 91.489 56.147" fill="white"/>
                    <path d="M93.2452 54.067C93.3694 53.8204 93.4416 53.5508 93.4565 53.2755C93.4825 52.9066 93.4464 52.536 93.3508 52.1784C93.2563 51.8118 93.1077 51.4609 92.9091 51.1368C92.7355 50.8428 92.5879 50.535 92.4674 50.2167C92.383 50.0014 92.3087 49.7861 92.245 49.5813C92.1133 49.1573 92.0077 48.7259 91.927 48.2897C91.927 48.2897 91.2204 48.057 91.1423 48.7307C91.1243 48.9161 91.1333 49.103 91.1673 49.2862C91.2235 49.5987 91.326 49.9216 91.386 50.182C91.4396 50.3303 91.4497 50.4903 91.4147 50.6437C91.3886 50.701 91.3552 50.7548 91.3159 50.8035L91.2729 50.859C91.1858 50.9624 91.0744 51.0433 90.948 51.0951C90.8933 51.118 90.8344 51.1309 90.7749 51.1334C90.7601 51.137 90.7442 51.137 90.7288 51.1334C90.6858 51.1382 90.6417 51.1382 90.5982 51.1334C90.3672 51.0847 90.1442 51.0028 89.9377 50.8903C89.6288 50.7318 89.332 50.5506 89.0506 50.3487C88.9444 50.2688 88.842 50.1924 88.7432 50.1126C88.4969 49.9163 88.2607 49.7077 88.0366 49.4876C87.8774 49.3313 87.7006 49.1611 87.5169 49.0014C87.3332 48.8418 87.1644 48.6994 86.9945 48.5709C86.4923 48.1995 86.0325 48.0085 85.8738 48.3904C85.7145 48.7724 85.9062 48.8869 86.3086 49.2549C86.4498 49.3834 86.6197 49.5396 86.814 49.7342C87.1495 50.0808 87.4574 50.4523 87.7361 50.8451L87.8455 50.9979L87.6974 51.1993C87.7223 51.2375 87.6337 51.1993 87.4643 51.1299C87.0226 50.9125 86.5963 50.6667 86.1881 50.3937C86.0049 50.2757 85.8101 50.1403 85.6195 50.0049C85.4284 49.8695 85.2659 49.7515 85.1104 49.6194C84.2949 48.9633 84.1038 49.7166 84.2381 50.05C84.4553 50.343 84.7303 50.5899 85.0472 50.7758L85.6158 51.1888L85.8812 51.3938C86.2343 51.6716 86.5878 51.9527 86.8246 52.1471L86.9234 52.2235L86.8384 52.5396L86.6866 52.5012C86.2454 52.3925 85.8149 52.2448 85.4008 52.0603C85.121 51.9354 84.9055 51.8173 84.7361 51.7131C84.4181 51.5499 84.245 51.4944 84.0295 51.6819C83.8139 51.8694 84.0295 52.2201 84.3825 52.5186C84.6655 52.751 84.9819 52.9395 85.3227 53.0777C85.3838 53.1006 85.4464 53.1203 85.5096 53.1368C85.8287 53.2386 86.1329 53.381 86.4142 53.5602L86.5878 53.661L86.6478 53.918L86.3649 53.8902C86.0676 53.8543 85.7729 53.8007 85.4815 53.7304C85.2489 53.6673 85.0132 53.6163 84.7754 53.5777C84.7021 53.5585 84.6251 53.5615 84.5535 53.5863C84.4818 53.611 84.4202 53.6565 84.3756 53.7165C84.2381 53.918 84.4531 54.1401 84.7823 54.3243C84.9819 54.4312 85.1927 54.5173 85.4109 54.5811C85.5712 54.6328 85.7374 54.6646 85.9062 54.6747C86.2199 54.7146 86.5284 54.7899 86.8246 54.9003L87.1777 55.0292C87.6162 55.1854 88.0191 55.3484 88.1566 55.4041L88.2097 55.4251C88.4996 55.6121 88.7539 55.7721 88.9795 55.8865C89.5093 56.1981 90.1034 56.3877 90.7187 56.442C91.0027 56.4378 91.2766 56.3329 91.489 56.147" stroke="#0B2F3D" stroke-width="0.533333" stroke-linecap="round" stroke-linejoin="round"/>
                    <path d="M90.7224 51.1484C90.7224 51.1484 89.7716 52.2942 90.5568 53.3913" stroke="#0B2F3D" stroke-width="0.533333" stroke-linecap="round" stroke-linejoin="round"/>
                    <path d="M142.485 170.41C142.485 170.41 121.186 153.49 119.97 151.293C118.755 149.095 116.341 128.971 116.341 128.971C116.03 129.186 96.0656 143.112 95.1397 144.463C95.076 144.557 94.9454 144.759 94.7543 145.057C92.1115 149.172 78.1715 171.445 78.1715 171.445C77.0173 171.48 75.869 171.268 74.8067 170.823C73.7444 170.378 72.793 169.712 72.0195 168.869L86.38 138.457L107.426 118.236L107.741 117.93L109.747 110.066L127.804 107.896C127.804 107.896 129.358 113.524 130.188 117.937C130.226 118.215 130.244 118.496 130.241 118.778C130.334 123.729 128.892 145.947 129.641 147.811C130.446 149.828 147.63 165.671 147.63 165.671C147.814 169.257 142.485 170.41 142.485 170.41Z" fill="#ABCFE5"/>
                    <path d="M142.485 170.41C142.485 170.41 121.186 153.49 119.97 151.293C118.755 149.095 116.341 128.971 116.341 128.971C116.03 129.186 96.0656 143.112 95.1397 144.463C95.076 144.557 94.9454 144.759 94.7543 145.057C92.1115 149.172 78.1715 171.445 78.1715 171.445C77.0173 171.48 75.869 171.268 74.8067 170.823C73.7444 170.378 72.793 169.712 72.0195 168.869L86.38 138.457L107.426 118.236L107.741 117.93L109.747 110.066L127.804 107.896C127.804 107.896 129.358 113.524 130.188 117.937C130.226 118.215 130.244 118.496 130.241 118.778C130.334 123.729 128.892 145.947 129.641 147.811C130.446 149.828 147.63 165.671 147.63 165.671C147.814 169.257 142.485 170.41 142.485 170.41Z" stroke="#0B2F3D" stroke-width="0.533333" stroke-linecap="round" stroke-linejoin="round"/>
                    <path d="M132.182 92.4288C131.171 98.0157 127.113 104.831 127.113 104.831L128.068 107.751L130.626 115.56L116.701 119.636L114.167 114.959L111.831 119.296L107.09 117.428L107.478 115.462L108.376 110.913C108.354 110.657 108.337 110.387 108.315 110.109C107.733 101.658 107.793 84.3151 115.825 73.3047C115.825 73.3047 127.747 74.9369 132.111 88.0366C132.506 89.2556 132.475 90.7903 132.182 92.4288Z" fill="#ABCFE5"/>
                    <path d="M132.182 92.4288C131.171 98.0157 127.113 104.831 127.113 104.831L128.068 107.751L130.626 115.56L116.701 119.636L114.167 114.959L111.831 119.296L107.09 117.428L107.478 115.462L108.376 110.913C108.354 110.657 108.337 110.387 108.315 110.109C107.733 101.658 107.793 84.3151 115.825 73.3047C115.825 73.3047 127.747 74.9369 132.111 88.0366C132.506 89.2556 132.475 90.7903 132.182 92.4288Z" stroke="#0B2F3D" stroke-width="0.533333" stroke-linecap="round" stroke-linejoin="round"/>
                    <path d="M113.208 95.6587C113.208 95.6587 132.755 80.0969 125.54 77.6525C119.041 75.448 110.738 80.4026 113.208 95.6587Z" fill="white" stroke="#0B2F3D" stroke-width="0.437372" stroke-linecap="round" stroke-linejoin="round"/>
                    <path d="M120.212 83.2108L117.527 84.3532C116.141 87.7872 115.258 91.397 114.905 95.0752L112.834 97.6479L112.258 95.0752C112.258 95.0752 113.269 87.287 116.699 84.107L117.53 81.0131L120.774 79.3809L120.212 83.2108Z" fill="#0B2F3D"/>
                    <path d="M113.41 94.6678C113.41 94.6678 128.833 84.0648 125.275 76.961C125.275 76.961 129.498 76.8535 127.714 87.0298L122.561 88.5056L123.999 91.335C123.999 91.335 118.197 92.4878 112.83 97.6365L110.734 85.5228L112.251 84.4221L111.359 82.5609C111.359 82.5609 116.692 76.7315 121.794 77.2213C121.794 77.2213 115.717 79.7038 114.141 84.4289C112.565 89.1545 113.41 94.6678 113.41 94.6678Z" fill="#ABCFE5" stroke="#0B2F3D" stroke-width="0.533333" stroke-linecap="round" stroke-linejoin="round"/>
                    <path d="M122.248 76.5992C122.248 76.5992 117.51 78.0056 115.393 82.5955L117.94 81.6686L118.199 82.4427L119.474 82.9602V85.5262C119.474 85.5262 126.771 82.2799 126.785 79.6477C126.788 78.9012 124.976 75.3947 122.248 76.5992Z" fill="white" stroke="#0B2F3D" stroke-width="0.437372" stroke-linecap="round" stroke-linejoin="round"/>
                    <path d="M126.891 72.6561C125.039 75.5758 126.266 79.1485 126.266 79.1485C126.266 79.1485 120.735 83.197 119.004 82.0724C119.06 80.9148 119.033 79.7542 118.923 78.6003C118.836 77.6102 118.685 76.6269 118.471 75.6561C118.471 75.6561 119.057 75.3087 119.923 74.847C122.683 73.3228 128.304 70.4344 126.891 72.6561Z" fill="white" stroke="#0B2F3D" stroke-width="0.437372" stroke-linecap="round" stroke-linejoin="round"/>
                    <path d="M91.1324 121.175C91.3108 121.036 91.4733 120.878 91.6166 120.703C91.7249 120.575 91.8157 120.436 91.8884 120.286C92.0466 120.017 92.2351 119.765 92.4506 119.537L92.7124 119.252C93.0261 118.904 93.3303 118.609 93.4365 118.505L93.4752 118.464C93.7619 118.269 93.9982 118.099 94.1819 117.939C94.6782 117.576 95.0844 117.108 95.3694 116.568C95.7506 115.874 94.6623 114.064 94.0725 113.373C93.8856 113.167 93.6584 113.001 93.4046 112.883C93.0723 112.719 92.7134 112.61 92.3445 112.561C91.9638 112.507 91.5773 112.507 91.1967 112.561C90.8542 112.608 90.5097 112.627 90.1641 112.616C89.931 112.616 89.698 112.596 89.4824 112.576C89.0328 112.533 88.5858 112.467 88.143 112.377C88.0804 112.436 88.0326 112.511 88.0044 112.592C87.9758 112.674 87.9668 112.76 87.9784 112.846C87.9901 112.931 88.022 113.012 88.0713 113.084C88.1212 113.155 88.1871 113.214 88.263 113.255C88.4302 113.341 88.6091 113.405 88.7939 113.443C89.1113 113.512 89.4543 113.544 89.7187 113.586C89.8806 113.592 90.0361 113.644 90.1678 113.735C90.2108 113.78 90.249 113.83 90.2809 113.883L90.3159 113.942C90.3786 114.062 90.4125 114.194 90.4152 114.328C90.4152 114.386 90.4051 114.443 90.3871 114.499C90.3903 114.513 90.3903 114.529 90.3871 114.543C90.3685 114.584 90.3472 114.622 90.3234 114.658C90.1896 114.85 90.0282 115.02 89.8429 115.165C89.5727 115.383 89.2855 115.58 88.9845 115.756L88.6309 115.942C88.3522 116.095 88.0655 116.233 87.7719 116.356C87.5633 116.443 87.3377 116.54 87.1184 116.644C86.9114 116.737 86.7096 116.842 86.5142 116.957C85.9701 117.272 85.6202 117.617 85.917 117.904C86.2138 118.193 86.3974 118.068 86.8991 117.839C87.0727 117.759 87.2814 117.665 87.5389 117.56C87.9928 117.388 88.4594 117.247 88.9346 117.14L89.1182 117.099L89.2526 117.307C89.2987 117.307 89.2526 117.373 89.1007 117.494C88.7349 117.819 88.349 118.12 87.9455 118.398C87.7618 118.519 87.5601 118.647 87.3589 118.766C87.1571 118.883 87.0053 118.985 86.8036 119.081C85.8782 119.578 86.5142 120.036 86.8784 120.039C87.2394 119.957 87.5803 119.802 87.8781 119.585L88.486 119.22L88.779 119.061C89.1676 118.856 89.5706 118.637 89.8397 118.488L89.9454 118.428L90.2135 118.623L90.1216 118.748C89.8525 119.106 89.5509 119.44 89.2207 119.744C88.9951 119.953 88.8034 120.092 88.659 120.224C88.3872 120.456 88.2672 120.592 88.366 120.845C88.4647 121.099 88.8714 121.057 89.2844 120.845C89.6093 120.676 89.9061 120.459 90.1641 120.203C90.2103 120.156 90.2522 120.106 90.2915 120.054C90.5065 119.802 90.755 119.58 91.03 119.394L91.1924 119.276L91.4579 119.317C91.4154 119.404 91.3692 119.488 91.323 119.563C91.177 119.82 91.0151 120.069 90.8394 120.307C90.6891 120.496 90.5506 120.693 90.4221 120.897C90.3743 120.955 90.3467 121.027 90.3441 121.101C90.3409 121.176 90.3621 121.249 90.4051 121.311C90.5426 121.522 90.8394 121.394 91.1324 121.175Z" fill="white" stroke="#0B2F3D" stroke-width="0.533333" stroke-linecap="round" stroke-linejoin="round"/>
                    <path d="M93.2305 113.328L98.2511 111.65L99.548 114.838L95.311 116.22" fill="white"/>
                    <path d="M93.2305 113.328L98.2511 111.65L99.548 114.838L95.311 116.22" stroke="#0B2F3D" stroke-width="0.533333" stroke-linecap="round" stroke-linejoin="round"/>
                    <path d="M98.6342 110.916L95.0156 112.274L96.56 116.131L99.9906 115.368L98.6342 110.916Z" fill="white" stroke="#0B2F3D" stroke-width="0.533333" stroke-linecap="round" stroke-linejoin="round"/>
                    <path d="M131.653 88.5155C131.653 88.5155 129.267 87.5682 126.219 89.2521C124.353 90.2938 115.049 104.56 115.391 103.907L96.3105 111.23L98.2647 116.601C98.2647 116.601 118.309 111.612 119.932 110.4C121.554 109.188 130.063 100.331 131.978 92.9047" fill="#ABCFE5"/>
                    <path d="M131.653 88.5155C131.653 88.5155 129.267 87.5682 126.219 89.2521C124.353 90.2938 115.049 104.56 115.391 103.907L96.3105 111.23L98.2647 116.601C98.2647 116.601 118.309 111.612 119.932 110.4C121.554 109.188 130.063 100.331 131.978 92.9047" stroke="#0B2F3D" stroke-width="0.533333" stroke-linecap="round" stroke-linejoin="round"/>
                    <path d="M115.432 117.322C115.432 117.322 114.644 121.756 114.153 122.489C113.662 123.221 114.793 125.783 114.793 125.783" stroke="#0B2F3D" stroke-width="0.533333" stroke-linecap="round" stroke-linejoin="round"/>
                    <path d="M124 75.4902C124 75.4902 121.746 77.8272 118.923 78.5872C118.836 77.5972 118.685 76.6138 118.471 75.6431C118.471 75.6431 119.057 75.2956 119.923 74.834L124 75.4902Z" fill="#0B2F3D"/>
                    <path d="M124.724 76.0057C122.445 77.2488 119.862 77.686 117.484 76.5994C116.639 76.2175 116.23 71.2347 117.484 66.8357C119.502 59.7286 125.349 59.4923 130.06 63.711C132.551 65.9473 131.021 70.3912 127.901 73.5681" fill="white"/>
                    <path d="M124.724 76.0057C122.445 77.2488 119.862 77.686 117.484 76.5994C116.639 76.2175 116.23 71.2347 117.484 66.8357C119.502 59.7286 125.349 59.4923 130.06 63.711C132.551 65.9473 131.021 70.3912 127.901 73.5681" stroke="#0B2F3D" stroke-width="0.533333" stroke-linecap="round" stroke-linejoin="round"/>
                    <path d="M121.123 67.2844C121.736 67.2358 122.349 67.385 122.867 67.7095C123.387 68.0345 123.784 68.5165 123.999 69.083" stroke="#0B2F3D" stroke-width="0.533333" stroke-linecap="round" stroke-linejoin="round"/>
                    <path d="M119 66.3788C119 66.3788 118.696 65.5192 117.941 65.502" stroke="#0B2F3D" stroke-width="0.533333" stroke-linecap="round" stroke-linejoin="round"/>
                    <path d="M117.852 71.384C117.852 71.384 116.952 70.4638 117.235 69.9426C117.517 69.422 117.804 69.7309 118.475 69.2697C118.679 69.132 118.849 68.9536 118.98 68.747C119.108 68.5399 119.191 68.3088 119.224 68.0684" fill="white"/>
                    <path d="M117.852 71.384C117.852 71.384 116.952 70.4638 117.235 69.9426C117.517 69.422 117.804 69.7309 118.475 69.2697C118.679 69.132 118.849 68.9536 118.98 68.747C119.108 68.5399 119.191 68.3088 119.224 68.0684" stroke="#0B2F3D" stroke-width="0.437372" stroke-linecap="round" stroke-linejoin="round"/>
                    <path d="M122.05 69.8859C121.958 70.1144 121.778 70.2599 121.647 70.2114C121.516 70.1634 121.481 69.9344 121.573 69.7023C121.664 69.4696 121.845 69.3278 121.975 69.3799C122.106 69.4316 122.152 69.6574 122.05 69.8859Z" fill="#0B2F3D"/>
                    <path d="M118.575 68.1227C118.482 68.3549 118.303 68.5009 118.172 68.4483C118.041 68.3966 118.007 68.1713 118.098 67.9428C118.189 67.7138 118.37 67.5682 118.5 67.6167C118.631 67.6658 118.666 67.9115 118.575 68.1227Z" fill="#0B2F3D"/>
                    <path d="M117.523 72.4766C117.523 72.4766 119.382 73.3169 120.767 73.3347C120.767 73.3347 120.062 74.8068 118.852 74.6748C117.643 74.5428 117.908 72.9142 117.908 72.9142" stroke="#0B2F3D" stroke-width="0.533333" stroke-linecap="round" stroke-linejoin="round"/>
                    <path d="M126.13 64.9299C126.13 64.9299 124.138 63.3571 119.77 62.6351C119.77 62.6351 119.791 60.0102 120.777 59.0621C121.763 58.1145 122.572 60.0686 122.572 60.0686C122.572 60.0686 125.045 59.3955 129.437 62.3571C133.83 65.319 131.724 72.1724 126.173 75.0858L126.141 73.9257C126.141 73.9257 126.198 71.5235 125.285 71.0759C125.285 71.0759 125.968 69.3399 125.23 68.0582C124.491 66.777 126.13 64.9299 126.13 64.9299Z" fill="#0B2F3D"/>
                    <path d="M125.275 71.9172C125.275 71.9172 126.87 70.0179 128.177 70.6882C129.484 71.3585 126.582 75.4342 125.275 74.6845" fill="white"/>
                    <path d="M125.275 71.9172C125.275 71.9172 126.87 70.0179 128.177 70.6882C129.484 71.3585 126.582 75.4342 125.275 74.6845" stroke="#0B2F3D" stroke-width="0.437372" stroke-linecap="round" stroke-linejoin="round"/>
                </g>
            </g>
            <path d="M52.1992 41.9249C52.1992 39.0602 56.8703 36.7266 62.6144 36.7266C68.3575 36.7266 72.9228 39.0078 73.024 41.8297V47.1583C72.9219 44.3354 68.29 42.0551 62.6144 42.0551C56.9378 42.0551 52.1992 44.3878 52.1992 47.2535V41.9249Z" fill="#4C97C7"/>
            <path d="M71.9805 43.9009C72.1509 43.7025 72.2959 43.4963 72.4153 43.2832V48.6117C72.2959 48.8223 72.1519 49.0285 71.9805 49.2295V43.9009Z" fill="#4C97C7"/>
            <path d="M70.5645 45.0915C70.8325 44.9238 71.0786 44.7482 71.3038 44.5664V49.8924C71.0777 50.075 70.8316 50.2523 70.5645 50.4174V45.0888" fill="#4C97C7"/>
            <path d="M68.5742 46.0399C68.9197 45.915 69.2515 45.7769 69.5624 45.6328V50.9587C69.2488 51.1055 68.9197 51.24 68.5742 51.3659V46.0373" fill="#4C97C7"/>
            <path d="M66.127 46.6906C66.5372 46.6147 66.9328 46.5273 67.3148 46.4277V51.7536C66.9328 51.8533 66.5344 51.9432 66.127 52.0166V46.6881" fill="#4C97C7"/>
            <path d="M60.4414 46.8874C60.8744 46.9345 61.3184 46.9677 61.7687 46.987V52.3129C61.3156 52.2937 60.8726 52.2605 60.4414 52.2133V46.8848" fill="#4C97C7"/>
            <path d="M63.3398 46.9911C63.792 46.9745 64.2378 46.9438 64.6717 46.8984V52.227C64.2387 52.2716 63.7929 52.303 63.3398 52.3196V46.9911Z" fill="#4C97C7"/>
            <path d="M57.8125 46.403C58.1917 46.5043 58.5874 46.5944 58.9958 46.673V51.9989C58.5874 51.9211 58.1945 51.8311 57.8125 51.7289V46.4004" fill="#4C97C7"/>
            <path d="M55.582 45.5944C55.8929 45.7412 56.2202 45.881 56.5638 46.0086V51.3345C56.2202 51.2069 55.8911 51.0697 55.582 50.9203V45.5918" fill="#4C97C7"/>
            <path d="M53.8633 44.5176C54.0839 44.7019 54.3282 44.8793 54.5917 45.0479V50.3765C54.3282 50.2087 54.0839 50.0314 53.8633 49.8461V44.5176Z" fill="#4C97C7"/>
            <path d="M52.7773 43.2324C52.8913 43.4456 53.0308 43.6509 53.1967 43.8527V49.1812C53.0308 48.9803 52.8913 48.7741 52.7773 48.561V43.2324Z" fill="#4C97C7"/>
            <path d="M58.0198 67.0234H53.4845C53.109 67.0234 52.8047 67.3278 52.8047 67.7031C52.8047 68.0788 53.1091 68.3828 53.4845 68.3828H58.0198C58.3952 68.3828 58.6996 68.0788 58.6996 67.7031C58.6996 67.3278 58.3952 67.0234 58.0198 67.0234Z" fill="#ABCFE5"/>
            <path d="M55.999 68.9883H53.4845C53.1091 68.9883 52.8047 69.2926 52.8047 69.6679C52.8047 70.0432 53.109 70.3476 53.4845 70.3476H55.999C56.3744 70.3476 56.6787 70.0432 56.6787 69.6679C56.6787 69.2926 56.3744 68.9883 55.999 68.9883Z" fill="#ABCFE5"/>
            <path d="M54.355 70.9531H53.4845C53.1091 70.9531 52.8047 71.2572 52.8047 71.6329C52.8047 72.0082 53.1091 72.3125 53.4845 72.3125H54.355C54.7304 72.3125 55.0347 72.0082 55.0347 71.6329C55.0347 71.2572 54.7304 70.9531 54.355 70.9531Z" fill="#ABCFE5"/>
            <path d="M44.5674 85.1762V83.0794C44.5674 82.5277 44.1199 82.0801 43.5679 82.0801C43.0159 82.0801 42.5684 82.5277 42.5684 83.0794V85.1762C42.5684 85.728 43.0159 86.1756 43.5679 86.1756C44.1199 86.1756 44.5674 85.728 44.5674 85.1762Z" fill="#ABCFE5"/>
            <path d="M47.456 85.1781V84.4876C47.456 83.9359 47.0085 83.4883 46.4565 83.4883C45.9045 83.4883 45.457 83.9359 45.457 84.4876V85.1781C45.457 85.7304 45.9045 86.178 46.4565 86.178C47.0085 86.178 47.456 85.7304 47.456 85.1781Z" fill="#ABCFE5"/>
            <path d="M49.5682 84.6289H49.1183C48.6905 84.6289 48.3438 84.9756 48.3438 85.4031C48.3438 85.831 48.6905 86.1781 49.1183 86.1781H49.5682C49.996 86.1781 50.3428 85.831 50.3428 85.4031C50.3428 84.9756 49.996 84.6289 49.5682 84.6289Z" fill="#ABCFE5"/>
            <path d="M64.311 74.58L65.8574 75.392L65.6799 71.0293L61.9909 73.3638L63.5373 74.174L62.3726 76.389C62.1672 76.389 61.9679 76.4576 61.806 76.5833L59.7511 75.633V75.6204C59.7599 75.3723 59.6707 75.1313 59.5029 74.9486C59.3351 74.7659 59.102 74.6571 58.8543 74.6444C58.6064 74.6323 58.3639 74.7183 58.179 74.8837C57.9942 75.049 57.8818 75.2803 57.8663 75.5284C57.8639 75.5588 57.8639 75.5901 57.8663 75.6204C57.8675 75.7554 57.8965 75.8891 57.9515 76.0119L55.2764 78.9305C55.1907 78.9034 55.1013 78.8894 55.0114 78.889C54.9647 78.889 54.9183 78.8941 54.8728 78.9034L51.0206 74.0133C51.1086 73.7871 51.106 73.5358 51.013 73.3115C50.9201 73.0873 50.7442 72.9079 50.5221 72.8102C50.2999 72.7126 50.0487 72.7046 49.8208 72.7878C49.5928 72.871 49.4058 73.0391 49.2989 73.2569C49.2456 73.3746 49.2183 73.5021 49.2186 73.6316C49.2215 73.7278 49.238 73.824 49.2673 73.9161L44.8777 78.4147C44.7031 78.3517 44.5137 78.3419 44.3335 78.3863C44.1533 78.4306 43.9901 78.5269 43.8647 78.6638C43.7392 78.8007 43.6571 78.9717 43.6284 79.1548C43.5998 79.3384 43.6261 79.5262 43.704 79.6949C43.7818 79.8635 43.9078 80.0051 44.0661 80.1023C44.2241 80.199 44.4076 80.2476 44.5931 80.2406C44.7786 80.2336 44.9579 80.1724 45.1085 80.0635C45.2591 79.9551 45.3743 79.8042 45.4395 79.6309C45.4763 79.5267 45.4951 79.4178 45.4954 79.3071C45.4957 79.23 45.485 79.1529 45.4637 79.0786L49.902 74.5239C49.989 74.5529 50.0801 74.5674 50.1719 74.5674C50.2299 74.5678 50.2879 74.5622 50.3445 74.5505L54.1748 79.4146C54.0545 79.636 54.0273 79.8967 54.0991 80.1387C54.1709 80.3807 54.3359 80.584 54.5577 80.7045C54.7796 80.8246 55.0402 80.8521 55.2822 80.7797C55.5241 80.7082 55.7276 80.5433 55.8479 80.3214C55.9158 80.1981 55.955 80.0607 55.9622 79.9201C55.9646 79.8888 55.9646 79.857 55.9622 79.8252C55.9607 79.7271 55.9443 79.629 55.9135 79.536L58.6519 76.5544C58.704 76.5637 58.7569 76.5688 58.8099 76.5688C58.9971 76.5688 59.18 76.5128 59.3352 76.4086L61.4266 77.3813C61.4304 77.506 61.4592 77.6289 61.5109 77.7429C61.5627 77.8564 61.6367 77.9588 61.7283 78.0438C61.8203 78.1284 61.928 78.1938 62.0452 78.2367C62.1626 78.2793 62.2876 78.2984 62.4121 78.2923C62.5371 78.2867 62.6594 78.2554 62.7721 78.2022C62.8852 78.1484 62.986 78.0723 63.0693 77.9793C63.1524 77.8863 63.2164 77.777 63.257 77.6593C63.2977 77.5411 63.3145 77.4159 63.3065 77.2911C63.2972 77.1169 63.2393 76.9482 63.1386 76.8052L64.311 74.58Z" fill="#0B2F3D"/>
        </g>
    </g>
    <defs>
        <filter id="filter0_f_5152_21469" x="16.8296" y="41.6772" width="103.69" height="97.1553" filterUnits="userSpaceOnUse" color-interpolation-filters="sRGB">
            <feFlood flood-opacity="0" result="BackgroundImageFix"/>
            <feBlend mode="normal" in="SourceGraphic" in2="BackgroundImageFix" result="shape"/>
            <feGaussianBlur stdDeviation="11.5471" result="effect1_foregroundBlur_5152_21469"/>
        </filter>
        <filter id="filter1_f_5152_21469" x="51.0952" y="11.4116" width="103.69" height="97.1553" filterUnits="userSpaceOnUse" color-interpolation-filters="sRGB">
            <feFlood flood-opacity="0" result="BackgroundImageFix"/>
            <feBlend mode="normal" in="SourceGraphic" in2="BackgroundImageFix" result="shape"/>
            <feGaussianBlur stdDeviation="11.5471" result="effect1_foregroundBlur_5152_21469"/>
        </filter>
        <clipPath id="clip0_5152_21469">
            <rect width="116.8" height="116.8" fill="white" transform="translate(21.8672 21.334)"/>
        </clipPath>
    </defs>
</svg>