<svg xmlns:xlink="http://www.w3.org/1999/xlink" width="358" height="70" viewBox="0 0 358 70" fill="none" xmlns="http://www.w3.org/2000/svg"><title fill="none">Digital Intelligence for Meta</title><path d="M12 31.0074C12 26.6053 19.1784 23.0195 28.004 23.0195C36.8297 23.0195 43.8443 26.5248 44 30.8611V39.049C43.8429 34.7114 36.7263 31.2074 28.004 31.2074C19.2818 31.2074 12 34.7919 12 39.1953V31.0074Z" fill="#4C97C7"></path><path d="M42.4011 34.0508C42.6629 33.7461 42.8857 33.4293 43.0683 33.1017V41.2896C42.8857 41.6132 42.6642 41.93 42.4011 42.2388V34.0508Z" fill="#4C97C7"></path><path d="M40.2235 35.8726C40.6357 35.6149 41.0143 35.345 41.3593 35.0658V43.2497C41.0129 43.5303 40.6343 43.8028 40.2235 44.0566V35.8686" fill="#4C97C7"></path><path d="M37.1639 37.3306C37.6956 37.1386 38.2057 36.9265 38.6823 36.705V44.8889C38.2017 45.1144 37.6956 45.3212 37.1639 45.5145V37.3266" fill="#4C97C7"></path><path d="M33.4049 38.3334C34.0346 38.2166 34.6427 38.0824 35.2294 37.9294V46.1133C34.6427 46.2663 34.0305 46.4046 33.4049 46.5174V38.3294" fill="#4C97C7"></path><path d="M24.6679 38.6355C25.3338 38.708 26.0158 38.759 26.7072 38.7886V46.9725C26.0117 46.9429 25.3311 46.8919 24.6679 46.8194V38.6315" fill="#4C97C7"></path><path d="M29.1223 38.7926C29.8177 38.7671 30.5024 38.7201 31.1697 38.6503V46.8382C30.5038 46.9067 29.8191 46.955 29.1223 46.9805V38.7926Z" fill="#4C97C7"></path><path d="M20.6283 37.8904C21.2109 38.0462 21.8191 38.1844 22.446 38.3053V46.4892C21.8191 46.3697 21.215 46.2314 20.6283 46.0743V37.8864" fill="#4C97C7"></path><path d="M17.2009 36.6473C17.6775 36.8728 18.1809 37.0876 18.7085 37.2836V45.4675C18.1809 45.2715 17.6748 45.0607 17.2009 44.8312V36.6432" fill="#4C97C7"></path><path d="M14.5602 34.9919C14.8985 35.2752 15.2744 35.5477 15.6785 35.8068V43.9948C15.2744 43.737 14.8985 43.4645 14.5602 43.1799V34.9919Z" fill="#4C97C7"></path><path d="M12.8914 33.0225C13.066 33.3501 13.2808 33.6655 13.5358 33.9757V42.1636C13.2808 41.8548 13.066 41.538 12.8914 41.2104V33.0225Z" fill="#4C97C7"></path><path d="M321.378 35.1C321.378 33.98 321.598 32.9867 322.038 32.12C322.491 31.2534 323.098 30.5867 323.858 30.12C324.631 29.6534 325.491 29.42 326.438 29.42C327.264 29.42 327.984 29.5867 328.598 29.92C329.224 30.2534 329.724 30.6734 330.098 31.18V29.6H332.918V40.68H330.098V39.06C329.738 39.58 329.238 40.0134 328.598 40.36C327.971 40.6934 327.244 40.86 326.418 40.86C325.484 40.86 324.631 40.62 323.858 40.14C323.098 39.66 322.491 38.9867 322.038 38.12C321.598 37.24 321.378 36.2334 321.378 35.1ZM330.098 35.14C330.098 34.46 329.964 33.88 329.698 33.4C329.431 32.9067 329.071 32.5334 328.618 32.28C328.164 32.0134 327.678 31.88 327.158 31.88C326.638 31.88 326.158 32.0067 325.718 32.26C325.278 32.5134 324.918 32.8867 324.638 33.38C324.371 33.86 324.238 34.4334 324.238 35.1C324.238 35.7667 324.371 36.3534 324.638 36.86C324.918 37.3534 325.278 37.7334 325.718 38C326.171 38.2667 326.651 38.4 327.158 38.4C327.678 38.4 328.164 38.2734 328.618 38.02C329.071 37.7534 329.431 37.38 329.698 36.9C329.964 36.4067 330.098 35.82 330.098 35.14Z" fill="#4C97C7"></path><path d="M317.604 31.9001V37.2601C317.604 37.6334 317.69 37.9068 317.864 38.0801C318.05 38.2401 318.357 38.3201 318.784 38.3201H320.084V40.6801H318.324C315.964 40.6801 314.784 39.5334 314.784 37.2401V31.9001H313.464V29.6001H314.784V26.8601H317.604V29.6001H320.084V31.9001H317.604Z" fill="#4C97C7"></path><path d="M312.3 34.9C312.3 35.3 312.273 35.66 312.22 35.98H304.12C304.187 36.78 304.467 37.4067 304.96 37.86C305.453 38.3134 306.06 38.54 306.78 38.54C307.82 38.54 308.56 38.0934 309 37.2H312.02C311.7 38.2667 311.087 39.1467 310.18 39.84C309.273 40.52 308.16 40.86 306.84 40.86C305.773 40.86 304.813 40.6267 303.96 40.16C303.12 39.68 302.46 39.0067 301.98 38.14C301.513 37.2734 301.28 36.2734 301.28 35.14C301.28 33.9934 301.513 32.9867 301.98 32.12C302.447 31.2534 303.1 30.5867 303.94 30.12C304.78 29.6534 305.747 29.42 306.84 29.42C307.893 29.42 308.833 29.6467 309.66 30.1C310.5 30.5534 311.147 31.2 311.6 32.04C312.067 32.8667 312.3 33.82 312.3 34.9ZM309.4 34.1C309.387 33.38 309.127 32.8067 308.62 32.38C308.113 31.94 307.493 31.72 306.76 31.72C306.067 31.72 305.48 31.9334 305 32.36C304.533 32.7734 304.247 33.3534 304.14 34.1H309.4Z" fill="#4C97C7"></path><path d="M299.232 26.7201V40.6801H296.432V31.6001L292.692 40.6801H290.572L286.812 31.6001V40.6801H284.012V26.7201H287.192L291.632 37.1001L296.072 26.7201H299.232Z" fill="#4C97C7"></path><path d="M273.96 31.3201C274.32 30.7334 274.787 30.2734 275.36 29.9401C275.947 29.6067 276.613 29.4401 277.36 29.4401V32.3801H276.62C275.74 32.3801 275.073 32.5867 274.62 33.0001C274.18 33.4134 273.96 34.1334 273.96 35.1601V40.6801H271.16V29.6001H273.96V31.3201Z" fill="#4C97C7"></path><path d="M263.326 40.86C262.26 40.86 261.3 40.6267 260.446 40.16C259.593 39.68 258.92 39.0067 258.426 38.14C257.946 37.2734 257.706 36.2734 257.706 35.14C257.706 34.0067 257.953 33.0067 258.446 32.14C258.953 31.2734 259.64 30.6067 260.506 30.14C261.373 29.66 262.34 29.42 263.406 29.42C264.473 29.42 265.44 29.66 266.306 30.14C267.173 30.6067 267.853 31.2734 268.346 32.14C268.853 33.0067 269.106 34.0067 269.106 35.14C269.106 36.2734 268.846 37.2734 268.326 38.14C267.82 39.0067 267.126 39.68 266.246 40.16C265.38 40.6267 264.406 40.86 263.326 40.86ZM263.326 38.42C263.833 38.42 264.306 38.3 264.746 38.06C265.2 37.8067 265.56 37.4334 265.826 36.94C266.093 36.4467 266.226 35.8467 266.226 35.14C266.226 34.0867 265.946 33.28 265.386 32.72C264.84 32.1467 264.166 31.86 263.366 31.86C262.566 31.86 261.893 32.1467 261.346 32.72C260.813 33.28 260.546 34.0867 260.546 35.14C260.546 36.1934 260.806 37.0067 261.326 37.58C261.86 38.14 262.526 38.42 263.326 38.42Z" fill="#4C97C7"></path><path d="M256.592 31.9H254.652V40.68H251.812V31.9H250.552V29.6H251.812V29.04C251.812 27.68 252.198 26.68 252.972 26.04C253.745 25.4 254.912 25.1 256.472 25.14V27.5C255.792 27.4867 255.318 27.6 255.052 27.84C254.785 28.08 254.652 28.5133 254.652 29.14V29.6H256.592V31.9Z" fill="#4C97C7"></path><path d="M244.702 34.9C244.702 35.3 244.676 35.66 244.622 35.98H236.522C236.589 36.78 236.869 37.4067 237.362 37.86C237.856 38.3134 238.462 38.54 239.182 38.54C240.222 38.54 240.962 38.0934 241.402 37.2H244.422C244.102 38.2667 243.489 39.1467 242.582 39.84C241.676 40.52 240.562 40.86 239.242 40.86C238.176 40.86 237.216 40.6267 236.362 40.16C235.522 39.68 234.862 39.0067 234.382 38.14C233.916 37.2734 233.682 36.2734 233.682 35.14C233.682 33.9934 233.916 32.9867 234.382 32.12C234.849 31.2534 235.502 30.5867 236.342 30.12C237.182 29.6534 238.149 29.42 239.242 29.42C240.296 29.42 241.236 29.6467 242.062 30.1C242.902 30.5534 243.549 31.2 244.002 32.04C244.469 32.8667 244.702 33.82 244.702 34.9ZM241.802 34.1C241.789 33.38 241.529 32.8067 241.022 32.38C240.516 31.94 239.896 31.72 239.162 31.72C238.469 31.72 237.882 31.9334 237.402 32.36C236.936 32.7734 236.649 33.3534 236.542 34.1H241.802Z" fill="#4C97C7"></path><path d="M221.651 35.14C221.651 33.9934 221.884 32.9934 222.351 32.14C222.818 31.2734 223.464 30.6067 224.291 30.14C225.118 29.66 226.064 29.42 227.131 29.42C228.504 29.42 229.638 29.7667 230.531 30.46C231.438 31.14 232.044 32.1 232.351 33.34H229.331C229.171 32.86 228.898 32.4867 228.511 32.22C228.138 31.94 227.671 31.8 227.111 31.8C226.311 31.8 225.678 32.0934 225.211 32.68C224.744 33.2534 224.511 34.0734 224.511 35.14C224.511 36.1934 224.744 37.0134 225.211 37.6C225.678 38.1734 226.311 38.46 227.111 38.46C228.244 38.46 228.984 37.9534 229.331 36.94H232.351C232.044 38.14 231.438 39.0934 230.531 39.8C229.624 40.5067 228.491 40.86 227.131 40.86C226.064 40.86 225.118 40.6267 224.291 40.16C223.464 39.68 222.818 39.0134 222.351 38.16C221.884 37.2934 221.651 36.2867 221.651 35.14Z" fill="#4C97C7"></path><path d="M215.288 29.4401C216.608 29.4401 217.675 29.8601 218.488 30.7001C219.302 31.5267 219.708 32.6867 219.708 34.1801V40.6801H216.908V34.5601C216.908 33.6801 216.688 33.0067 216.248 32.5401C215.808 32.0601 215.208 31.8201 214.448 31.8201C213.675 31.8201 213.062 32.0601 212.608 32.5401C212.168 33.0067 211.948 33.6801 211.948 34.5601V40.6801H209.148V29.6001H211.948V30.9801C212.322 30.5001 212.795 30.1267 213.368 29.8601C213.955 29.5801 214.595 29.4401 215.288 29.4401Z" fill="#4C97C7"></path><path d="M207.105 34.9C207.105 35.3 207.078 35.66 207.025 35.98H198.925C198.991 36.78 199.271 37.4067 199.765 37.86C200.258 38.3134 200.865 38.54 201.585 38.54C202.625 38.54 203.365 38.0934 203.805 37.2H206.825C206.505 38.2667 205.891 39.1467 204.985 39.84C204.078 40.52 202.965 40.86 201.645 40.86C200.578 40.86 199.618 40.6267 198.765 40.16C197.925 39.68 197.265 39.0067 196.785 38.14C196.318 37.2734 196.085 36.2734 196.085 35.14C196.085 33.9934 196.318 32.9867 196.785 32.12C197.251 31.2534 197.905 30.5867 198.745 30.12C199.585 29.6534 200.551 29.42 201.645 29.42C202.698 29.42 203.638 29.6467 204.465 30.1C205.305 30.5534 205.951 31.2 206.405 32.04C206.871 32.8667 207.105 33.82 207.105 34.9ZM204.205 34.1C204.191 33.38 203.931 32.8067 203.425 32.38C202.918 31.94 202.298 31.72 201.565 31.72C200.871 31.72 200.285 31.9334 199.805 32.36C199.338 32.7734 199.051 33.3534 198.945 34.1H204.205Z" fill="#4C97C7"></path><path d="M187.59 29.42C188.417 29.42 189.143 29.5867 189.77 29.92C190.397 30.24 190.89 30.66 191.25 31.18V29.6H194.07V40.76C194.07 41.7867 193.863 42.7 193.45 43.5C193.037 44.3134 192.417 44.9534 191.59 45.42C190.763 45.9 189.763 46.14 188.59 46.14C187.017 46.14 185.723 45.7734 184.71 45.04C183.71 44.3067 183.143 43.3067 183.01 42.04H185.79C185.937 42.5467 186.25 42.9467 186.73 43.24C187.223 43.5467 187.817 43.7 188.51 43.7C189.323 43.7 189.983 43.4534 190.49 42.96C190.997 42.48 191.25 41.7467 191.25 40.76V39.04C190.89 39.56 190.39 39.9934 189.75 40.34C189.123 40.6867 188.403 40.86 187.59 40.86C186.657 40.86 185.803 40.62 185.03 40.14C184.257 39.66 183.643 38.9867 183.19 38.12C182.75 37.24 182.53 36.2334 182.53 35.1C182.53 33.98 182.75 32.9867 183.19 32.12C183.643 31.2534 184.25 30.5867 185.01 30.12C185.783 29.6534 186.643 29.42 187.59 29.42ZM191.25 35.14C191.25 34.46 191.117 33.88 190.85 33.4C190.583 32.9067 190.223 32.5334 189.77 32.28C189.317 32.0134 188.83 31.88 188.31 31.88C187.79 31.88 187.31 32.0067 186.87 32.26C186.43 32.5134 186.07 32.8867 185.79 33.38C185.523 33.86 185.39 34.4334 185.39 35.1C185.39 35.7667 185.523 36.3534 185.79 36.86C186.07 37.3534 186.43 37.7334 186.87 38C187.323 38.2667 187.803 38.4 188.31 38.4C188.83 38.4 189.317 38.2734 189.77 38.02C190.223 37.7534 190.583 37.38 190.85 36.9C191.117 36.4067 191.25 35.82 191.25 35.14Z" fill="#4C97C7"></path><path d="M179.104 28.28C178.61 28.28 178.197 28.1267 177.864 27.82C177.544 27.5 177.384 27.1067 177.384 26.64C177.384 26.1733 177.544 25.7867 177.864 25.48C178.197 25.16 178.61 25 179.104 25C179.597 25 180.004 25.16 180.324 25.48C180.657 25.7867 180.824 26.1733 180.824 26.64C180.824 27.1067 180.657 27.5 180.324 27.82C180.004 28.1267 179.597 28.28 179.104 28.28ZM180.484 29.6V40.68H177.684V29.6H180.484Z" fill="#4C97C7"></path><path d="M174.917 25.88V40.68H172.117V25.88H174.917Z" fill="#4C97C7"></path><path d="M169.351 25.88V40.68H166.551V25.88H169.351Z" fill="#4C97C7"></path><path d="M164.507 34.9C164.507 35.3 164.48 35.66 164.427 35.98H156.327C156.394 36.78 156.674 37.4067 157.167 37.86C157.66 38.3134 158.267 38.54 158.987 38.54C160.027 38.54 160.767 38.0934 161.207 37.2H164.227C163.907 38.2667 163.294 39.1467 162.387 39.84C161.48 40.52 160.367 40.86 159.047 40.86C157.98 40.86 157.02 40.6267 156.167 40.16C155.327 39.68 154.667 39.0067 154.187 38.14C153.72 37.2734 153.487 36.2734 153.487 35.14C153.487 33.9934 153.72 32.9867 154.187 32.12C154.654 31.2534 155.307 30.5867 156.147 30.12C156.987 29.6534 157.954 29.42 159.047 29.42C160.1 29.42 161.04 29.6467 161.867 30.1C162.707 30.5534 163.354 31.2 163.807 32.04C164.274 32.8667 164.507 33.82 164.507 34.9ZM161.607 34.1C161.594 33.38 161.334 32.8067 160.827 32.38C160.32 31.94 159.7 31.72 158.967 31.72C158.274 31.72 157.687 31.9334 157.207 32.36C156.74 32.7734 156.454 33.3534 156.347 34.1H161.607Z" fill="#4C97C7"></path><path d="M149.713 31.9001V37.2601C149.713 37.6334 149.8 37.9068 149.973 38.0801C150.16 38.2401 150.466 38.3201 150.893 38.3201H152.193V40.6801H150.433C148.073 40.6801 146.893 39.5334 146.893 37.2401V31.9001H145.573V29.6001H146.893V26.8601H149.713V29.6001H152.193V31.9001H149.713Z" fill="#4C97C7"></path><path d="M139.37 29.4401C140.69 29.4401 141.757 29.8601 142.57 30.7001C143.384 31.5267 143.79 32.6867 143.79 34.1801V40.6801H140.99V34.5601C140.99 33.6801 140.77 33.0067 140.33 32.5401C139.89 32.0601 139.29 31.8201 138.53 31.8201C137.757 31.8201 137.144 32.0601 136.69 32.5401C136.25 33.0067 136.03 33.6801 136.03 34.5601V40.6801H133.23V29.6001H136.03V30.9801C136.404 30.5001 136.877 30.1267 137.45 29.8601C138.037 29.5801 138.677 29.4401 139.37 29.4401Z" fill="#4C97C7"></path><path d="M130.464 26.7201V40.6801H127.664V26.7201H130.464Z" fill="#4C97C7"></path><path d="M120.132 25.88V40.68H117.332V25.88H120.132Z" fill="#4C97C7"></path><path d="M103.057 35.1C103.057 33.98 103.277 32.9867 103.717 32.12C104.171 31.2534 104.777 30.5867 105.537 30.12C106.311 29.6534 107.171 29.42 108.117 29.42C108.944 29.42 109.664 29.5867 110.277 29.92C110.904 30.2534 111.404 30.6734 111.777 31.18V29.6H114.597V40.68H111.777V39.06C111.417 39.58 110.917 40.0134 110.277 40.36C109.651 40.6934 108.924 40.86 108.097 40.86C107.164 40.86 106.311 40.62 105.537 40.14C104.777 39.66 104.171 38.9867 103.717 38.12C103.277 37.24 103.057 36.2334 103.057 35.1ZM111.777 35.14C111.777 34.46 111.644 33.88 111.377 33.4C111.111 32.9067 110.751 32.5334 110.297 32.28C109.844 32.0134 109.357 31.88 108.837 31.88C108.317 31.88 107.837 32.0067 107.397 32.26C106.957 32.5134 106.597 32.8867 106.317 33.38C106.051 33.86 105.917 34.4334 105.917 35.1C105.917 35.7667 106.051 36.3534 106.317 36.86C106.597 37.3534 106.957 37.7334 107.397 38C107.851 38.2667 108.331 38.4 108.837 38.4C109.357 38.4 109.844 38.2734 110.297 38.02C110.751 37.7534 111.111 37.38 111.377 36.9C111.644 36.4067 111.777 35.82 111.777 35.14Z" fill="#4C97C7"></path><path d="M99.2834 31.9001V37.2601C99.2834 37.6334 99.3701 37.9068 99.5434 38.0801C99.7301 38.2401 100.037 38.3201 100.463 38.3201H101.763V40.6801H100.003C97.6434 40.6801 96.4634 39.5334 96.4634 37.2401V31.9001H95.1434V29.6001H96.4634V26.8601H99.2834V29.6001H101.763V31.9001H99.2834Z" fill="#4C97C7"></path><path d="M91.877 28.28C91.3836 28.28 90.9703 28.1267 90.637 27.82C90.317 27.5 90.157 27.1067 90.157 26.64C90.157 26.1733 90.317 25.7867 90.637 25.48C90.9703 25.16 91.3836 25 91.877 25C92.3703 25 92.777 25.16 93.097 25.48C93.4303 25.7867 93.597 26.1733 93.597 26.64C93.597 27.1067 93.4303 27.5 93.097 27.82C92.777 28.1267 92.3703 28.28 91.877 28.28ZM93.257 29.6V40.68H90.457V29.6H93.257Z" fill="#4C97C7"></path><path d="M81.2424 29.42C82.069 29.42 82.7957 29.5867 83.4224 29.92C84.049 30.24 84.5424 30.66 84.9024 31.18V29.6H87.7224V40.76C87.7224 41.7867 87.5157 42.7 87.1024 43.5C86.689 44.3134 86.069 44.9534 85.2424 45.42C84.4157 45.9 83.4157 46.14 82.2424 46.14C80.669 46.14 79.3757 45.7734 78.3624 45.04C77.3624 44.3067 76.7957 43.3067 76.6624 42.04H79.4424C79.589 42.5467 79.9024 42.9467 80.3824 43.24C80.8757 43.5467 81.469 43.7 82.1624 43.7C82.9757 43.7 83.6357 43.4534 84.1424 42.96C84.649 42.48 84.9024 41.7467 84.9024 40.76V39.04C84.5424 39.56 84.0424 39.9934 83.4024 40.34C82.7757 40.6867 82.0557 40.86 81.2424 40.86C80.309 40.86 79.4557 40.62 78.6824 40.14C77.909 39.66 77.2957 38.9867 76.8424 38.12C76.4024 37.24 76.1824 36.2334 76.1824 35.1C76.1824 33.98 76.4024 32.9867 76.8424 32.12C77.2957 31.2534 77.9024 30.5867 78.6624 30.12C79.4357 29.6534 80.2957 29.42 81.2424 29.42ZM84.9024 35.14C84.9024 34.46 84.769 33.88 84.5024 33.4C84.2357 32.9067 83.8757 32.5334 83.4224 32.28C82.969 32.0134 82.4824 31.88 81.9624 31.88C81.4424 31.88 80.9624 32.0067 80.5224 32.26C80.0824 32.5134 79.7224 32.8867 79.4424 33.38C79.1757 33.86 79.0424 34.4334 79.0424 35.1C79.0424 35.7667 79.1757 36.3534 79.4424 36.86C79.7224 37.3534 80.0824 37.7334 80.5224 38C80.9757 38.2667 81.4557 38.4 81.9624 38.4C82.4824 38.4 82.969 38.2734 83.4224 38.02C83.8757 37.7534 84.2357 37.38 84.5024 36.9C84.769 36.4067 84.9024 35.82 84.9024 35.14Z" fill="#4C97C7"></path><path d="M72.7559 28.28C72.2626 28.28 71.8492 28.1267 71.5159 27.82C71.1959 27.5 71.0359 27.1067 71.0359 26.64C71.0359 26.1733 71.1959 25.7867 71.5159 25.48C71.8492 25.16 72.2626 25 72.7559 25C73.2492 25 73.6559 25.16 73.9759 25.48C74.3092 25.7867 74.4759 26.1733 74.4759 26.64C74.4759 27.1067 74.3092 27.5 73.9759 27.82C73.6559 28.1267 73.2492 28.28 72.7559 28.28ZM74.1359 29.6V40.68H71.3359V29.6H74.1359Z" fill="#4C97C7"></path><path d="M61.88 26.7201C63.3467 26.7201 64.6333 27.0068 65.74 27.5801C66.86 28.1534 67.72 28.9734 68.32 30.0401C68.9333 31.0934 69.24 32.3201 69.24 33.7201C69.24 35.1201 68.9333 36.3468 68.32 37.4001C67.72 38.4401 66.86 39.2468 65.74 39.8201C64.6333 40.3934 63.3467 40.6801 61.88 40.6801H57V26.7201H61.88ZM61.78 38.3001C63.2467 38.3001 64.38 37.9001 65.18 37.1001C65.98 36.3001 66.38 35.1734 66.38 33.7201C66.38 32.2668 65.98 31.1334 65.18 30.3201C64.38 29.4934 63.2467 29.0801 61.78 29.0801H59.8V38.3001H61.78Z" fill="#4C97C7"></path></svg>