<svg width="258" height="70" viewBox="0 0 258 70" fill="none" xmlns="http://www.w3.org/2000/svg">
<path d="M12 31.0074C12 26.6053 19.1784 23.0195 28.004 23.0195C36.8297 23.0195 43.8443 26.5247 44 30.861V39.049C43.8429 34.7113 36.7263 31.2074 28.004 31.2074C19.2818 31.2074 12 34.7919 12 39.1953V31.0074Z" fill="#4C97C7"/>
<path d="M42.4011 34.0509C42.6629 33.7462 42.8857 33.4293 43.0683 33.1018V41.2897C42.8857 41.6133 42.6642 41.9301 42.4011 42.2389V34.0509Z" fill="#4C97C7"/>
<path d="M40.2235 35.8727C40.6357 35.615 41.0143 35.3451 41.3593 35.0659V43.2498C41.0129 43.5304 40.6343 43.8029 40.2235 44.0566V35.8687" fill="#4C97C7"/>
<path d="M37.1639 37.3307C37.6956 37.1387 38.2057 36.9266 38.6823 36.7051V44.889C38.2017 45.1145 37.6956 45.3213 37.1639 45.5146V37.3267" fill="#4C97C7"/>
<path d="M33.4049 38.3333C34.0346 38.2165 34.6427 38.0823 35.2294 37.9292V46.1132C34.6427 46.2662 34.0305 46.4045 33.4049 46.5172V38.3293" fill="#4C97C7"/>
<path d="M24.6678 38.6356C25.3337 38.7081 26.0157 38.7591 26.7071 38.7886V46.9726C26.0116 46.943 25.331 46.892 24.6678 46.8195V38.6316" fill="#4C97C7"/>
<path d="M29.1223 38.7927C29.8177 38.7672 30.5024 38.7202 31.1697 38.6504V46.8383C30.5038 46.9068 29.8191 46.9551 29.1223 46.9806V38.7927Z" fill="#4C97C7"/>
<path d="M20.6283 37.8905C21.2109 38.0462 21.8191 38.1845 22.446 38.3053V46.4893C21.8191 46.3698 21.215 46.2315 20.6283 46.0744V37.8865" fill="#4C97C7"/>
<path d="M17.2009 36.6473C17.6775 36.8729 18.1809 37.0877 18.7085 37.2837V45.4676C18.1809 45.2716 17.6748 45.0608 17.2009 44.8313V36.6433" fill="#4C97C7"/>
<path d="M14.5602 34.9919C14.8985 35.2752 15.2744 35.5477 15.6785 35.8068V43.9948C15.2744 43.737 14.8985 43.4645 14.5602 43.1799V34.9919Z" fill="#4C97C7"/>
<path d="M12.8914 33.0225C13.066 33.35 13.2808 33.6655 13.5358 33.9757V42.1636C13.2808 41.8548 13.066 41.538 12.8914 41.2104V33.0225Z" fill="#4C97C7"/>
<path d="M244.094 41.16C242.481 41.16 241.167 40.64 240.154 39.6C239.141 38.5467 238.634 37.16 238.634 35.44C238.634 33.72 239.141 32.3467 240.154 31.32C241.181 30.28 242.501 29.76 244.114 29.76C245.741 29.76 247.074 30.2667 248.114 31.28C249.154 32.28 249.674 33.62 249.674 35.3C249.674 35.6867 249.647 36.0467 249.594 36.38H241.514C241.581 37.1 241.847 37.68 242.314 38.12C242.781 38.56 243.374 38.78 244.094 38.78C245.067 38.78 245.787 38.38 246.254 37.58H249.294C248.974 38.6333 248.354 39.4933 247.434 40.16C246.514 40.8267 245.401 41.16 244.094 41.16ZM246.754 34.56C246.714 33.8267 246.441 33.24 245.934 32.8C245.441 32.36 244.841 32.14 244.134 32.14C243.427 32.14 242.834 32.36 242.354 32.8C241.887 33.24 241.607 33.8267 241.514 34.56H246.754Z" fill="#4C97C7"/>
<path d="M228.162 39.6C227.149 38.56 226.642 37.18 226.642 35.46C226.642 33.74 227.149 32.36 228.162 31.32C229.175 30.28 230.489 29.76 232.102 29.76C233.449 29.76 234.575 30.0867 235.482 30.74C236.389 31.3933 236.995 32.32 237.302 33.52H234.262C233.902 32.6 233.182 32.14 232.102 32.14C231.289 32.14 230.649 32.44 230.182 33.04C229.729 33.6267 229.502 34.4333 229.502 35.46C229.502 36.4867 229.729 37.3 230.182 37.9C230.649 38.4867 231.289 38.78 232.102 38.78C233.169 38.78 233.889 38.3133 234.262 37.38H237.302C236.982 38.54 236.362 39.46 235.442 40.14C234.535 40.82 233.422 41.16 232.102 41.16C230.489 41.16 229.175 40.64 228.162 39.6Z" fill="#4C97C7"/>
<path d="M216.785 29.92V31.58C217.492 30.3667 218.638 29.76 220.225 29.76C221.492 29.76 222.525 30.18 223.325 31.02C224.125 31.8467 224.525 33 224.525 34.48V41H221.725V34.88C221.725 34.0133 221.505 33.3533 221.065 32.9C220.625 32.4333 220.025 32.2 219.265 32.2C218.505 32.2 217.898 32.4333 217.445 32.9C217.005 33.3533 216.785 34.0133 216.785 34.88V41H213.965V29.92H216.785Z" fill="#4C97C7"/>
<path d="M206.164 41.16C204.551 41.16 203.238 40.64 202.224 39.6C201.211 38.5467 200.704 37.16 200.704 35.44C200.704 33.72 201.211 32.3467 202.224 31.32C203.251 30.28 204.571 29.76 206.184 29.76C207.811 29.76 209.144 30.2667 210.184 31.28C211.224 32.28 211.744 33.62 211.744 35.3C211.744 35.6867 211.718 36.0467 211.664 36.38H203.584C203.651 37.1 203.918 37.68 204.384 38.12C204.851 38.56 205.444 38.78 206.164 38.78C207.138 38.78 207.858 38.38 208.324 37.58H211.364C211.044 38.6333 210.424 39.4933 209.504 40.16C208.584 40.8267 207.471 41.16 206.164 41.16ZM208.824 34.56C208.784 33.8267 208.511 33.24 208.004 32.8C207.511 32.36 206.911 32.14 206.204 32.14C205.498 32.14 204.904 32.36 204.424 32.8C203.958 33.24 203.678 33.8267 203.584 34.56H208.824Z" fill="#4C97C7"/>
<path d="M188.454 39.56C187.467 38.48 186.974 37.1067 186.974 35.44C186.974 33.7733 187.467 32.4133 188.454 31.36C189.441 30.2933 190.694 29.76 192.214 29.76C193.734 29.76 194.894 30.3867 195.694 31.64V29.92H198.494V41.08C198.494 42.6667 198.027 43.96 197.094 44.96C196.161 45.9733 194.847 46.48 193.154 46.48C191.474 46.48 190.134 46.1267 189.134 45.42C188.147 44.7267 187.587 43.7333 187.454 42.44H190.214C190.387 42.9333 190.721 43.32 191.214 43.6C191.707 43.8933 192.327 44.04 193.074 44.04C193.821 44.04 194.441 43.7933 194.934 43.3C195.441 42.8067 195.694 42.0667 195.694 41.08V39.14C194.854 40.4867 193.687 41.16 192.194 41.16C190.701 41.16 189.454 40.6267 188.454 39.56ZM194.814 37.86C195.401 37.2733 195.694 36.4733 195.694 35.46C195.694 34.4467 195.401 33.6533 194.814 33.08C194.227 32.4933 193.541 32.2 192.754 32.2C191.967 32.2 191.281 32.4867 190.694 33.06C190.121 33.6333 189.834 34.4267 189.834 35.44C189.834 36.4533 190.127 37.2533 190.714 37.84C191.301 38.4267 191.981 38.72 192.754 38.72C193.541 38.72 194.227 38.4333 194.814 37.86Z" fill="#4C97C7"/>
<path d="M185.054 27.0999C185.054 27.5799 184.887 27.9866 184.554 28.3199C184.22 28.6532 183.814 28.8199 183.334 28.8199C182.867 28.8199 182.467 28.6532 182.134 28.3199C181.8 27.9866 181.634 27.5799 181.634 27.0999C181.634 26.6199 181.8 26.2132 182.134 25.8799C182.467 25.5466 182.867 25.3799 183.334 25.3799C183.814 25.3799 184.22 25.5466 184.554 25.8799C184.887 26.2132 185.054 26.6199 185.054 27.0999ZM181.934 40.9999V29.9199H184.754V40.9999H181.934Z" fill="#4C97C7"/>
<path d="M176.113 41V26.2H178.933V41H176.113Z" fill="#4C97C7"/>
<path d="M170.293 41V26.2H173.113V41H170.293Z" fill="#4C97C7"/>
<path d="M162.492 41.16C160.879 41.16 159.566 40.64 158.552 39.6C157.539 38.5467 157.032 37.16 157.032 35.44C157.032 33.72 157.539 32.3467 158.552 31.32C159.579 30.28 160.899 29.76 162.512 29.76C164.139 29.76 165.472 30.2667 166.512 31.28C167.552 32.28 168.072 33.62 168.072 35.3C168.072 35.6867 168.046 36.0467 167.992 36.38H159.912C159.979 37.1 160.246 37.68 160.712 38.12C161.179 38.56 161.772 38.78 162.492 38.78C163.466 38.78 164.186 38.38 164.652 37.58H167.692C167.372 38.6333 166.752 39.4933 165.832 40.16C164.912 40.8267 163.799 41.16 162.492 41.16ZM165.152 34.56C165.112 33.8267 164.839 33.24 164.332 32.8C163.839 32.36 163.239 32.14 162.532 32.14C161.826 32.14 161.232 32.36 160.752 32.8C160.286 33.24 160.006 33.8267 159.912 34.56H165.152Z" fill="#4C97C7"/>
<path d="M154.28 38.6399H155.62V40.9999H153.84C152.707 40.9999 151.834 40.7399 151.22 40.2199C150.607 39.6999 150.3 38.8399 150.3 37.6399V32.2199H149.12V29.9199H150.3V27.1799H153.12V29.9199H155.6V32.2199H153.12V37.6399C153.12 37.9999 153.207 38.2599 153.38 38.4199C153.554 38.5666 153.854 38.6399 154.28 38.6399Z" fill="#4C97C7"/>
<path d="M139.343 29.92V31.58C140.05 30.3667 141.197 29.76 142.783 29.76C144.05 29.76 145.083 30.18 145.883 31.02C146.683 31.8467 147.083 33 147.083 34.48V41H144.283V34.88C144.283 34.0133 144.063 33.3533 143.623 32.9C143.183 32.4333 142.583 32.2 141.823 32.2C141.063 32.2 140.457 32.4333 140.003 32.9C139.563 33.3533 139.343 34.0133 139.343 34.88V41H136.523V29.92H139.343Z" fill="#4C97C7"/>
<path d="M130.703 41V27.04H133.523V41H130.703Z" fill="#4C97C7"/>
<path d="M118.887 41V26.2H121.707V41H118.887Z" fill="#4C97C7"/>
<path d="M112.216 37.86C112.803 37.2733 113.096 36.4733 113.096 35.46C113.096 34.4467 112.803 33.6533 112.216 33.08C111.63 32.4933 110.943 32.2 110.156 32.2C109.37 32.2 108.683 32.4867 108.096 33.06C107.523 33.6333 107.236 34.4267 107.236 35.44C107.236 36.4533 107.53 37.2533 108.116 37.84C108.703 38.4267 109.383 38.72 110.156 38.72C110.943 38.72 111.63 38.4333 112.216 37.86ZM105.856 39.56C104.87 38.48 104.376 37.1067 104.376 35.44C104.376 33.7733 104.87 32.4133 105.856 31.36C106.843 30.2933 108.096 29.76 109.616 29.76C111.136 29.76 112.296 30.3867 113.096 31.64V29.92H115.896V41H113.096V39.14C112.256 40.4867 111.09 41.16 109.596 41.16C108.103 41.16 106.856 40.6267 105.856 39.56Z" fill="#4C97C7"/>
<path d="M101.624 38.6399H102.964V40.9999H101.184C100.051 40.9999 99.1774 40.7399 98.5641 40.2199C97.9508 39.6999 97.6441 38.8399 97.6441 37.6399V32.2199H96.4641V29.9199H97.6441V27.1799H100.464V29.9199H102.944V32.2199H100.464V37.6399C100.464 37.9999 100.551 38.2599 100.724 38.4199C100.897 38.5666 101.197 38.6399 101.624 38.6399Z" fill="#4C97C7"/>
<path d="M94.6239 27.0999C94.6239 27.5799 94.4572 27.9866 94.1239 28.3199C93.7905 28.6532 93.3839 28.8199 92.9039 28.8199C92.4372 28.8199 92.0372 28.6532 91.7039 28.3199C91.3705 27.9866 91.2039 27.5799 91.2039 27.0999C91.2039 26.6199 91.3705 26.2132 91.7039 25.8799C92.0372 25.5466 92.4372 25.3799 92.9039 25.3799C93.3839 25.3799 93.7905 25.5466 94.1239 25.8799C94.4572 26.2132 94.6239 26.6199 94.6239 27.0999ZM91.5039 40.9999V29.9199H94.3239V40.9999H91.5039Z" fill="#4C97C7"/>
<path d="M78.4734 39.56C77.4867 38.48 76.9934 37.1067 76.9934 35.44C76.9934 33.7733 77.4867 32.4133 78.4734 31.36C79.4601 30.2933 80.7134 29.76 82.2334 29.76C83.7534 29.76 84.9134 30.3867 85.7134 31.64V29.92H88.5134V41.08C88.5134 42.6667 88.0467 43.96 87.1134 44.96C86.1801 45.9733 84.8667 46.48 83.1734 46.48C81.4934 46.48 80.1534 46.1267 79.1534 45.42C78.1667 44.7267 77.6067 43.7333 77.4734 42.44H80.2334C80.4067 42.9333 80.7401 43.32 81.2334 43.6C81.7267 43.8933 82.3467 44.04 83.0934 44.04C83.8401 44.04 84.4601 43.7933 84.9534 43.3C85.4601 42.8067 85.7134 42.0667 85.7134 41.08V39.14C84.8734 40.4867 83.7067 41.16 82.2134 41.16C80.7201 41.16 79.4734 40.6267 78.4734 39.56ZM84.8334 37.86C85.4201 37.2733 85.7134 36.4733 85.7134 35.46C85.7134 34.4467 85.4201 33.6533 84.8334 33.08C84.2467 32.4933 83.5601 32.2 82.7734 32.2C81.9867 32.2 81.3001 32.4867 80.7134 33.06C80.1401 33.6333 79.8534 34.4267 79.8534 35.44C79.8534 36.4533 80.1467 37.2533 80.7334 37.84C81.3201 38.4267 82.0001 38.72 82.7734 38.72C83.5601 38.72 84.2467 38.4333 84.8334 37.86Z" fill="#4C97C7"/>
<path d="M75.0731 27.0999C75.0731 27.5799 74.9064 27.9866 74.5731 28.3199C74.2397 28.6532 73.8331 28.8199 73.3531 28.8199C72.8864 28.8199 72.4864 28.6532 72.1531 28.3199C71.8197 27.9866 71.6531 27.5799 71.6531 27.0999C71.6531 26.6199 71.8197 26.2132 72.1531 25.8799C72.4864 25.5466 72.8864 25.3799 73.3531 25.3799C73.8331 25.3799 74.2397 25.5466 74.5731 25.8799C74.9064 26.2132 75.0731 26.6199 75.0731 27.0999ZM71.9531 40.9999V29.9199H74.7731V40.9999H71.9531Z" fill="#4C97C7"/>
<path d="M60.32 38.86H62.24C63.7067 38.86 64.8467 38.4267 65.66 37.56C66.4733 36.6933 66.88 35.52 66.88 34.04C66.88 32.56 66.4733 31.3867 65.66 30.52C64.8467 29.6533 63.7067 29.22 62.24 29.22H60.32V38.86ZM62.24 27.04C64.48 27.04 66.2867 27.68 67.66 28.96C69.0467 30.24 69.74 31.9333 69.74 34.04C69.74 36.1467 69.0467 37.8333 67.66 39.1C66.2867 40.3667 64.48 41 62.24 41H57.5V27.04H62.24Z" fill="#4C97C7"/>
</svg>
