<svg xmlns:xlink="http://www.w3.org/1999/xlink" xmlns="http://www.w3.org/2000/svg" width="160" height="160" viewBox="0 0 160 160" fill="none">
    <rect width="160" height="160" fill="white"/>
    <g clip-path="url(#clip0_5154_21613)">
        <rect width="117.333" height="117.333" transform="translate(21.334 21.334)" fill="white"/>
        <path d="M21.334 138.133L138.667 138.133" stroke="#1F1F1F" stroke-width="0.782223" stroke-linecap="round"/>
        <g clip-path="url(#clip1_5154_21613)">
            <g opacity="0.2" filter="url(#filter0_f_5154_21613)">
                <path fill-rule="evenodd" clip-rule="evenodd" d="M76.1584 66.1579C83.478 66.2011 91.299 66.7542 96.4793 71.9407C101.662 77.13 102.702 84.9878 102.288 92.3206C101.9 99.1989 99.4902 106.002 94.301 110.516C89.406 114.773 82.611 114.467 76.1584 115.045C68.6594 115.718 60.5057 118.58 54.4519 114.091C47.911 109.24 45.2924 100.476 45.5128 92.3206C45.7278 84.3648 49.5549 76.8588 55.5976 71.6997C61.2154 66.9037 68.7813 66.1146 76.1584 66.1579Z" fill="#EC9FCA"/>
            </g>
            <g opacity="0.2" filter="url(#filter1_f_5154_21613)">
                <path fill-rule="evenodd" clip-rule="evenodd" d="M70.8653 75.0135C78.6908 75.0596 87.0525 75.6509 92.5904 81.1959C98.1323 86.7439 99.2439 95.1444 98.8014 102.984C98.3861 110.338 95.8099 117.612 90.2615 122.438C85.0287 126.989 77.7645 126.661 70.8653 127.281C62.848 128 54.1309 131.059 47.6584 126.259C40.6654 121.074 37.8659 111.704 38.1015 102.984C38.3314 94.4788 42.423 86.4537 48.8832 80.9382C54.8896 75.8107 62.9784 74.967 70.8653 75.0135Z" fill="#EC9FCA"/>
                <path fill-rule="evenodd" clip-rule="evenodd" d="M101.102 34.6971C108.927 34.7432 117.289 35.3345 122.827 40.8795C128.369 46.4275 129.48 54.828 129.038 62.6681C128.622 70.0219 126.046 77.2956 120.498 82.1216C115.265 86.6723 108.001 86.345 101.102 86.9643C93.0843 87.6832 84.3672 90.7426 77.8947 85.9428C70.9017 80.7573 68.1023 71.3877 68.3379 62.6681C68.5677 54.1624 72.6593 46.1373 79.1196 40.6217C85.1259 35.4943 93.2147 34.6506 101.102 34.6971Z" fill="#F29E77"/>
            </g>
            <path d="M72.0295 50.1367C71.8377 50.1391 71.6537 50.2141 71.5151 50.3476C71.3767 50.4801 71.293 50.6611 71.2828 50.8526L71.2459 51.8245H59.1757L58.4648 68.7429H81.634L82.1686 55.9192L82.3507 51.8245L82.4236 50.1367H72.0295Z" fill="#A2C5FB" stroke="#0B2F3D" stroke-width="0.533333" stroke-linecap="round" stroke-linejoin="round"/>
            <path d="M81.6346 69.5744L81.5383 53.834H59.2676L59.4439 69.3794L81.6346 69.5744Z" fill="white" stroke="#0B2F3D" stroke-width="0.533333" stroke-linecap="round" stroke-linejoin="round"/>
            <path d="M81.6343 69.5744L80.6252 53.834H58.3555L58.5315 69.3794L81.6343 69.5744Z" fill="white" stroke="#0B2F3D" stroke-width="0.533333" stroke-linecap="round" stroke-linejoin="round"/>
            <path d="M58.454 69.5843L55.3555 53.3594H78.6704L81.6231 69.5843H58.454Z" fill="#A2C5FB" stroke="#0B2F3D" stroke-width="0.533333" stroke-linecap="round" stroke-linejoin="round"/>
            <rect x="64.8047" y="29.2305" width="6.4811" height="7.40698" fill="white"/>
            <path d="M71.2147 28.9004C71.4579 28.9004 71.6912 28.9971 71.8633 29.1691C72.0353 29.3411 72.1319 29.5744 72.1319 29.8176V36.2382C72.1319 36.4814 72.0353 36.7147 71.8633 36.8867C71.6912 37.0587 71.4579 37.1554 71.2147 37.1554H64.7942C64.5509 37.1554 64.3176 37.0587 64.1456 36.8867C63.9736 36.7147 63.877 36.4814 63.877 36.2382V29.8176C63.877 29.5744 63.9736 29.3411 64.1456 29.1691C64.3176 28.9971 64.5509 28.9004 64.7942 28.9004H71.2147ZM70.9854 36.0088V33.5782C70.9854 33.1817 70.8279 32.8014 70.5475 32.521C70.2671 32.2407 69.8868 32.0831 69.4903 32.0831C69.1005 32.0831 68.6465 32.3216 68.4264 32.6793V32.1703H67.1468V36.0088H68.4264V33.7479C68.4264 33.3947 68.7107 33.1058 69.0638 33.1058C69.2341 33.1058 69.3974 33.1735 69.5178 33.2939C69.6382 33.4143 69.7059 33.5776 69.7059 33.7479V36.0088H70.9854ZM65.6564 31.4503C65.8607 31.4503 66.0567 31.3691 66.2012 31.2246C66.3456 31.0801 66.4269 30.8841 66.4269 30.6798C66.4269 30.2533 66.0828 29.9048 65.6564 29.9048C65.4508 29.9048 65.2537 29.9864 65.1083 30.1318C64.963 30.2771 64.8813 30.4742 64.8813 30.6798C64.8813 31.1063 65.2299 31.4503 65.6564 31.4503ZM66.2939 36.0088V32.1703H65.0235V36.0088H66.2939Z" fill="#0A66C2"/>
            <mask id="mask0_5154_21613" style="mask-type:alpha" maskUnits="userSpaceOnUse" x="72" y="54" width="68" height="85">
                <path d="M139.214 54.0293H72.0254V138.133H139.214V54.0293Z" fill="#D9D9D9"/>
            </mask>
            <g mask="url(#mask0_5154_21613)">
                <path d="M102.783 120.473C102.783 120.473 102.288 125.163 102.288 135.449C102.264 143.263 102.709 151.07 103.625 158.83C104.189 163.098 104.321 163.168 104.398 163.729C104.475 164.288 107.078 180.171 107.078 181.154V182.481C107.078 182.481 105.686 183.864 106.159 185.144C106.632 186.423 107.503 188.991 107.287 189.059C107.071 189.13 106.306 189.481 106.306 190.11V190.741C107.224 191.754 108.466 192.42 109.821 192.629C112.285 193.121 113.066 193.473 113.698 192.56C114.505 191.49 115.103 190.279 115.46 188.991C115.738 187.662 116.093 187.033 115.245 185.706C114.395 184.377 114.116 183.81 114.116 183.111C114.116 182.411 115.104 170.797 114.471 166.806C113.838 162.815 113.274 160.213 113.274 158.139C113.274 156.063 113.907 137.98 113.907 137.98C113.907 137.98 117.5 160.304 117.924 165.131C118.348 169.96 119.686 182.211 119.539 182.979C119.393 183.747 118.342 184.936 118.842 186.195C119.361 187.285 119.996 188.314 120.737 189.266C120.587 189.392 120.485 189.563 120.448 189.753C120.409 189.941 120.437 190.139 120.527 190.312C120.813 191.004 121.377 192.2 121.656 192.277C121.934 192.352 127.642 191.432 127.642 191.432C127.642 191.432 129.682 187.932 129.035 186.112C128.387 184.293 127.768 183.456 127.768 183.249C128.117 181.375 128.349 179.479 128.464 177.576C128.533 175.059 126.215 150.218 126.215 150.218C126.215 150.218 125.227 127.75 125.227 127.542C125.227 127.334 125.018 123.758 125.018 123.758C125.018 123.758 117.548 128.663 111.144 126.56C104.739 124.458 102.783 120.473 102.783 120.473Z" fill="#1F1F1F" stroke="#0B2F3D" stroke-width="0.533333" stroke-linecap="round" stroke-linejoin="round"/>
                <path d="M113.902 137.967L113.059 135.309" stroke="#0B2F3D" stroke-width="0.533333" stroke-linecap="round" stroke-linejoin="round"/>
                <path d="M114.113 136.012L111.082 134.191" stroke="#0B2F3D" stroke-width="0.533333" stroke-linecap="round" stroke-linejoin="round"/>
                <path d="M113.437 82.2291C113.437 82.2291 108.307 81.4887 107.492 82.0286C106.678 82.5679 103.782 87.0576 102.362 88.9458C100.942 90.8345 91.4189 98.8171 91.4189 98.8171L83.0998 82.9074C83.3711 81.7136 83.5506 80.502 83.6353 79.2821C83.6353 78.0788 83.0295 77.3379 83.0295 76.1972C83.0295 75.0548 83.5729 73.3749 83.3015 72.974C83.0295 72.5725 82.2851 73.0426 81.812 73.845C81.3377 74.648 81.408 76.8678 81.408 76.8678C81.408 76.8678 77.1749 71.6798 76.8134 71.0295C76.7156 70.8495 76.006 70.8912 76.006 71.4306C76.006 71.9706 78.6367 76.8678 78.6367 76.8678C78.6367 76.8678 78.3654 77.2692 78.1012 77.2692C77.8364 77.2692 74.1118 72.8416 73.9239 72.773C73.736 72.7032 73.1164 72.8416 73.4508 73.5747C73.7852 74.3085 76.6255 78.0788 76.6255 78.0788C76.0792 78.0925 75.5359 78.1593 75.0028 78.2792C74.9259 78.3287 74.8617 78.3956 74.8148 78.4749C74.768 78.5536 74.7404 78.6419 74.7344 78.7344C74.7278 78.8257 74.7434 78.917 74.7794 79.0011C74.8148 79.0852 74.8707 79.1604 74.9409 79.22C75.1781 79.4407 75.4506 79.6203 75.7478 79.7527C75.7478 79.7527 75.8174 80.1608 75.8811 80.8319C75.8451 81.2388 75.9129 81.6486 76.0786 82.0239C76.2437 82.3985 76.5013 82.726 76.8272 82.976C77.5159 83.6119 78.3191 84.1136 79.1938 84.456C79.5282 84.5181 86.7686 105.624 87.917 107.505C89.0655 109.387 89.6088 109.45 90.8888 109.11C92.17 108.771 104.792 99.3361 104.792 99.3361C104.792 99.3361 104.255 116.588 103.642 117.799C103.03 119.009 102.362 119.009 102.362 119.812C102.396 120.51 102.487 121.204 102.633 121.887C102.633 121.887 106.009 127.524 112.901 127.725C119.794 127.926 126.073 125.173 126.073 123.9C126.023 123.098 125.864 122.307 125.6 121.548C125.6 121.285 126.414 120.005 126.295 119.203C126.177 118.4 125.69 118.193 125.822 116.989C125.954 115.786 131.766 98.5266 132.038 93.2213C132.31 87.9155 132.373 87.514 131.092 86.5798C129.811 85.6468 125.077 84.8301 125.077 84.8301L117.106 82.8173L113.932 82.547L113.437 82.2291Z" fill="#C1C1C1" stroke="#0B2F3D" stroke-width="0.533333" stroke-linecap="round" stroke-linejoin="round"/>
                <path d="M132.015 93.2327C132.287 87.9346 132.35 87.5265 131.068 86.5929C129.788 85.6587 125.054 84.842 125.054 84.842L117.083 82.8292L113.909 82.5602L113.436 82.2279C113.436 82.2279 108.305 81.4875 107.491 82.0268C106.676 82.5673 103.78 87.0564 102.36 88.9446C100.94 90.8333 91.416 98.8153 91.416 98.8153L88.6316 93.1921L83.543 96.5674C85.631 102.046 87.4549 106.743 87.901 107.476C89.0494 109.351 89.5922 109.42 90.8733 109.081C92.1545 108.743 104.789 99.3343 104.789 99.3343C104.789 99.3343 104.253 116.587 103.641 117.798C103.028 119.008 102.36 119.008 102.36 119.81C102.394 120.508 102.485 121.202 102.631 121.886C102.631 121.886 106.008 127.523 112.899 127.724C119.791 127.925 126.071 125.171 126.071 123.898C126.021 123.097 125.862 122.306 125.597 121.547C125.597 121.284 126.411 120.004 126.293 119.201C126.174 118.4 125.687 118.192 125.821 116.988C125.953 115.785 131.744 98.5391 132.015 93.2327Z" fill="#ABCFE5" stroke="#0B2F3D" stroke-width="0.533333" stroke-linecap="round" stroke-linejoin="round"/>
                <path d="M104.823 91.4102L104.787 99.345" stroke="#0B2F3D" stroke-width="0.533333" stroke-linecap="round" stroke-linejoin="round"/>
                <path d="M81.3984 76.8301C81.363 77.3067 81.2183 77.7685 80.974 78.1795C80.5633 78.8715 80.0482 79.1131 79.9792 80.3235C79.9528 80.6624 80.0068 81.0024 80.1353 81.3174C80.2656 81.6312 80.4667 81.9122 80.723 82.1365" stroke="#0B2F3D" stroke-width="0.533333" stroke-linecap="round" stroke-linejoin="round"/>
                <path d="M77.0795 78.7828C77.0795 78.7828 74.3785 76.9084 73.8352 77.2407C73.6875 77.3427 73.5626 77.4763 73.4713 77.6302C73.3795 77.7847 73.3218 77.9565 73.302 78.1355C73.2828 78.3133 73.3026 78.494 73.3603 78.6646C73.4167 78.8347 73.5104 78.991 73.6334 79.1222C74.2464 79.6615 76.8772 80.063 77.3502 79.8136C77.8245 79.5649 77.5111 79.0596 77.0795 78.7828Z" fill="#C1C1C1" stroke="#0B2F3D" stroke-width="0.533333" stroke-linecap="round" stroke-linejoin="round"/>
                <path d="M77.9192 80.8582C77.9192 80.8582 76.0305 80.4567 75.5712 80.3803C75.1101 80.3046 74.8388 80.5605 74.8742 81.0383C74.9084 81.5156 75.3755 81.8139 76.1073 81.8413C76.8392 81.8694 78.4625 82.139 78.5328 81.4398C78.5532 81.3569 78.5514 81.2698 78.528 81.1875C78.5033 81.1052 78.4583 81.0312 78.3959 80.9721C78.3334 80.9125 78.2566 80.8719 78.1737 80.851C78.0891 80.8307 78.0014 80.8337 77.9192 80.8582Z" fill="#C1C1C1" stroke="#0B2F3D" stroke-width="0.533333" stroke-linecap="round" stroke-linejoin="round"/>
                <path d="M117.107 78.3223C117.107 78.3223 120.873 78.2048 122.154 77.5957" stroke="#0B2F3D" stroke-width="0.433409" stroke-linecap="round" stroke-linejoin="round"/>
                <path d="M125.802 90.3493C125.802 90.3493 118.144 98.1177 115.659 101.058C113.934 103.049 112.051 104.9 110.027 106.591L93.006 95.3514C92.366 94.4029 91.7777 93.4216 91.2452 92.4104C90.7505 91.3592 89.9778 91.083 89.3444 89.4705C88.711 87.8598 88.0705 86.8146 87.583 87.9356C87.0955 89.0559 87.2978 89.4019 87.583 89.9621C87.8687 90.5229 88.8497 92.2034 88.8497 92.2034C88.8497 92.2034 84.6244 90.5229 83.1415 89.8929C81.6587 89.2629 80.1127 89.0559 80.0437 89.6167C79.9741 90.1769 80.2592 90.1011 80.9628 90.3845C81.6659 90.6678 86.0311 93.0404 86.0311 93.0404L85.606 93.2551C85.606 93.2551 79.8348 92.2034 79.271 92.1342C78.7073 92.0656 78.846 92.8262 79.271 93.0404C79.6955 93.2551 81.8748 94.2991 81.8748 94.2991C81.8748 94.2991 81.3807 94.7215 81.9444 95.4892C82.4817 96.1228 83.0971 96.6871 83.7749 97.1698C83.8968 97.6792 84.1681 98.1416 84.5554 98.4983C85.1185 98.9207 88.7801 98.8515 90.3254 98.9899C91.1005 99.0245 91.8629 99.1915 92.5809 99.4808C92.5809 99.4808 110.521 114.699 111.718 114.699C112.916 114.699 129.603 99.0239 131.433 96.714C133.264 94.4029 134.601 90.3493 133.481 88.4605C132.359 86.573 130.591 86.1507 129.463 86.5659" fill="#C1C1C1"/>
                <path d="M125.802 90.3493C125.802 90.3493 118.144 98.1177 115.659 101.058C113.934 103.049 112.051 104.9 110.027 106.591L93.006 95.3514C92.366 94.4029 91.7777 93.4216 91.2452 92.4104C90.7505 91.3592 89.9778 91.083 89.3444 89.4705C88.711 87.8598 88.0705 86.8146 87.583 87.9356C87.0955 89.0559 87.2978 89.4019 87.583 89.9621C87.8687 90.5229 88.8497 92.2034 88.8497 92.2034C88.8497 92.2034 84.6244 90.5229 83.1415 89.8929C81.6587 89.2629 80.1127 89.0559 80.0437 89.6167C79.9741 90.1769 80.2592 90.1011 80.9628 90.3845C81.6659 90.6678 86.0311 93.0404 86.0311 93.0404L85.606 93.2551C85.606 93.2551 79.8348 92.2034 79.271 92.1342C78.7073 92.0656 78.846 92.8262 79.271 93.0404C79.6955 93.2551 81.8748 94.2991 81.8748 94.2991C81.8748 94.2991 81.3807 94.7215 81.9444 95.4892C82.4817 96.1228 83.0971 96.6871 83.7749 97.1698C83.8968 97.6792 84.1681 98.1416 84.5554 98.4983C85.1185 98.9207 88.7801 98.8515 90.3254 98.9899C91.1005 99.0245 91.8629 99.1915 92.5809 99.4808C92.5809 99.4808 110.521 114.699 111.718 114.699C112.916 114.699 129.603 99.0239 131.433 96.714C133.264 94.4029 134.601 90.3493 133.481 88.4605C132.359 86.573 130.591 86.1507 129.463 86.5659" stroke="#0B2F3D" stroke-width="0.533333" stroke-linecap="round" stroke-linejoin="round"/>
                <path d="M81.877 94.2578C81.877 94.2578 84.1343 95.0339 84.8385 95.2421L81.877 94.2578Z" fill="white"/>
                <path d="M81.877 94.2578C81.877 94.2578 84.1343 95.0339 84.8385 95.2421" stroke="#0B2F3D" stroke-width="0.533333" stroke-linecap="round" stroke-linejoin="round"/>
                <path d="M83.7734 97.125L85.2581 97.3326" stroke="#0B2F3D" stroke-width="0.533333" stroke-linecap="round" stroke-linejoin="round"/>
                <path d="M125.804 90.3519C125.804 90.3519 118.146 98.1204 115.662 101.061C113.936 103.053 112.053 104.903 110.03 106.594L105.484 103.627L102.908 108.435C107.398 111.845 111.262 114.66 111.729 114.66C112.919 114.66 129.612 98.9854 131.443 96.6749C133.274 94.365 134.611 90.3114 133.489 88.4227C132.368 86.5339 130.601 86.1116 129.473 86.5268L128.45 87.1711" fill="#ABCFE5"/>
                <path d="M125.804 90.3519C125.804 90.3519 118.146 98.1204 115.662 101.061C113.936 103.053 112.053 104.903 110.03 106.594L105.484 103.627L102.908 108.435C107.398 111.845 111.262 114.66 111.729 114.66C112.919 114.66 129.612 98.9854 131.443 96.6749C133.274 94.365 134.611 90.3114 133.489 88.4227C132.368 86.5339 130.601 86.1116 129.473 86.5268L128.45 87.1711" stroke="#0B2F3D" stroke-width="0.533333" stroke-linecap="round" stroke-linejoin="round"/>
                <path d="M125.054 84.8502L117.084 82.8374L114.549 82.6161L113.436 82.2355C113.436 82.2355 112.858 82.1532 112.044 82.0625L111.842 97.4538L127.763 85.417C126.37 85.0722 125.054 84.8502 125.054 84.8502Z" fill="white" stroke="#0B2F3D" stroke-width="0.533333" stroke-linecap="round" stroke-linejoin="round"/>
                <path d="M123.062 60.2039C121.396 60.1592 119.779 60.7655 118.557 61.8918C116.733 63.7596 116.615 64.9697 115.883 65.6336C115.153 66.2982 113.754 66.2354 112.786 68.2906C111.818 70.3448 111.081 74.6337 111.262 76.0243C111.443 77.4149 112.654 77.8366 113.816 78.0168C114.979 78.1964 117.102 78.321 117.102 78.321C117.102 78.321 116.789 82.8585 116.49 82.7887C116.19 82.7201 114.548 82.6091 114.548 82.6091C114.548 82.6091 114.241 89.679 114.185 91.4287L114.123 93.1862L125.227 84.8092L123.062 83.9096C123.121 82.5167 123.355 81.1368 123.757 79.8011C124.093 78.7404 124.518 77.7108 125.031 76.7222C125.031 76.7222 128.512 75.5745 130.384 72.9806C131.895 70.9049 131.847 67.9092 131.026 65.5714C130.556 64.2054 129.72 62.9925 128.609 62.0626C127.499 61.1331 126.153 60.5215 124.718 60.2937C124.17 60.2087 123.615 60.1788 123.062 60.2039Z" fill="#C1C1C1" stroke="#0B2F3D" stroke-width="0.533333" stroke-linecap="round" stroke-linejoin="round"/>
                <path d="M116.978 67.0879C116.381 67.7477 115.709 68.3347 114.973 68.8381C113.999 69.4399 114.73 70.5889 115.948 71.0101C117.166 71.4323 117.527 70.8929 117.527 70.8929" stroke="#0B2F3D" stroke-width="0.533333" stroke-linecap="round" stroke-linejoin="round"/>
                <path d="M117.716 73.0156C117.716 73.0156 115.222 72.6481 114.064 71.5605C114.144 71.8965 114.308 72.2061 114.543 72.4608C114.778 72.7156 115.073 72.9059 115.402 73.0156C116.164 73.185 116.955 73.185 117.716 73.0156Z" stroke="#0B2F3D" stroke-width="0.537551" stroke-linecap="round" stroke-linejoin="round"/>
                <path d="M121.236 65.5176C121.662 65.6502 122.039 65.9041 122.319 66.2478C122.602 66.5913 122.774 67.0095 122.818 67.45" stroke="#0B2F3D" stroke-width="0.533333" stroke-linecap="round" stroke-linejoin="round"/>
                <path d="M119.171 64.5556C118.868 64.3003 118.49 64.1504 118.094 64.1281C117.697 64.105 117.305 64.2118 116.975 64.4307" stroke="#0B2F3D" stroke-width="0.533333" stroke-linecap="round" stroke-linejoin="round"/>
                <path d="M120.144 67.8796C119.886 68.2883 119.524 68.5232 119.342 68.4123C119.161 68.3023 119.217 67.8657 119.474 67.4569C119.733 67.0482 120.095 66.8134 120.283 66.9305C120.472 67.0482 120.409 67.4708 120.144 67.8796Z" fill="#0B2F3D"/>
                <path d="M116.681 66.1883C116.416 66.5973 116.06 66.8321 115.873 66.7143C115.684 66.5973 115.746 66.1744 116.012 65.7657C116.277 65.357 116.631 65.122 116.813 65.2322C116.994 65.3431 116.938 65.7727 116.681 66.1883Z" fill="#0B2F3D"/>
                <path d="M130.996 65.6091C130.525 64.2438 129.689 63.0302 128.578 62.1008C127.468 61.1709 126.123 60.5592 124.689 60.3313C124.152 60.2393 123.605 60.1998 123.059 60.2136C122.437 60.2193 121.818 60.2979 121.215 60.449C121.45 60.7995 121.744 61.106 122.085 61.3554C122.641 61.7636 124.215 61.5972 125.913 62.3237C127.612 63.0497 128.65 65.4643 127.558 66.9098C126.464 68.3561 125.336 66.5712 124.773 67.8989C124.521 68.5579 124.307 69.2297 124.131 69.9123C124.112 70.1438 124.128 70.3767 124.181 70.604C124.376 71.2957 124.834 71.6415 124.578 71.9879C124.32 72.3333 123.916 72.6793 123.916 73.1565C123.92 73.2812 123.972 73.4005 124.062 73.4882C125.093 73.0808 127.264 72.375 127.543 73.6618C127.904 75.3489 126.451 76.2002 125.294 76.3798C124.385 76.443 123.473 76.3207 122.614 76.0206C122.614 76.0206 123.038 77.0026 124.786 77.1965C124.912 76.9399 124.988 76.8021 124.988 76.8021C124.988 76.8021 128.47 75.6537 130.341 73.0599C131.866 70.9286 131.818 67.9479 130.996 65.6091Z" fill="#0B2F3D" stroke="#0B2F3D" stroke-width="0.433409" stroke-linecap="round" stroke-linejoin="round"/>
            </g>
            <path d="M60.3658 39.6275C58.2268 38.9702 56.6719 36.9789 56.6719 34.6244C56.6719 32.0494 58.5317 29.9088 60.9815 29.4727" stroke="#0B2F3D" stroke-width="0.533333" stroke-linecap="round"/>
            <path d="M74.8086 29.5273C77.1183 30.0712 78.8376 32.1455 78.8376 34.6213C78.8376 36.494 77.4951 38.8285 76.0162 39.7532" stroke="#0B2F3D" stroke-width="0.533333" stroke-linecap="round"/>
            <path d="M65.5488 25.9717C66.2056 24.0238 68.0475 22.6211 70.2169 22.6211C72.9369 22.6211 75.1421 24.8262 75.1421 27.5463C75.1421 28.1995 75.0149 28.8229 74.7841 29.3933" stroke="#0B2F3D" stroke-width="0.533333" stroke-linecap="round"/>
            <path d="M61.0479 29.3912C61.0074 29.1923 60.9863 28.9863 60.9863 28.7755C60.9863 27.0754 62.3645 25.6973 64.0644 25.6973C64.595 25.6973 65.0942 25.8314 65.5299 26.0677" stroke="#0B2F3D" stroke-width="0.533333" stroke-linecap="round"/>
            <path d="M60.3652 39.7559H75.764" stroke="#0B2F3D" stroke-width="0.533333" stroke-linecap="round"/>
            <path fill-rule="evenodd" clip-rule="evenodd" d="M71.109 45.6617C71.2175 45.7591 71.2273 45.9268 71.1309 46.0364L68.7755 48.7332C68.7256 48.7898 68.654 48.8223 68.5789 48.8223C68.5038 48.8223 68.4323 48.7898 68.3824 48.7332L66.0271 46.0364C65.9305 45.9268 65.9404 45.7591 66.049 45.6617C66.1576 45.5643 66.3238 45.5742 66.4203 45.6838L68.3159 47.8588L68.3159 43.0453C68.3159 42.8989 68.4337 42.78 68.5789 42.78C68.7243 42.78 68.842 42.8989 68.842 43.0453L68.842 47.8588L70.7377 45.6838C70.8342 45.5742 71.0004 45.5643 71.109 45.6617Z" fill="#0B2F3D"/>
        </g>
    </g>
    <defs>
        <filter id="filter0_f_5154_21613" x="25.1031" y="45.7594" width="97.6649" height="91.202" filterUnits="userSpaceOnUse" color-interpolation-filters="sRGB">
            <feFlood flood-opacity="0" result="BackgroundImageFix"/>
            <feBlend mode="normal" in="SourceGraphic" in2="BackgroundImageFix" result="shape"/>
            <feGaussianBlur stdDeviation="10.1984" result="effect1_foregroundBlur_5154_21613"/>
        </filter>
        <filter id="filter1_f_5154_21613" x="16.2811" y="12.8885" width="134.651" height="137.823" filterUnits="userSpaceOnUse" color-interpolation-filters="sRGB">
            <feFlood flood-opacity="0" result="BackgroundImageFix"/>
            <feBlend mode="normal" in="SourceGraphic" in2="BackgroundImageFix" result="shape"/>
            <feGaussianBlur stdDeviation="10.9034" result="effect1_foregroundBlur_5154_21613"/>
        </filter>
        <clipPath id="clip0_5154_21613">
            <rect width="117.333" height="117.333" fill="white" transform="translate(21.334 21.334)"/>
        </clipPath>
        <clipPath id="clip1_5154_21613">
            <rect width="117.724" height="117.724" fill="white" transform="translate(20.9434 20.9434)"/>
        </clipPath>
    </defs>
</svg>