<svg xmlns:xlink="http://www.w3.org/1999/xlink" xmlns="http://www.w3.org/2000/svg" width="160" height="160" viewBox="0 0 160 160" fill="none">
  <g opacity="0.2" filter="url(#filter0_f_882_20871)">
    <path fill-rule="evenodd" clip-rule="evenodd" d="M76.1592 66.1586C83.4788 66.2018 91.2999 66.7549 96.4802 71.9415C101.663 77.1307 102.703 84.9885 102.289 92.3213C101.901 99.1997 99.4911 106.003 94.3018 110.517C89.4069 114.774 82.6119 114.468 76.1592 115.046C68.6602 115.719 60.5066 118.581 54.4527 114.092C47.9119 109.241 45.2932 100.477 45.5136 92.3213C45.7286 84.3656 49.5557 76.8595 55.5984 71.7004C61.2163 66.9044 68.7822 66.1153 76.1592 66.1586Z" fill="#EC9FCA"/>
  </g>
  <g opacity="0.2" filter="url(#filter1_f_882_20871)">
    <path fill-rule="evenodd" clip-rule="evenodd" d="M70.865 75.0137C78.6905 75.0598 87.0522 75.6511 92.5901 81.1961C98.132 86.7441 99.2436 95.1446 98.8011 102.985C98.3857 110.339 95.8096 117.612 90.2612 122.438C85.0284 126.989 77.7642 126.662 70.865 127.281C62.8477 128 54.1306 131.059 47.658 126.259C40.6651 121.074 37.8656 111.704 38.1012 102.985C38.3311 94.4791 42.4227 86.4539 48.8829 80.9384C54.8893 75.8109 62.9781 74.9673 70.865 75.0137Z" fill="#EC9FCA"/>
    <path fill-rule="evenodd" clip-rule="evenodd" d="M101.102 34.6976C108.928 34.7437 117.289 35.335 122.827 40.8799C128.369 46.4279 129.481 54.8284 129.038 62.6686C128.623 70.0224 126.047 77.2961 120.498 82.1221C115.266 86.6727 108.001 86.3455 101.102 86.9647C93.0849 87.6837 84.3677 90.7431 77.8952 85.9433C70.9023 80.7578 68.1028 71.3882 68.3384 62.6686C68.5682 54.1629 72.6599 46.1378 79.1201 40.6222C85.1264 35.4948 93.2153 34.6511 101.102 34.6976Z" fill="#F29E77"/>
  </g>
  <path d="M21.3333 138.133L138.667 138.133" stroke="#1D3C50" stroke-width="1.06667" stroke-linecap="round"/>
  <g clip-path="url(#clip0_882_20871)">
    <path d="M104.696 62.2191C104.696 62.2191 103.388 64.1915 103.369 65.1891C103.35 66.1871 103.473 67.3263 102.861 67.9151C102.249 68.5038 101.779 69.1456 102.031 69.4441C102.284 69.7422 102.769 70.3231 102.769 70.3231C102.769 70.3231 102.138 73.6835 102.956 74.2911C103.774 74.8988 106.232 74.2911 106.232 74.2911V76.4625C106.232 76.4625 109.726 75.3154 112.139 75.5295L112.566 70.8777C112.566 70.8777 107.326 60.8009 104.696 62.2191Z" fill="white"/>
    <path d="M83.1879 76.0714C83.1879 76.0714 83.5175 73.5789 82.3557 72.1416C82.3557 72.1416 83.7473 71.9044 83.5789 71.4002C83.4104 70.8954 81.2853 71.5565 81.2853 71.5565L81.8588 70.41C81.8588 70.41 83.8276 69.8685 83.5789 69.2451C83.3302 68.6222 80.7133 69.8428 80.7133 69.8428C80.7133 69.8428 82.0787 68.2187 81.9081 67.7947C81.6636 67.1871 79.8695 67.4605 78.9213 70.6104L78.4947 70.2694C78.4947 70.2694 78.3037 66.3312 77.8105 66.136C77.8105 66.136 77.3854 65.9177 77.2149 69.0745C77.2149 69.0745 76.6178 68.9895 76.8738 70.1838C77.2149 71.2081 78.0361 72.4276 79.0069 73.0851C79.9776 73.7426 80.3722 76.413 80.3722 76.413L83.1879 76.0714Z" fill="white"/>
    <path d="M113.968 56.3585L113.529 55.7698C113.529 55.7698 108.609 53.5755 108.731 52.8913C108.853 52.207 111.64 53.1512 112.171 52.7881C112.171 52.7881 111.663 46.3124 112.171 46.1022C112.68 45.8919 113.246 49.1412 113.246 49.1412C113.246 49.1412 113.961 45.8078 114.511 45.9034C115.061 45.999 114.832 49.3438 114.832 49.3438C114.832 49.3438 115.883 47.1993 116.292 47.3981C116.701 47.5969 116.09 50.2116 116.09 50.2116C116.09 50.2116 116.854 49.3133 117.16 49.5847C117.059 50.9353 116.689 52.252 116.071 53.457L117.133 55.2537L113.968 56.3585Z" fill="white"/>
    <path d="M83.7368 75.9807L80.3459 76.4545C80.3459 76.4545 82.8269 97.4796 83.5568 100.075C84.2872 102.671 84.9447 104.536 87.4367 104.662C89.9292 104.789 98.8093 97.3227 98.8093 97.3227L99.2222 107.644L98.645 111.926C98.645 111.926 109.505 117.633 120.549 112.667L120.3 107.644L124.28 84.6698L127.411 73.7595L117.307 54.6042L113.645 56.5156L120.106 73.951L118.297 79.7729L116.275 78.9622L114.039 76.1108C114.039 76.1108 110.247 74.142 105.449 76.8753L104.685 79.2681C104.685 79.2681 99.058 79.6926 89.5587 92.8619L83.7368 75.9807Z" fill="#8CBDDB"/>
    <path d="M104.695 62.4846C104.695 62.4846 103.51 64.22 103.369 65.1871C103.227 66.1547 103.648 67.2209 102.86 67.9131C102.073 68.6047 101.713 69.0596 102.031 69.4421C102.348 69.8241 102.768 70.3211 102.768 70.3211C102.768 70.3211 102.447 73.597 102.956 74.2891C103.464 74.9812 106.232 74.2891 106.232 74.2891V76.4605" stroke="#1D3C50" stroke-width="0.533333" stroke-linecap="round" stroke-linejoin="round"/>
    <path d="M106.232 70.1782C106.232 70.1782 107.341 67.3147 108.171 68.0068C109 68.6984 108.262 72.4834 106.232 71.6537" stroke="#1D3C50" stroke-width="0.533333" stroke-linecap="round" stroke-linejoin="round"/>
    <path d="M106.534 69.5127C106.534 69.5127 105.216 69.4057 106.049 66.3134C106.882 63.2206 105.078 63.6373 103.14 62.7583C101.202 61.8789 100.739 60.2658 101.156 59.2986C101.573 58.3315 102.265 57.8193 104.711 58.2818C104.711 58.2818 107.387 55.1893 109.971 58.6067C109.971 58.6067 115.789 58.515 117.357 61.2826C118.924 64.0502 116.848 71.1147 113.801 73.4692C110.755 75.8242 107.777 73.9394 107.158 71.7261C107.158 71.7261 109.234 70.6063 108.171 68.022C108.171 68.0067 107.203 67.6625 106.534 69.5127Z" fill="#1D3C50"/>
    <path d="M124.581 82.9261C124.581 82.9261 110.502 72.7153 98.2316 82.9261L99.2213 107.628L98.6441 111.909C98.6441 111.909 109.019 116.768 120.548 112.651L120.3 107.628L124.581 82.9261Z" stroke="#1D3C50" stroke-width="0.533333" stroke-linecap="round" stroke-linejoin="round"/>
    <path d="M116.461 79.2151L114.038 76.1266C114.038 76.1266 109.286 74.4826 105.448 76.8911L104.683 79.2839" stroke="#1D3C50" stroke-width="0.533333" stroke-linecap="round" stroke-linejoin="round"/>
    <path d="M98.2316 82.926L85.9722 97.0241" stroke="#1D3C50" stroke-width="0.533333" stroke-linecap="round" stroke-linejoin="round"/>
    <path d="M98.7982 97.0356C98.7982 97.0356 90.6753 104.593 87.4372 104.681C84.1996 104.769 83.6607 100.858 83.6607 100.858L80.3464 76.4692L83.7367 75.9954L89.5702 92.9028" stroke="#1D3C50" stroke-width="0.533333" stroke-linecap="round" stroke-linejoin="round"/>
    <path d="M80.4047 76.3911C80.4047 76.3911 79.9807 73.6347 78.8756 73.0077C77.771 72.3811 76.4597 69.9495 76.8806 69.25C77.3009 68.5506 78.5854 70.8253 79.7435 71.2608C80.9016 71.6969 81.8419 73.8373 82.0025 74.7666" stroke="#1D3C50" stroke-width="0.533333" stroke-linecap="round" stroke-linejoin="round"/>
    <path d="M77.2343 69.1527C77.2343 69.1527 77.2342 65.9686 77.8193 66.1176C78.4039 66.2666 78.4842 70.2992 78.4842 70.2992" stroke="#1D3C50" stroke-width="0.533333" stroke-linecap="round" stroke-linejoin="round"/>
    <path d="M78.913 70.7087C78.913 70.7087 79.2955 68.9236 80.3465 68.052C81.3976 67.1804 82.0551 67.6506 81.937 67.945C81.8184 68.2393 80.0254 70.6211 80.0674 71.4313" stroke="#1D3C50" stroke-width="0.533333" stroke-linecap="round" stroke-linejoin="round"/>
    <path d="M80.7312 69.8239C80.7312 69.8239 83.6178 68.501 83.6251 69.2923C83.633 70.0836 81.8667 70.3896 81.8667 70.3896L81.2932 71.5361C81.2932 71.5361 83.7248 70.7716 83.5868 71.3797C83.4493 71.9874 82.3636 72.1212 82.3636 72.1212C82.3636 72.1212 83.5448 73.2908 83.2121 75.9439" stroke="#1D3C50" stroke-width="0.533333" stroke-linecap="round" stroke-linejoin="round"/>
    <path d="M100.315 112.197L99.577 117.365C99.577 117.365 92.7838 137.744 91.7521 141.727C90.72 145.71 90.127 154.724 89.8405 158.857C89.554 162.989 87.1649 169.942 87.1649 169.942C87.1649 169.942 87.4588 172.748 92.4784 172.305C92.4784 172.305 94.5464 164.036 96.7597 159.162C98.973 154.288 99.2978 146.895 99.2978 146.895L110.078 127.109C110.078 127.109 112.283 138.631 113.767 142.908C115.296 147.32 125.72 171.797 124.99 170.08C124.99 170.08 126.465 170.967 129.577 168.75C129.577 168.75 127.364 161.368 126.776 157.381C126.187 153.394 123.082 144.238 123.082 144.238C123.082 144.238 122.345 126.964 121.171 121.647C121.171 121.647 121.936 115.79 120.303 111.654C113.833 113.767 106.89 113.956 100.315 112.197Z" fill="#1D3C50"/>
    <path d="M115.984 123.638L111.145 125.045L110.442 126.761" stroke="white" stroke-width="0.533333" stroke-linecap="round" stroke-linejoin="round"/>
    <path d="M116.764 54.7259C116.328 53.9308 116.072 53.4453 116.072 53.4453C116.072 53.4453 117.49 50.0164 117.135 49.5959C116.779 49.1754 115.957 50.3604 115.957 50.3604C115.957 50.3604 116.798 47.6348 116.267 47.4016C115.736 47.1685 114.787 49.6952 114.787 49.6952C114.787 49.6952 115.036 46.0446 114.485 45.8726C113.935 45.7005 113.274 49.3436 113.274 49.3436C113.274 49.3436 112.563 46.102 112.127 46.0714C111.691 46.0408 112.127 52.7572 112.127 52.7572C111.248 53.1892 108.663 52.1342 108.686 52.9866C108.709 53.8391 113.656 55.8001 113.656 55.8001C113.743 55.9124 113.818 56.0327 113.881 56.1594" stroke="#1D3C50" stroke-width="0.533333" stroke-linecap="round" stroke-linejoin="round"/>
    <path d="M124.582 82.925L127.411 73.7584L117.307 54.6145L113.645 56.5297L120.106 73.9647L118.297 79.7871" stroke="#1D3C50" stroke-width="0.533333" stroke-linecap="round" stroke-linejoin="round"/>
    <path d="M112.282 75.7266V73.0698" stroke="#1D3C50" stroke-width="0.533333" stroke-linecap="round" stroke-linejoin="round"/>
    <path d="M102.908 71.6588C103.399 71.7601 103.912 71.6714 104.349 71.4106" stroke="#1D3C50" stroke-width="0.533333" stroke-linecap="round" stroke-linejoin="round"/>
    <path d="M103.725 65.6528C103.725 65.6528 104.65 65.1139 105.158 66.0086" stroke="#1D3C50" stroke-width="0.533333" stroke-linecap="round" stroke-linejoin="round"/>
    <path d="M104.36 67.5733C104.36 67.8829 104.272 68.1353 104.131 68.1432C103.99 68.1505 103.859 67.906 103.844 67.6001C103.829 67.2941 103.932 67.0344 104.073 67.027C104.215 67.0192 104.345 67.2637 104.36 67.5733Z" fill="#1D3C50"/>
  </g>
  <path d="M65.5421 21.3439C64.7083 21.3453 63.9091 21.6775 63.32 22.2676C62.7309 22.8577 62.4 23.6575 62.4 24.4913V51.7635C62.4 52.5968 62.7311 53.396 63.3203 53.9853C63.9096 54.5746 64.7088 54.9056 65.5421 54.9056H98.5606C99.3944 54.9056 100.194 54.5747 100.784 53.9856C101.374 53.3965 101.707 52.5973 101.708 51.7635V24.4753C101.707 23.6415 101.374 22.8423 100.784 22.2532C100.194 21.6641 99.3944 21.3333 98.5606 21.3333L65.5421 21.3439Z" fill="white" stroke="#1D3C50" stroke-width="0.533333" stroke-linejoin="round"/>
  <path d="M85.5248 37.1867C86.3923 37.3716 87.0892 37.8054 87.6154 38.488C88.1417 39.1565 88.4048 39.9245 88.4048 40.792C88.4048 42.0436 87.9639 43.0391 87.0821 43.7787C86.2145 44.504 84.9985 44.8667 83.4341 44.8667H76.4581V29.8907H83.1994C84.7212 29.8907 85.9088 30.2391 86.7621 30.936C87.6297 31.6329 88.0634 32.5787 88.0634 33.7734C88.0634 34.6551 87.8288 35.3876 87.3594 35.9707C86.9043 36.5538 86.2928 36.9591 85.5248 37.1867ZM80.1061 35.9494H82.4954C83.0928 35.9494 83.5479 35.8214 83.8608 35.5654C84.1879 35.2951 84.3514 34.904 84.3514 34.392C84.3514 33.88 84.1879 33.4889 83.8608 33.2187C83.5479 32.9485 83.0928 32.8134 82.4954 32.8134H80.1061V35.9494ZM82.7941 41.9227C83.4057 41.9227 83.875 41.7876 84.2021 41.5174C84.5434 41.2329 84.7141 40.8276 84.7141 40.3014C84.7141 39.7751 84.5363 39.3627 84.1808 39.064C83.8394 38.7654 83.363 38.616 82.7514 38.616H80.1061V41.9227H82.7941Z" fill="#1D3C50"/>
  <path d="M35.6754 49.6108C34.8416 49.6122 34.0424 49.9444 33.4533 50.5345C32.8642 51.1246 32.5333 51.9243 32.5333 52.7582V80.0304C32.5333 80.8637 32.8644 81.6629 33.4536 82.2521C34.0429 82.8414 34.8421 83.1724 35.6754 83.1724H68.6939C69.5277 83.1724 70.3275 82.8416 70.9176 82.2525C71.5077 81.6634 71.8399 80.8642 71.8413 80.0304V52.7422C71.8399 51.9084 71.5077 51.1092 70.9176 50.5201C70.3275 49.931 69.5277 49.6001 68.6939 49.6001L35.6754 49.6108Z" fill="white" stroke="#1D3C50" stroke-width="0.533333" stroke-linejoin="round"/>
  <path d="M55.0474 70.488H49.4581L48.5621 73.1333H44.7434L50.1621 58.1573H54.3861L59.8047 73.1333H55.9434L55.0474 70.488ZM54.1087 67.672L52.2527 62.1893L50.4181 67.672H54.1087Z" fill="#1D3C50"/>
  <defs>
    <filter id="filter0_f_882_20871" x="25.104" y="45.7601" width="97.6639" height="91.2015" filterUnits="userSpaceOnUse" color-interpolation-filters="sRGB">
      <feFlood flood-opacity="0" result="BackgroundImageFix"/>
      <feBlend mode="normal" in="SourceGraphic" in2="BackgroundImageFix" result="shape"/>
      <feGaussianBlur stdDeviation="10.1984" result="effect1_foregroundBlur_882_20871"/>
    </filter>
    <filter id="filter1_f_882_20871" x="16.2808" y="12.889" width="134.652" height="137.822" filterUnits="userSpaceOnUse" color-interpolation-filters="sRGB">
      <feFlood flood-opacity="0" result="BackgroundImageFix"/>
      <feBlend mode="normal" in="SourceGraphic" in2="BackgroundImageFix" result="shape"/>
      <feGaussianBlur stdDeviation="10.9034" result="effect1_foregroundBlur_882_20871"/>
    </filter>
    <clipPath id="clip0_882_20871">
      <rect width="60.8" height="97.0667" fill="white" transform="translate(72 41.0667)"/>
    </clipPath>
  </defs>
</svg>