<svg xmlns:xlink="http://www.w3.org/1999/xlink" xmlns="http://www.w3.org/2000/svg" width="144" height="144" viewBox="0 0 144 144" fill="none">
<g id="Frame">
<g id="Group" opacity="0.2" filter="url(#filter0_f_576_9199)">
<path id="Vector" fill-rule="evenodd" clip-rule="evenodd" d="M67.3218 48.9239C76.2322 48.9765 85.7534 49.6498 92.0593 55.9637C98.3686 62.2808 99.635 71.8462 99.131 80.7732C98.6584 89.1465 95.7248 97.4287 89.4074 102.923C83.4488 108.105 75.1771 107.733 67.3218 108.437C58.193 109.256 48.2671 112.74 40.8975 107.275C32.935 101.37 29.7472 90.7014 30.0155 80.7732C30.2772 71.0878 34.9361 61.9503 42.2922 55.6701C49.1311 49.8318 58.3412 48.8712 67.3218 48.9239Z" fill="#EC9FCA"/>
</g>
<g id="Group_2" opacity="0.2" filter="url(#filter1_f_576_9199)">
<path id="Vector_2" fill-rule="evenodd" clip-rule="evenodd" d="M82.0908 34.1573C91.0013 34.2098 100.522 34.8831 106.828 41.1968C113.138 47.514 114.404 57.0794 113.9 66.0065C113.427 74.3797 110.494 82.662 104.176 88.1566C98.2179 93.3384 89.9463 92.9659 82.0908 93.6707C72.9621 94.4894 63.0362 97.9731 55.6664 92.508C47.7039 86.6036 44.5163 75.9346 44.7846 66.0065C45.0463 56.3211 49.7052 47.1836 57.0611 40.9034C63.9003 35.065 73.1102 34.1044 82.0908 34.1573Z" fill="#EC9FCA"/>
</g>
<path id="Vector_3" d="M48.6532 35.5059C48.5484 35.5072 48.4478 35.5482 48.3721 35.6212C48.2964 35.6936 48.2507 35.7925 48.2451 35.8972L48.2249 36.4284H41.6278L41.2393 45.6753H53.9027L54.1948 38.6664L54.2945 36.4284L54.3343 35.5059H48.6532Z" fill="#BBDDFF" stroke="#0B2F3D" stroke-width="0.461538" stroke-linecap="round" stroke-linejoin="round"/>
<path id="Vector_4" d="M53.9026 46.1304L53.85 37.5273H41.6777L41.7741 46.0238L53.9026 46.1304Z" fill="#FCFDFD" stroke="#0B2F3D" stroke-width="0.461538" stroke-linecap="round" stroke-linejoin="round"/>
<path id="Vector_5" d="M53.9031 46.1304L53.3514 37.5273H41.1797L41.2759 46.0238L53.9031 46.1304Z" fill="#FCFDFD" stroke="#0B2F3D" stroke-width="0.461538" stroke-linecap="round" stroke-linejoin="round"/>
<path id="Vector_6" d="M41.2326 46.1345L39.5391 37.2666H52.2821L53.8961 46.1345H41.2326Z" fill="#BBDDFF" stroke="#0B2F3D" stroke-width="0.461538" stroke-linecap="round" stroke-linejoin="round"/>
<path id="Vector_7" d="M48.8926 46.5254V48.7865" stroke="#0B2F3D" stroke-width="0.461538" stroke-linecap="round" stroke-linejoin="round"/>
<path id="Vector_8" d="M53.8037 49.9658V55.0857" stroke="#0B2F3D" stroke-width="0.461538" stroke-linecap="round" stroke-linejoin="round"/>
<path id="Vector_9" d="M43.4028 49.1094V55.8459" stroke="#0B2F3D" stroke-width="0.461538" stroke-linecap="round" stroke-linejoin="round"/>
<path id="Vector_10" d="M46.3469 44.1364C47.6045 44.1364 48.6242 43.117 48.6242 41.8592C48.6242 40.6015 47.6045 39.582 46.3469 39.582C45.089 39.582 44.0693 40.6015 44.0693 41.8592C44.0693 43.117 45.089 44.1364 46.3469 44.1364Z" fill="white"/>
<path id="Vector_11" fill-rule="evenodd" clip-rule="evenodd" d="M44.9583 42.8558C45.0729 42.753 45.2501 42.7613 45.3543 42.8748C45.3823 42.9053 45.4022 42.9403 45.4142 42.9773H47.3897C47.4032 42.927 47.4309 42.8804 47.4724 42.843C47.5868 42.7395 47.764 42.7478 47.8684 42.8614C47.9722 42.9749 47.9639 43.1508 47.8494 43.2542C47.7349 43.3571 47.5577 43.3488 47.4534 43.2352C47.4216 43.2006 47.3998 43.1596 47.3893 43.1167H45.4218C45.4104 43.1729 45.3815 43.2261 45.3357 43.2671C45.2211 43.3705 45.0438 43.3622 44.9397 43.2487C44.8355 43.1351 44.8438 42.9593 44.9583 42.8558Z" fill="#21366B"/>
<path id="Vector_12" fill-rule="evenodd" clip-rule="evenodd" d="M46.7884 40.7882H47.2573V42.609H46.7884V42.4165C46.6966 42.501 46.6048 42.5623 46.5124 42.5997C46.4206 42.6371 46.3204 42.6555 46.2129 42.6555C45.9714 42.6555 45.7625 42.5647 45.5862 42.3819C45.41 42.1996 45.3218 41.9729 45.3218 41.7015C45.3218 41.4205 45.4071 41.1902 45.5778 41.0106C45.7484 40.8312 45.9554 40.7412 46.1995 40.7412C46.3116 40.7412 46.4169 40.7619 46.5152 40.8029C46.6135 40.8445 46.7045 40.9063 46.7884 40.989V40.7882ZM46.295 41.1629C46.1498 41.1629 46.0292 41.2128 45.9334 41.3129C45.8374 41.4126 45.7894 41.5405 45.7894 41.697C45.7894 41.8544 45.8382 41.9836 45.9359 42.0851C46.0336 42.1867 46.1538 42.2374 46.2964 42.2374C46.4441 42.2374 46.566 42.1875 46.6629 42.0874C46.7603 41.9877 46.8087 41.8572 46.8087 41.6952C46.8087 41.5368 46.7603 41.4085 46.6629 41.3102C46.566 41.2123 46.4432 41.1629 46.295 41.1629ZM46.2891 39.9229C46.3577 39.9229 46.4159 39.9464 46.4644 39.9929C46.5124 40.04 46.5364 40.0963 46.5364 40.1618C46.5364 40.2289 46.5124 40.286 46.4644 40.3327C46.4159 40.3798 46.3577 40.4028 46.2891 40.4028C46.2212 40.4028 46.1635 40.3798 46.1152 40.3327C46.0673 40.286 46.043 40.2289 46.043 40.1618C46.043 40.0963 46.0673 40.04 46.1152 39.9929C46.1635 39.9464 46.2212 39.9229 46.2891 39.9229Z" fill="#21366B"/>
<path id="Vector_13" d="M16.1543 136.616H126.924" stroke="#0B2F3D" stroke-width="0.923077"/>
<path id="Vector_14" d="M36.9233 24.6925L39.6925 27.0002H54.0003L56.0772 24.9233L57.0002 22.6156L56.0772 19.3848L53.308 17.3079L53.5386 15.4618L52.3848 12.4618L49.3848 11.0771L45.9233 11.7695L44.5386 14.0772H42.231L40.6156 15.0002L40.1541 17.3079L36.9233 19.3848L36.231 22.1541L36.9233 24.6925Z" fill="white"/>
<path id="Vector_15" d="M39.691 26.8797C37.7036 26.269 36.2588 24.4188 36.2588 22.2311C36.2588 19.8385 37.9869 17.8496 40.2631 17.4443" stroke="#0B2F3D" stroke-width="0.692308" stroke-linecap="round"/>
<path id="Vector_16" d="M53.1089 17.499C55.255 18.0044 56.8525 19.9317 56.8525 22.2321C56.8525 23.9721 55.6051 26.1412 54.231 27.0004" stroke="#0B2F3D" stroke-width="0.692308" stroke-linecap="round"/>
<path id="Vector_17" d="M44.5059 14.1903C45.1162 12.3804 46.8276 11.0771 48.8433 11.0771C51.3706 11.0771 53.4196 13.126 53.4196 15.6534C53.4196 16.2603 53.3014 16.8395 53.0869 17.3695" stroke="#0B2F3D" stroke-width="0.692308" stroke-linecap="round"/>
<path id="Vector_18" d="M40.3204 17.3687C40.2828 17.1839 40.2632 16.9925 40.2632 16.7967C40.2632 15.217 41.5437 13.9365 43.1232 13.9365C43.6162 13.9365 44.08 14.0611 44.4849 14.2807" stroke="#0B2F3D" stroke-width="0.692308" stroke-linecap="round"/>
<path id="Vector_19" d="M39.6924 27.001H54.0002" stroke="#0B2F3D" stroke-width="0.692308" stroke-linecap="round"/>
<path id="Vector_20" fill-rule="evenodd" clip-rule="evenodd" d="M43.9473 21.1604C43.823 21.0488 43.8118 20.8566 43.9222 20.731L46.621 17.6412C46.6782 17.5763 46.7602 17.5391 46.8463 17.5391C46.9323 17.5391 47.0142 17.5763 47.0714 17.6412L49.77 20.731C49.8807 20.8566 49.8694 21.0488 49.745 21.1604C49.6206 21.272 49.4301 21.2606 49.3195 21.135L47.1476 18.643V24.1581C47.1476 24.326 47.0127 24.4621 46.8463 24.4621C46.6797 24.4621 46.5448 24.326 46.5448 24.1581V18.643L44.3728 21.135C44.2622 21.2606 44.0718 21.272 43.9473 21.1604Z" fill="#0B2F3D"/>
<g id="Mask group">
<mask id="mask0_576_9199" style="mask-type:alpha" maskUnits="userSpaceOnUse" x="60" y="34" width="65" height="103">
<g id="Group_3">
<path id="Vector_21" d="M124.154 34.1553H60V136.617H124.154V34.1553Z" fill="#D9D9D9"/>
</g>
</mask>
<g mask="url(#mask0_576_9199)">
<g id="Group_4">
<path id="Vector_22" d="M89.3676 98.0029C89.3676 98.0029 88.8954 102.51 88.8954 112.394C88.8723 119.902 89.2979 127.404 90.172 134.861C90.7102 138.962 90.8371 139.029 90.91 139.568C90.983 140.105 93.4692 155.367 93.4692 156.312V157.587C93.4692 157.587 92.1396 158.916 92.5914 160.146C93.0433 161.375 93.8745 163.843 93.6686 163.908C93.4623 163.976 92.7312 164.313 92.7312 164.918V165.524C93.6077 166.497 94.7939 167.138 96.0875 167.339C98.441 167.811 99.1859 168.15 99.7905 167.272C100.561 166.244 101.131 165.08 101.472 163.843C101.738 162.566 102.077 161.961 101.267 160.686C100.455 159.409 100.189 158.864 100.189 158.192C100.189 157.52 101.133 146.36 100.528 142.525C99.9235 138.69 99.3849 136.19 99.3849 134.197C99.3849 132.202 99.9899 114.826 99.9899 114.826C99.9899 114.826 103.42 136.277 103.825 140.916C104.23 145.556 105.507 157.328 105.367 158.066C105.228 158.804 104.224 159.946 104.702 161.156C105.197 162.203 105.803 163.192 106.511 164.107C106.368 164.228 106.271 164.392 106.235 164.575C106.198 164.756 106.225 164.946 106.311 165.112C106.583 165.777 107.122 166.926 107.388 167C107.654 167.073 113.104 166.188 113.104 166.188C113.104 166.188 115.052 162.825 114.434 161.076C113.816 159.329 113.224 158.524 113.224 158.325C113.557 156.524 113.779 154.703 113.889 152.874C113.955 150.455 111.742 126.586 111.742 126.586C111.742 126.586 110.798 104.996 110.798 104.796C110.798 104.596 110.598 101.16 110.598 101.16C110.598 101.16 103.466 105.873 97.3509 103.852C91.2358 101.832 89.3676 98.0029 89.3676 98.0029Z" fill="#0B2F3D" stroke="#0B2F3D" stroke-width="0.461538" stroke-linecap="round" stroke-linejoin="round"/>
<path id="Vector_23" d="M99.9841 114.813L99.1787 112.258" stroke="#0B2F3D" stroke-width="0.461538" stroke-linecap="round" stroke-linejoin="round"/>
<path id="Vector_24" d="M100.185 112.934L97.291 111.185" stroke="#0B2F3D" stroke-width="0.461538" stroke-linecap="round" stroke-linejoin="round"/>
<path id="Vector_25" d="M99.5389 61.2523C99.5389 61.2523 94.6402 60.5411 93.8624 61.0598C93.0853 61.5777 90.3196 65.8921 88.9637 67.7065C87.6081 69.5212 78.5149 77.192 78.5149 77.192L70.5714 61.904C70.8308 60.7571 71.002 59.5931 71.0828 58.4207C71.0828 57.2642 70.5044 56.5525 70.5044 55.4563C70.5044 54.3588 71.0232 52.7444 70.7643 52.3589C70.5044 51.9731 69.7937 52.4249 69.3419 53.1962C68.8891 53.9674 68.956 56.1007 68.956 56.1007C68.956 56.1007 64.9143 51.1155 64.5691 50.4906C64.4758 50.3176 63.7979 50.3577 63.7979 50.876C63.7979 51.3948 66.3104 56.1007 66.3104 56.1007C66.3104 56.1007 66.0511 56.4864 65.7986 56.4864C65.5461 56.4864 61.9896 52.2321 61.8104 52.166C61.6309 52.0991 61.0392 52.2321 61.3586 52.9363C61.6775 53.6416 64.3895 57.2642 64.3895 57.2642C63.8679 57.2776 63.3493 57.3417 62.8405 57.4571C62.7667 57.5047 62.7054 57.5688 62.6606 57.6449C62.6162 57.7207 62.5899 57.8056 62.584 57.8942C62.578 57.9818 62.5927 58.0696 62.6269 58.1503C62.6611 58.2316 62.7141 58.3036 62.781 58.3608C63.0077 58.5731 63.268 58.7457 63.5518 58.8727C63.5518 58.8727 63.6183 59.2649 63.6788 59.9098C63.6446 60.301 63.7093 60.6948 63.8675 61.0552C64.0254 61.4152 64.2709 61.73 64.5824 61.9701C65.2401 62.5811 66.0068 63.0634 66.8421 63.3925C67.1615 63.452 74.0745 83.7325 75.1711 85.5408C76.2677 87.3487 76.7864 87.4086 78.009 87.0823C79.2322 86.7569 91.2839 77.6904 91.2839 77.6904C91.2839 77.6904 90.7716 94.2684 90.1863 95.4311C89.6016 96.5946 88.9637 96.5946 88.9637 97.3658C88.9965 98.0365 89.0832 98.7034 89.2226 99.3602C89.2226 99.3602 92.4464 104.777 99.0275 104.97C105.608 105.163 111.604 102.517 111.604 101.294C111.556 100.524 111.404 99.7636 111.152 99.0339C111.152 98.7819 111.929 97.5519 111.816 96.7807C111.703 96.0099 111.238 95.8101 111.364 94.6534C111.49 93.4972 117.04 76.9128 117.3 71.8147C117.559 66.7165 117.619 66.3306 116.396 65.433C115.173 64.5362 110.653 63.7515 110.653 63.7515L103.042 61.8178L100.011 61.5579L99.5389 61.2523Z" fill="#BABABA" stroke="#0B2F3D" stroke-width="0.461538" stroke-linecap="round" stroke-linejoin="round"/>
<path id="Vector_26" d="M117.28 71.8272C117.539 66.736 117.599 66.3437 116.376 65.4465C115.153 64.5488 110.633 63.7642 110.633 63.7642L103.022 61.8303L99.9913 61.5714L99.5395 61.2521C99.5395 61.2521 94.6408 60.5412 93.863 61.059C93.0849 61.5783 90.3198 65.8919 88.9642 67.7066C87.6077 69.5214 78.5146 77.1912 78.5146 77.1912L75.8557 71.788L70.9971 75.0312C72.9904 80.2961 74.7322 84.8094 75.1583 85.5137C76.2545 87.3151 76.7727 87.382 77.9963 87.0558C79.2193 86.7304 91.2835 77.6902 91.2835 77.6902C91.2835 77.6902 90.7716 94.2682 90.1869 95.4317C89.6021 96.5944 88.9642 96.5944 88.9642 97.3656C88.9961 98.0362 89.0833 98.7031 89.2232 99.3595C89.2232 99.3595 92.447 104.777 99.0272 104.97C105.608 105.163 111.604 102.517 111.604 101.294C111.556 100.524 111.404 99.7632 111.152 99.0345C111.152 98.7811 111.929 97.5516 111.816 96.7803C111.703 96.0101 111.238 95.8107 111.365 94.6536C111.491 93.497 117.021 76.9259 117.28 71.8272Z" fill="#BBDDFF" stroke="#0B2F3D" stroke-width="0.461538" stroke-linecap="round" stroke-linejoin="round"/>
<path id="Vector_27" d="M91.315 70.0762L91.2812 77.7008" stroke="#0B2F3D" stroke-width="0.461538" stroke-linecap="round" stroke-linejoin="round"/>
<path id="Vector_28" d="M68.95 56.0664C68.9162 56.5243 68.7778 56.9678 68.5447 57.363C68.1525 58.0276 67.6604 58.2602 67.5945 59.4233C67.5696 59.7487 67.6212 60.0754 67.744 60.3781C67.8681 60.6799 68.0601 60.9495 68.3052 61.1651" stroke="#0B2F3D" stroke-width="0.461538" stroke-linecap="round" stroke-linejoin="round"/>
<path id="Vector_29" d="M64.8264 57.9419C64.8264 57.9419 62.2474 56.1405 61.729 56.4598C61.5878 56.5581 61.4687 56.6865 61.3811 56.8342C61.2934 56.9828 61.2384 57.148 61.2195 57.3197C61.2015 57.4909 61.2204 57.6644 61.2754 57.8284C61.3294 57.9917 61.4185 58.1417 61.5361 58.2681C62.1214 58.786 64.6335 59.1719 65.0853 58.9323C65.5381 58.6932 65.2386 58.2077 64.8264 57.9419Z" fill="#BABABA" stroke="#0B2F3D" stroke-width="0.461538" stroke-linecap="round" stroke-linejoin="round"/>
<path id="Vector_30" d="M65.6274 59.9357C65.6274 59.9357 63.8241 59.5499 63.3852 59.4766C62.9454 59.4036 62.686 59.6495 62.7197 60.1088C62.7524 60.5675 63.1988 60.8537 63.8971 60.8804C64.5959 60.9073 66.1461 61.1666 66.2131 60.4947C66.2325 60.4148 66.2311 60.3313 66.2084 60.2518C66.1854 60.1729 66.142 60.1018 66.0824 60.0451C66.0229 59.9879 65.9495 59.9486 65.8702 59.9288C65.7894 59.9094 65.7058 59.9121 65.6274 59.9357Z" fill="#BABABA" stroke="#0B2F3D" stroke-width="0.461538" stroke-linecap="round" stroke-linejoin="round"/>
<path id="Vector_31" d="M103.042 57.4982C103.042 57.4982 106.638 57.3851 107.861 56.7998" stroke="#0B2F3D" stroke-width="0.461538" stroke-linecap="round" stroke-linejoin="round"/>
<path id="Vector_32" d="M111.347 69.057C111.347 69.057 104.035 76.5219 101.662 79.3474C100.015 81.2604 98.2169 83.0392 96.2845 84.6644L80.0323 73.8634C79.4213 72.9523 78.8595 72.0094 78.351 71.0378C77.8788 70.0276 77.1412 69.7622 76.5361 68.2128C75.9315 66.6648 75.3195 65.6605 74.8543 66.7377C74.389 67.814 74.582 68.1467 74.8543 68.6849C75.127 69.224 76.064 70.8384 76.064 70.8384C76.064 70.8384 72.0296 69.224 70.6137 68.6185C69.1977 68.0134 67.7217 67.814 67.6556 68.353C67.5892 68.8912 67.8615 68.8183 68.5331 69.0906C69.2046 69.363 73.3723 71.6429 73.3723 71.6429L72.9666 71.8492C72.9666 71.8492 67.4563 70.8384 66.9176 70.772C66.3796 70.7061 66.512 71.4371 66.9176 71.6429C67.3233 71.8492 69.404 72.8526 69.404 72.8526C69.404 72.8526 68.9323 73.2583 69.4705 73.9959C69.9837 74.6046 70.5708 75.1473 71.2183 75.6112C71.3346 76.1005 71.5935 76.545 71.9632 76.8878C72.5014 77.2931 75.9975 77.2266 77.4731 77.36C78.2129 77.3932 78.9412 77.5534 79.6266 77.8317C79.6266 77.8317 96.7561 92.455 97.8994 92.455C99.0431 92.455 114.976 77.3928 116.724 75.1728C118.472 72.9523 119.749 69.057 118.679 67.2422C117.608 65.4283 115.92 65.0226 114.843 65.4214" fill="#BABABA"/>
<path id="Vector_33" d="M111.347 69.057C111.347 69.057 104.035 76.5219 101.662 79.3474C100.015 81.261 98.2169 83.0392 96.2845 84.6644L80.0323 73.8634C79.4213 72.9523 78.8595 72.0094 78.351 71.0378C77.8788 70.0276 77.1412 69.7622 76.5361 68.2128C75.9315 66.6648 75.3195 65.6605 74.8543 66.7377C74.389 67.814 74.582 68.1467 74.8543 68.6849C75.127 69.224 76.064 70.8384 76.064 70.8384C76.064 70.8384 72.0296 69.224 70.6137 68.6185C69.1977 68.0134 67.7217 67.814 67.6556 68.353C67.5892 68.8912 67.8615 68.8183 68.5331 69.0906C69.2046 69.363 73.3723 71.6429 73.3723 71.6429L72.9666 71.8492C72.9666 71.8492 67.4563 70.8384 66.9176 70.772C66.3796 70.7061 66.512 71.4371 66.9176 71.6429C67.3233 71.8492 69.404 72.8526 69.404 72.8526C69.404 72.8526 68.9323 73.2583 69.4705 73.9959C69.9837 74.6046 70.5708 75.1473 71.2183 75.6112C71.3346 76.1005 71.5935 76.545 71.9632 76.8878C72.5014 77.2931 75.9975 77.2266 77.4731 77.36C78.2129 77.3932 78.9412 77.5534 79.6266 77.8317C79.6266 77.8317 96.7561 92.455 97.8994 92.455C99.0431 92.455 114.976 77.3928 116.724 75.1728C118.472 72.9523 119.749 69.057 118.679 67.2422C117.608 65.4283 115.92 65.0226 114.843 65.4214" stroke="#0B2F3D" stroke-width="0.461538" stroke-linecap="round" stroke-linejoin="round"/>
<path id="Vector_34" d="M69.4053 72.8105C69.4053 72.8105 71.5611 73.5563 72.2332 73.7562L69.4053 72.8105Z" fill="#FCFDFD"/>
<path id="Vector_35" d="M69.4053 72.8105C69.4053 72.8105 71.5611 73.5563 72.2332 73.7562" stroke="#0B2F3D" stroke-width="0.461538" stroke-linecap="round" stroke-linejoin="round"/>
<path id="Vector_36" d="M71.2178 75.5674L72.6351 75.7668" stroke="#0B2F3D" stroke-width="0.461538" stroke-linecap="round" stroke-linejoin="round"/>
<path id="Vector_37" d="M111.348 69.0571C111.348 69.0571 104.036 76.522 101.664 79.3475C100.016 81.2615 98.2181 83.0393 96.2862 84.6643L91.9454 81.813L89.4863 86.433C93.7731 89.7099 97.4621 92.415 97.908 92.415C99.0447 92.415 114.984 77.3531 116.732 75.1328C118.48 72.9132 119.757 69.0178 118.686 67.2031C117.616 65.3883 115.928 64.9826 114.851 65.3813L113.874 66.0003" fill="#BBDDFF"/>
<path id="Vector_38" d="M111.348 69.0571C111.348 69.0571 104.036 76.522 101.664 79.3475C100.016 81.2615 98.2181 83.0393 96.2862 84.6643L91.9454 81.813L89.4863 86.433C93.7731 89.7099 97.4621 92.415 97.908 92.415C99.0447 92.415 114.984 77.3531 116.732 75.1328C118.48 72.9132 119.757 69.0178 118.686 67.2031C117.616 65.3883 115.928 64.9826 114.851 65.3813L113.874 66.0003" stroke="#0B2F3D" stroke-width="0.461538" stroke-linecap="round" stroke-linejoin="round"/>
<path id="Vector_39" d="M110.633 63.772L103.022 61.8377L100.602 61.6249L99.5392 61.2593C99.5392 61.2593 98.9877 61.18 98.21 61.0928L98.0171 75.8828L113.219 64.3166C111.889 63.9848 110.633 63.772 110.633 63.772Z" fill="#FCFDFD" stroke="#0B2F3D" stroke-width="0.461538" stroke-linecap="round" stroke-linejoin="round"/>
<path id="Vector_40" d="M108.73 40.0893C107.139 40.0464 105.595 40.6289 104.429 41.7112C102.687 43.506 102.574 44.6688 101.876 45.3067C101.178 45.9453 99.8423 45.885 98.9179 47.8599C97.9944 49.8338 97.29 53.955 97.4627 55.2911C97.6352 56.6273 98.7919 57.0326 99.9018 57.2056C101.012 57.3782 103.039 57.4982 103.039 57.4982C103.039 57.4982 102.74 61.8584 102.455 61.7914C102.168 61.7254 100.6 61.6188 100.6 61.6188C100.6 61.6188 100.308 68.4122 100.254 70.0936L100.195 71.7823L110.797 63.7327L108.73 62.8686C108.786 61.5297 109.01 60.2037 109.394 58.9206C109.714 57.9011 110.12 56.9115 110.61 55.9621C110.61 55.9621 113.934 54.8591 115.722 52.3663C117.164 50.372 117.118 47.4934 116.334 45.247C115.885 43.9344 115.087 42.7689 114.026 41.8753C112.966 40.9822 111.681 40.3945 110.311 40.1756C109.788 40.0939 109.258 40.0652 108.73 40.0893Z" fill="#BABABA" stroke="#0B2F3D" stroke-width="0.461538" stroke-linecap="round" stroke-linejoin="round"/>
<path id="Vector_41" d="M102.921 46.7061C102.351 47.3402 101.709 47.9042 101.006 48.3879C100.076 48.9662 100.774 50.0703 101.937 50.475C103.1 50.8807 103.445 50.3624 103.445 50.3624" stroke="#0B2F3D" stroke-width="0.461538" stroke-linecap="round" stroke-linejoin="round"/>
<path id="Vector_42" d="M103.624 52.399C103.624 52.399 101.242 52.0459 100.137 51.001C100.213 51.3241 100.37 51.6213 100.594 51.8659C100.818 52.1106 101.1 52.2938 101.414 52.399C102.142 52.562 102.897 52.562 103.624 52.399Z" stroke="#0B2F3D" stroke-width="0.461538" stroke-linecap="round" stroke-linejoin="round"/>
<path id="Vector_43" d="M106.987 45.1953C107.393 45.3227 107.753 45.5667 108.021 45.897C108.29 46.227 108.455 46.6289 108.497 47.0522" stroke="#0B2F3D" stroke-width="0.461538" stroke-linecap="round" stroke-linejoin="round"/>
<path id="Vector_44" d="M105.016 44.2712C104.727 44.0258 104.366 43.8818 103.988 43.8604C103.609 43.8382 103.235 43.9408 102.919 44.1512" stroke="#0B2F3D" stroke-width="0.461538" stroke-linecap="round" stroke-linejoin="round"/>
<path id="Vector_45" d="M105.942 47.4634C105.696 47.8561 105.35 48.0818 105.177 47.9752C105.004 47.8696 105.057 47.45 105.303 47.0572C105.55 46.6645 105.895 46.4388 106.075 46.5514C106.255 46.6645 106.195 47.0706 105.942 47.4634Z" fill="#0B2F3D"/>
<path id="Vector_46" d="M102.636 45.8383C102.383 46.2313 102.043 46.457 101.864 46.3438C101.684 46.2313 101.744 45.825 101.997 45.4322C102.25 45.0395 102.589 44.8137 102.762 44.9196C102.935 45.0262 102.881 45.439 102.636 45.8383Z" fill="#0B2F3D"/>
<path id="Vector_47" d="M116.308 45.2838C115.859 43.9719 115.061 42.8058 114 41.9127C112.94 41.0191 111.656 40.4313 110.286 40.2124C109.773 40.124 109.251 40.086 108.73 40.0993C108.136 40.1047 107.545 40.1803 106.969 40.3255C107.193 40.6622 107.474 40.9568 107.8 41.1964C108.331 41.5887 109.834 41.4288 111.455 42.1269C113.077 42.8245 114.068 45.1447 113.025 46.5337C111.981 47.9234 110.904 46.2083 110.366 47.4841C110.126 48.1173 109.922 48.7629 109.754 49.4188C109.735 49.6413 109.751 49.8651 109.801 50.0834C109.987 50.7481 110.425 51.0804 110.18 51.4131C109.934 51.745 109.548 52.0777 109.548 52.536C109.552 52.6561 109.602 52.7706 109.688 52.855C110.672 52.4632 112.745 51.7851 113.011 53.0216C113.356 54.643 111.968 55.4609 110.864 55.6334C109.996 55.6943 109.125 55.5766 108.305 55.2882C108.305 55.2882 108.71 56.2321 110.379 56.4181C110.499 56.172 110.572 56.0391 110.572 56.0391C110.572 56.0391 113.896 54.9356 115.683 52.4432C117.139 50.3954 117.093 47.5312 116.308 45.2838Z" fill="#0B2F3D" stroke="#0B2F3D" stroke-width="0.461538" stroke-linecap="round" stroke-linejoin="round"/>
</g>
</g>
</g>
</g>
<defs>
<filter id="filter0_f_576_9199" x="2.30769" y="21.2296" width="124.615" height="116.748" filterUnits="userSpaceOnUse" color-interpolation-filters="sRGB">
<feFlood flood-opacity="0" result="BackgroundImageFix"/>
<feBlend mode="normal" in="SourceGraphic" in2="BackgroundImageFix" result="shape"/>
<feGaussianBlur stdDeviation="13.8462" result="effect1_foregroundBlur_576_9199"/>
</filter>
<filter id="filter1_f_576_9199" x="17.0767" y="6.46297" width="124.615" height="116.748" filterUnits="userSpaceOnUse" color-interpolation-filters="sRGB">
<feFlood flood-opacity="0" result="BackgroundImageFix"/>
<feBlend mode="normal" in="SourceGraphic" in2="BackgroundImageFix" result="shape"/>
<feGaussianBlur stdDeviation="13.8462" result="effect1_foregroundBlur_576_9199"/>
</filter>
</defs>
</svg>